<?xml version="1.0" encoding="utf-8"?>
<!-- Generator: Adobe Illustrator 19.2.1, SVG Export Plug-In . SVG Version: 6.00 Build 0)  -->
<svg version="1.1" id="Camada_1" xmlns="http://www.w3.org/2000/svg" xmlns:xlink="http://www.w3.org/1999/xlink" x="0px" y="0px"
	 viewBox="0 0 1920 1000" style="enable-background:new 0 0 1920 1000;" xml:space="preserve">
<style type="text/css">
	.st0{clip-path:url(#SVGID_2_);fill:url(#SVGID_3_);}
	.st1{clip-path:url(#SVGID_5_);fill:url(#SVGID_6_);}
</style>
<g>
	<defs>
		<rect id="SVGID_1_" x="-259.3" y="522.9" width="2179.4" height="514.7"/>
	</defs>
	<clipPath id="SVGID_2_">
		<use xlink:href="#SVGID_1_"  style="overflow:visible;"/>
	</clipPath>
	
		<linearGradient id="SVGID_3_" gradientUnits="userSpaceOnUse" x1="450.8018" y1="222.6407" x2="1966.9998" y2="222.6407" gradientTransform="matrix(1 0 0 -1 0 997.89)">
		<stop  offset="0" style="stop-color:#F63854"/>
		<stop  offset="1" style="stop-color:#F08A5B"/>
	</linearGradient>
	<path class="st0" d="M450.8,878.9C591.4,767.6,776.9,729.8,956,720.3c179.2-9.5,359.5,5.9,537.7-15c137.8-16.1,273-54,399-111.7
		c18.3-8.4,40.5-17,57.5-6.1c18.5,11.9,18.2,38.6,15.6,60.5c-8.7,74.4-21.4,156.7-79.8,203.8c-35.5,28.5-81.9,38.7-126.6,47.3
		c-309.6,59.2-626.3,80.4-941.1,63C691.9,955,561.6,940.5,450.8,878.9L450.8,878.9z"/>
</g>
<g>
	<defs>
		<rect id="SVGID_4_" x="-427.3" y="503" width="2347.4" height="554.4"/>
	</defs>
	<clipPath id="SVGID_5_">
		<use xlink:href="#SVGID_4_"  style="overflow:visible;"/>
	</clipPath>
	
		<linearGradient id="SVGID_6_" gradientUnits="userSpaceOnUse" x1="-228.6041" y1="82.7181" x2="2055.1287" y2="82.7181" gradientTransform="matrix(1 0 0 -1 0 997.89)">
		<stop  offset="0" style="stop-color:#F63854"/>
		<stop  offset="1" style="stop-color:#FFAB7F"/>
	</linearGradient>
	<path class="st1" d="M1129.2,857c248.8-25.7,482.9-147.7,732.8-151.5c43.8-0.7,90.5,3.3,125.9,29.3c56.6,41.6,64.1,121.8,66.6,192
		c1.8,49.8,1.4,105.5-32.9,141.7c-33.5,35.3-87.6,39.4-136.2,40.2c-362.6,6.3-724.9-39-1087.4-28.8
		c-337.2,9.5-703.2,95.9-1026.6,0.5c87.6-130.7,261.7-235.3,417-261.2s314.2-8.4,470.4,11.6C814.9,850.8,972.6,873.2,1129.2,857
		L1129.2,857z"/>
</g>
</svg>
