<?xml version="1.0" encoding="utf-8"?>
<!-- Generator: Adobe Illustrator 19.2.1, SVG Export Plug-In . SVG Version: 6.00 Build 0)  -->
<svg version="1.1" id="Camada_1" xmlns="http://www.w3.org/2000/svg" xmlns:xlink="http://www.w3.org/1999/xlink" x="0px" y="0px"
	 viewBox="0 0 107.2 32.2" style="enable-background:new 0 0 107.2 32.2;" xml:space="preserve">
<style type="text/css">
	.st0{fill:#0067A6;}
</style>
<title>cnpq</title>
<g>
	<path class="st0" d="M18.6,0c0.1,0,0.2,0,0.2,0.1c3.9,0.3,7.5,2.2,9.9,5.4c1.1,1.5,1.9,3.2,2.3,5c0.8,3.5,0.2,7.1-1.6,10.2
		c-0.1,0.1-0.1,0.2-0.2,0.3c-0.1,0.1-0.2,0.3-0.1,0.5c0.9,3.4,1.8,6.8,2.8,10.2c0,0.1,0,0.2,0.1,0.4c-0.2,0.1-3,0.1-3.4,0
		c0-0.1-0.1-0.3-0.1-0.4l-3.2-10.9l-0.1-0.1c0-0.1,0-0.2,0.1-0.3c1.3-1.4,2.1-3.1,2.4-5c0.2-0.9,0.2-1.9,0.1-2.9
		c-0.2-1.6-0.7-3.1-1.6-4.4c-1.4-2.1-3.7-3.7-6.2-4.2c-0.8-0.2-1.6-0.3-2.4-0.3c-2.4,0-4.7,0.9-6.4,2.6c-1.6,1.4-2.6,3.3-2.9,5.4
		c-0.1,0.6-0.1,1.1-0.2,1.7c0,0.2-0.1,0.3-0.1,0.5l-2.7,6.6c0,0.1-0.1,0.2-0.1,0.4h2.3c0,0.1,0,0.2,0,0.3c0,2.4,0,4.9,0,7.3
		c0,0.1,0,0.2,0,0.4h14.2l1,3.4v0.1H4c0-0.1,0-0.2,0-0.3c0-1.9,0-3.8,0-5.7V24c0-0.1,0-0.2,0-0.3c-0.5,0-0.9,0-1.3,0H0l0.1-0.3
		l3.5-8.2C3.8,14.8,4,14.4,4.1,14c0.1-0.3,0.2-0.7,0.3-1.1c0.3-2.9,1.3-5.6,3.1-7.9c1-1.3,2.3-2.4,3.8-3.3C12.6,1,14,0.5,15.6,0.3
		c0.6-0.1,1.2-0.1,1.7-0.2L17.7,0L18.6,0L18.6,0z"/>
	<path class="st0" d="M74,7.5l-3.8,17.8h-7c-1.1-4.5-2.2-9-3.3-13.5h-0.1l-2.7,13.5h-4.6l3.6-17.8h6.8c0.3,0,0.3,0,0.4,0.3l2.9,11.8
		l0.2,0.7h0.1c0-0.1,0-0.2,0.1-0.2l1.4-6.4l1.3-5.9c0.1-0.3,0.1-0.3,0.3-0.3h4.1L74,7.5z"/>
	<path class="st0" d="M20.5,24.2l1,3.4c-0.2,0.1-12.6,0.1-12.9,0c0-0.1,0-0.2,0-0.4c0-2.4,0-4.8,0-7.2c0-0.1,0-0.3,0-0.4
		c-0.6,0-1.1,0-1.8,0c0-0.1,0.1-0.2,0.1-0.3c0.4-1.2,0.9-2.4,1.4-3.7c0.3-0.7,0.5-1.3,0.8-2c0.1-0.3,0.2-0.7,0.2-1
		c0.1-0.7,0.2-1.4,0.5-2.1C10.1,9,11,7.8,12.2,6.8c1.2-1.1,2.8-1.8,4.4-2.1c1.9-0.3,3.8,0,5.5,0.9c2.7,1.3,4.4,3.9,4.7,6.9
		c0.2,1.4,0,2.8-0.5,4.1c-0.4,1.2-1.1,2.3-2,3.1c-0.1,0.1-0.2,0.3-0.1,0.5c1.1,3.8,2.3,7.7,3.4,11.5c0,0.1,0.1,0.3,0.1,0.4h-3.5
		c0-0.1-0.1-0.2-0.1-0.3l-2.9-10.2l-0.8-3c-0.1-0.3-0.1-0.3,0.2-0.4c0.9-0.5,1.6-1.2,2.1-2.1c1-1.7,1-3.8,0-5.4
		c-0.1-0.2-0.2-0.4-0.4-0.6c-0.7-1.1-1.9-1.8-3.2-2c-2.9-0.6-5.8,1.4-6.3,4.3c0,0,0,0,0,0c0,0.1-0.1,0.3-0.1,0.4
		c0,0.4-0.1,0.7-0.2,1.1l-1,2.7c0,0.1-0.1,0.2-0.1,0.3H12c0,1.2,0,2.4,0,3.6s0,2.4,0,3.6c0.6,0,1.1,0,1.7,0L20.5,24.2L20.5,24.2z"/>
	<path class="st0" d="M79.7,19l-1.3,6.2h-5c0-0.1,0-0.1,0-0.2c0.4-2.2,0.9-4.3,1.3-6.5l1.7-8.2l0.6-2.7c0-0.3,0.1-0.3,0.3-0.3
		c2.6,0,5.3,0,7.9,0c1.1,0,2.2,0.1,3.3,0.4c0.5,0.2,1,0.4,1.5,0.6c0.9,0.4,1.5,1.3,1.7,2.3c0.1,0.6,0.1,1.3,0,1.9
		c-0.1,0.9-0.3,1.8-0.6,2.6c-0.4,0.9-1,1.6-1.8,2.1c-1.2,0.8-2.5,1.3-3.8,1.6c-0.7,0.1-1.4,0.2-2.1,0.2L79.7,19L79.7,19z M80.5,15.6
		h0.3h2.7c0.2,0,0.4,0,0.6-0.1c1.1-0.3,2-1.2,2.3-2.3c0.2-0.8-0.2-1.6-1-1.9c-0.3-0.1-0.6-0.2-0.9-0.2c-0.9,0-1.8,0-2.7,0
		c-0.2,0-0.3,0-0.3,0.2l-0.9,4C80.5,15.4,80.5,15.5,80.5,15.6L80.5,15.6z"/>
	<path class="st0" d="M47.6,12.6c0-0.3,0-0.6,0-0.9c0-0.4-0.2-0.8-0.6-1c-0.4-0.3-1-0.5-1.5-0.6c-0.4,0-0.8,0-1.2,0
		c-0.5,0.1-1.1,0.3-1.5,0.7c-0.8,0.7-1.5,1.5-1.9,2.5c-0.5,1.3-0.9,2.6-1,4c0,0.5-0.1,0.9-0.1,1.4c0,0.6,0.1,1.3,0.3,1.9
		c0.3,0.8,1,1.4,1.9,1.4c0.5,0,0.9,0,1.4,0c0.3,0,0.6-0.1,0.8-0.3c0.5-0.3,1-0.6,1.4-1.1c0.3-0.3,0.4-0.7,0.5-1.1
		c0-0.1,0.1-0.2,0.2-0.2c0,0,0,0,0,0h1.2h3.8c0.1,0.2,0.1,0.4,0,0.6c-0.1,0.6-0.4,1.2-0.7,1.8c-0.6,1-1.5,1.8-2.5,2.4
		c-1.1,0.8-2.4,1.3-3.7,1.4c-0.7,0.1-1.4,0.1-2.1,0.2c-0.7,0-1.3,0-2-0.1c-0.9,0-1.8-0.2-2.6-0.6c-0.7-0.3-1.4-0.8-1.8-1.4
		c-0.8-1.1-1.3-2.5-1.3-3.8c-0.1-1.6,0.1-3.2,0.5-4.8c0.4-1.7,1.2-3.3,2.4-4.6c0.6-0.7,1.2-1.3,1.9-1.9c1-0.7,2.1-1.1,3.3-1.3
		C43.9,7,45.2,6.9,46.4,7c1.5,0,3,0.3,4.4,0.9l0.7,0.3c1,0.5,1.6,1.5,1.7,2.6c0.1,0.5,0,1.1-0.1,1.6c0,0.2-0.1,0.2-0.3,0.2h-4.9
		L47.6,12.6z"/>
	<path class="st0" d="M100.2,23.5l-0.2,0.2c-0.4,0.4-0.8,0.8-1.2,1.1c-0.6,0.4-1.3,0.7-2,0.7c-0.7,0.1-1.5,0-2.2-0.1
		c-0.8-0.1-1.5-0.6-2-1.3c-0.4-0.6-0.6-1.3-0.7-1.9c-0.4-2.8,0.4-5.7,2.3-7.9c0.7-0.8,1.7-1.4,2.7-1.7c0.7-0.2,1.3-0.3,2-0.3
		c0.6,0,1.2,0.2,1.7,0.5c0.6,0.4,1.1,0.9,1.5,1.4l0.2,0.2c0.2-0.5,0.3-1,0.4-1.5c0.2-0.1,4.2-0.1,4.5,0c0,0.1,0,0.2,0,0.3l-2,9.3
		c-0.5,2.4-1,4.8-1.5,7.1c-0.1,0.4,0,0.4-0.5,0.4H99C99.4,27.9,99.9,25.7,100.2,23.5L100.2,23.5z M101.5,17.8c0-0.6-0.1-1.3-0.4-1.9
		c-0.2-0.3-0.4-0.6-0.8-0.6c-0.8-0.3-1.8,0-2.3,0.7c-0.6,0.7-0.9,1.6-1.1,2.5c-0.1,0.3-0.1,0.5-0.2,0.8c-0.1,0.5-0.2,0.9-0.2,1.4
		c0,0.5,0.1,1,0.3,1.5c0.1,0.3,0.4,0.5,0.7,0.6c0.3,0.1,0.6,0.1,0.9,0.1c0.8-0.1,1.6-0.5,2-1.3c0.3-0.5,0.5-0.9,0.6-1.4
		C101.3,19.4,101.5,18.6,101.5,17.8L101.5,17.8z"/>
	<path class="st0" d="M21.4,13.5c0,1.9-1.6,3.5-3.5,3.5c-1.9,0-3.5-1.6-3.5-3.5s1.6-3.5,3.5-3.5C19.9,10.1,21.4,11.6,21.4,13.5z"/>
</g>
</svg>
