<?xml version="1.0" encoding="utf-8"?>
<!-- Generator: Adobe Illustrator 19.2.1, SVG Export Plug-In . SVG Version: 6.00 Build 0)  -->
<svg version="1.1" id="Camada_1" xmlns="http://www.w3.org/2000/svg" xmlns:xlink="http://www.w3.org/1999/xlink" x="0px" y="0px"
	 viewBox="0 0 107.2 32.2" style="enable-background:new 0 0 107.2 32.2;" xml:space="preserve">
<style type="text/css">
	.st0{fill:#BC0000;}
</style>
<title>dcc</title>
<g>
	<path d="M73.4,3.4c0,0.5-0.1,0.9-0.2,1.4c-0.2,0.4-0.3,0.8-0.6,1c-0.3,0.3-0.6,0.5-0.9,0.7c-0.3,0.1-0.8,0.2-1.2,0.2h-2.4V0.2h2.4
		c0.4,0,0.9,0.1,1.2,0.3c0.3,0.2,0.7,0.3,0.9,0.7c0.3,0.3,0.4,0.6,0.6,0.9C73.4,2.5,73.4,2.9,73.4,3.4z M72.2,3.4
		c0-0.3,0-0.5-0.1-0.7c-0.1-0.3-0.2-0.4-0.3-0.7c-0.1-0.2-0.3-0.3-0.5-0.5c-0.3-0.1-0.5-0.2-0.9-0.2h-1.2v4.2h1.2
		c0.3,0,0.7-0.1,0.9-0.3c0.3-0.2,0.4-0.3,0.5-0.5c0.1-0.2,0.2-0.4,0.3-0.7C72.1,3.9,72.2,3.6,72.2,3.4z"/>
	<path d="M81.4,5.1c-0.3,0.5-0.6,1-1.1,1.3c-0.5,0.3-1,0.5-1.7,0.5c-0.4,0-0.9-0.1-1.2-0.3c-0.3-0.2-0.7-0.4-1-0.7
		c-0.3-0.3-0.5-0.7-0.7-1.1c-0.2-0.4-0.3-0.9-0.3-1.4s0.1-0.9,0.3-1.4c0.2-0.4,0.3-0.8,0.7-1.1c0.3-0.3,0.6-0.5,1-0.7
		C77.7,0.1,78.1,0,78.5,0c0.7,0,1.2,0.2,1.7,0.5c0.5,0.3,0.9,0.8,1.1,1.3l-1.2,0.3c-0.2-0.3-0.3-0.5-0.6-0.7s-0.6-0.3-0.9-0.3
		c-0.3,0-0.5,0.1-0.8,0.2c-0.3,0.1-0.4,0.3-0.6,0.5c-0.2,0.2-0.3,0.4-0.4,0.7s-0.2,0.6-0.2,0.9c0,0.3,0.1,0.6,0.2,0.9
		s0.3,0.5,0.4,0.7c0.2,0.2,0.3,0.3,0.6,0.5c0.3,0.1,0.5,0.2,0.8,0.2c0.3,0,0.7-0.1,0.9-0.3c0.3-0.2,0.5-0.4,0.6-0.7L81.4,5.1z"/>
	<path d="M89.3,5.1c-0.3,0.5-0.6,1-1.1,1.3c-0.5,0.3-1,0.5-1.7,0.5c-0.4,0-0.9-0.1-1.2-0.3c-0.3-0.2-0.7-0.4-1-0.7
		c-0.3-0.3-0.5-0.7-0.7-1.1c-0.2-0.4-0.3-0.9-0.3-1.4s0.1-0.9,0.3-1.4c0.3-0.3,0.4-0.8,0.8-1c0.3-0.3,0.6-0.5,1-0.7
		C85.7,0.1,86,0,86.5,0c0.7,0,1.2,0.2,1.7,0.5s0.9,0.8,1.1,1.3l-1.2,0.3c-0.2-0.3-0.3-0.5-0.6-0.7c-0.3-0.2-0.6-0.3-0.9-0.3
		c-0.3,0-0.5,0.1-0.8,0.2c-0.3,0.1-0.4,0.3-0.6,0.5c-0.2,0.2-0.3,0.4-0.4,0.7c-0.1,0.3-0.2,0.6-0.2,0.9c0,0.3,0.1,0.6,0.2,0.9
		c0.1,0.3,0.3,0.5,0.4,0.7c0.2,0.2,0.3,0.3,0.6,0.5c0.3,0.1,0.5,0.2,0.8,0.2c0.3,0,0.7-0.1,0.9-0.3c0.3-0.2,0.5-0.4,0.6-0.7
		L89.3,5.1z"/>
	<rect x="67.6" y="8.5" class="st0" width="22.5" height="5.7"/>
	<g>
		<path d="M38.4,20.5c0,0.3,0,0.6-0.1,0.8c-0.1,0.3-0.2,0.4-0.3,0.6s-0.3,0.3-0.5,0.4c-0.3,0.1-0.6,0.1-0.9,0.1h-1.5v-4h1.5
			c0.3,0,0.5,0.1,0.8,0.2c0.3,0.1,0.4,0.3,0.5,0.4c0.2,0.2,0.3,0.3,0.3,0.6C38.3,19.9,38.4,20.1,38.4,20.5z M37.6,20.5
			c0-0.2,0-0.3,0-0.4s-0.1-0.3-0.2-0.4s-0.2-0.3-0.3-0.3c-0.2-0.1-0.3-0.1-0.5-0.1h-0.7v2.5h0.7c0.3,0,0.4-0.1,0.5-0.2
			c0.2-0.1,0.3-0.2,0.3-0.3c0.1-0.1,0.1-0.3,0.2-0.4C37.6,20.7,37.6,20.6,37.6,20.5z"/>
		<path d="M41.7,22.4h-2.9v-4h2.8v0.7h-2.1V20h1.8v0.7h-1.8v1h2.2V22.4z"/>
		<path d="M45.1,19.8c0,0.2,0,0.3-0.1,0.5c-0.1,0.2-0.2,0.3-0.3,0.3c-0.1,0.1-0.3,0.2-0.4,0.3S43.9,21,43.7,21h-0.9v1.4h-0.7v-4h1.6
			c0.2,0,0.3,0,0.5,0.1c0.2,0.1,0.3,0.2,0.4,0.3c0.1,0.1,0.2,0.3,0.3,0.4S45.1,19.5,45.1,19.8z M42.9,19.2v1.1h0.9
			c0.2,0,0.3-0.1,0.4-0.2c0.1-0.1,0.2-0.3,0.2-0.4c0-0.2-0.1-0.3-0.2-0.4c-0.1-0.1-0.3-0.2-0.4-0.2L42.9,19.2L42.9,19.2z"/>
		<path d="M46.1,21.6l-0.3,0.8h-0.8l1.4-4h0.9l1.4,4H48l-0.3-0.8H46.1z M47,19.4l-0.6,1.5h1.1L47,19.4z"/>
		<path d="M52.2,19.8c0,0.3-0.1,0.5-0.3,0.8c-0.2,0.2-0.3,0.3-0.6,0.4l0.9,1.5h-0.9l-0.8-1.4h-0.7v1.3h-0.8v-4h1.7
			c0.2,0,0.3,0,0.5,0.1c0.2,0.1,0.3,0.2,0.4,0.3c0.1,0.1,0.2,0.3,0.3,0.4C52.1,19.4,52.2,19.5,52.2,19.8z M49.8,19.2v1.1h1
			c0.2,0,0.3-0.1,0.4-0.2c0.1-0.1,0.2-0.3,0.2-0.4c0-0.2-0.1-0.3-0.2-0.4c-0.1-0.1-0.3-0.2-0.4-0.2L49.8,19.2L49.8,19.2z"/>
		<path d="M54.2,19.2v3.2h-0.8v-3.2h-1v-0.7h2.8v0.7H54.2z"/>
		<path d="M58.5,22.4h-2.9v-4h2.8v0.7h-2.2V20h1.8v0.7h-1.8v1h2.2L58.5,22.4L58.5,22.4z"/>
		<path d="M62.8,22.4h-0.8v-2.8l-0.8,2.8h-0.8l-0.8-2.8v2.8H59v-4h1.1l0.9,2.9l0.9-2.9h1.1L62.8,22.4L62.8,22.4z"/>
		<path d="M64.1,21.6l-0.3,0.8h-0.8l1.4-4h0.9l1.4,4H66l-0.3-0.8H64.1z M64.9,19.4L64.4,21h1.1L64.9,19.4z"/>
		<path d="M70.3,22.4h-0.9l-1.6-2.8v2.8h-0.8v-4h0.9l1.6,2.8v-2.8h0.8C70.3,18.4,70.3,22.4,70.3,22.4z"/>
		<path d="M73.9,22.4h-2.9v-4h2.8v0.7h-2.2V20h1.8v0.7h-1.8v1h2.2L73.9,22.4L73.9,22.4z"/>
		<path d="M75.8,19.2v3.2H75v-3.2h-1v-0.7h2.8v0.7H75.8z"/>
		<path d="M78.9,18.4c0.3,0,0.5,0.1,0.8,0.2c0.3,0.1,0.4,0.3,0.6,0.4s0.3,0.4,0.4,0.7c0.1,0.3,0.2,0.5,0.2,0.8
			c0,0.3-0.1,0.5-0.2,0.8c-0.1,0.3-0.3,0.4-0.4,0.7c-0.2,0.2-0.3,0.3-0.6,0.4c-0.3,0.1-0.5,0.2-0.8,0.2c-0.3,0-0.5-0.1-0.8-0.2
			s-0.4-0.3-0.6-0.4c-0.2-0.2-0.3-0.4-0.4-0.7C77.1,21,77,20.7,77,20.5c0-0.3,0.1-0.5,0.2-0.8c0.1-0.3,0.3-0.4,0.4-0.7
			c0.2-0.2,0.3-0.3,0.6-0.4C78.4,18.4,78.7,18.4,78.9,18.4z M78.9,21.8c0.2,0,0.3,0,0.4-0.1c0.2-0.1,0.3-0.2,0.3-0.3
			c0.1-0.1,0.2-0.3,0.3-0.4c0.1-0.2,0.1-0.3,0.1-0.5c0-0.2,0-0.3-0.1-0.5c-0.1-0.2-0.2-0.3-0.3-0.4c-0.1-0.1-0.3-0.3-0.3-0.3
			c-0.2-0.1-0.3-0.1-0.4-0.1c-0.2,0-0.3,0-0.4,0.1c-0.2,0.1-0.3,0.2-0.3,0.3S78,19.8,77.9,20c-0.1,0.2-0.1,0.3-0.1,0.5
			c0,0.2,0,0.3,0.1,0.5s0.2,0.3,0.3,0.4c0.1,0.1,0.3,0.3,0.3,0.3C78.6,21.8,78.8,21.8,78.9,21.8z"/>
		<path d="M86.3,20.5c0,0.3,0,0.6-0.1,0.8c-0.1,0.3-0.2,0.4-0.3,0.6s-0.3,0.3-0.5,0.4c-0.3,0.1-0.6,0.1-0.9,0.1H83v-4h1.5
			c0.3,0,0.5,0.1,0.8,0.2c0.3,0.1,0.4,0.3,0.5,0.4c0.2,0.2,0.3,0.3,0.3,0.6C86.2,19.9,86.3,20.1,86.3,20.5z M85.5,20.5
			c0-0.2,0-0.3,0-0.4s-0.1-0.3-0.2-0.4c-0.1-0.1-0.2-0.3-0.3-0.3c-0.2-0.1-0.3-0.1-0.5-0.1h-0.7v2.5h0.7c0.3,0,0.4-0.1,0.5-0.2
			c0.2-0.1,0.3-0.2,0.3-0.3c0.1-0.1,0.1-0.3,0.2-0.4C85.5,20.7,85.5,20.6,85.5,20.5z"/>
		<path d="M89.5,22.4h-2.9v-4h2.8v0.7h-2.2V20h1.8v0.7h-1.8v1h2.2L89.5,22.4L89.5,22.4z"/>
	</g>
	<g>
		<path d="M20.9,29.8c-0.2,0.3-0.3,0.6-0.7,0.9c-0.3,0.2-0.7,0.3-1.1,0.3c-0.3,0-0.5-0.1-0.8-0.2c-0.3-0.1-0.4-0.3-0.6-0.4
			c-0.2-0.2-0.3-0.4-0.4-0.7c-0.1-0.3-0.2-0.5-0.2-0.9c0-0.3,0.1-0.6,0.2-0.9c0.1-0.3,0.3-0.5,0.4-0.7c0.2-0.2,0.4-0.3,0.6-0.4
			c0.3-0.2,0.5-0.3,0.8-0.3c0.4,0,0.8,0.1,1.1,0.3s0.5,0.5,0.7,0.9l-0.8,0.2c-0.1-0.1-0.3-0.3-0.4-0.3c-0.2-0.1-0.3-0.2-0.6-0.2
			c-0.2,0-0.3,0-0.5,0.1c-0.2,0.1-0.3,0.2-0.3,0.3c-0.1,0.2-0.2,0.3-0.3,0.4c0,0.2-0.1,0.3-0.1,0.5c0,0.2,0,0.3,0.1,0.5
			c0.1,0.2,0.2,0.3,0.3,0.4c0.1,0.2,0.3,0.3,0.3,0.3c0.2,0.1,0.3,0.1,0.5,0.1c0.3,0,0.4-0.1,0.6-0.2c0.2-0.1,0.3-0.3,0.4-0.4
			L20.9,29.8z"/>
		<path d="M22.2,30.8h-0.8v-4.1h0.8V30.8z"/>
		<path d="M25.9,30.8h-3v-4.1h3v0.7h-2.2v0.9h1.9v0.7h-1.9v1.2h2.2V30.8z M23.4,26.4l0.7-0.9h0.7l0.7,0.9h-0.7l-0.3-0.5l-0.3,0.5
			H23.4z"/>
		<path d="M29.7,30.8h-0.9l-1.6-2.9v2.9h-0.8v-4.1h0.9l1.6,2.9v-2.9h0.8V30.8z"/>
		<path d="M34,29.8c-0.2,0.3-0.3,0.6-0.7,0.9C33,30.8,32.6,31,32.2,31c-0.3,0-0.5-0.1-0.8-0.2c-0.3-0.1-0.4-0.3-0.6-0.4
			c-0.2-0.2-0.3-0.4-0.4-0.7c-0.1-0.3-0.2-0.5-0.2-0.9c0-0.3,0.1-0.6,0.2-0.9c0.1-0.3,0.3-0.5,0.4-0.7c0.2-0.2,0.4-0.3,0.6-0.4
			c0.3-0.1,0.5-0.2,0.8-0.2c0.4,0,0.8,0.1,1.1,0.3c0.3,0.2,0.5,0.5,0.7,0.9L33.2,28c-0.1-0.2-0.3-0.3-0.4-0.4
			c-0.2-0.1-0.3-0.2-0.6-0.2c-0.2,0-0.3,0-0.5,0.1c-0.2,0.1-0.3,0.2-0.3,0.3c-0.1,0.2-0.2,0.3-0.3,0.4S31,28.6,31,28.8
			c0,0.2,0,0.3,0.1,0.5c0.1,0.2,0.2,0.3,0.3,0.4c0.1,0.2,0.3,0.3,0.3,0.3c0.2,0.1,0.3,0.1,0.5,0.1c0.3,0,0.4-0.1,0.6-0.2
			c0.2-0.1,0.3-0.3,0.4-0.4L34,29.8z"/>
		<path d="M35.3,30.8h-0.8v-4.1h0.8V30.8z"/>
		<path d="M36.7,30l-0.3,0.9h-0.9l1.5-4.1H38l1.5,4.1h-0.9L38.3,30H36.7z M37.5,27.6l-0.6,1.6h1.1L37.5,27.6z"/>
		<path d="M44.9,28.8c0,0.3-0.1,0.6-0.2,0.9c-0.1,0.3-0.2,0.4-0.3,0.7c-0.2,0.2-0.3,0.3-0.6,0.4S43.3,31,43,31h-1.5v-4.1H43
			c0.3,0,0.5,0.1,0.8,0.2c0.3,0.1,0.4,0.3,0.6,0.4s0.3,0.4,0.3,0.7C44.9,28.2,44.9,28.5,44.9,28.8z M44.2,28.8c0-0.2,0-0.3-0.1-0.4
			c0-0.2-0.1-0.3-0.2-0.4c-0.1-0.1-0.2-0.3-0.3-0.3c-0.2-0.1-0.3-0.1-0.5-0.1h-0.8v2.6H43c0.3,0,0.4-0.1,0.6-0.2
			c0.2-0.1,0.3-0.2,0.3-0.3s0.1-0.3,0.2-0.4C44.2,29.1,44.2,28.9,44.2,28.8z"/>
		<path d="M46.1,30l-0.3,0.9H45l1.5-4.1h0.9l1.5,4.1H48L47.8,30H46.1z M47,27.6l-0.6,1.6h1.1L47,27.6z"/>
		<path d="M54.7,29.8c-0.2,0.3-0.3,0.6-0.7,0.9c-0.3,0.2-0.7,0.3-1.1,0.3c-0.3,0-0.5-0.1-0.8-0.2c-0.3-0.1-0.4-0.3-0.6-0.4
			c-0.2-0.2-0.3-0.4-0.4-0.7c-0.1-0.3-0.2-0.5-0.2-0.9c0-0.3,0.1-0.6,0.2-0.9c0.1-0.3,0.3-0.5,0.4-0.7c0.2-0.2,0.4-0.3,0.6-0.4
			c0.3-0.1,0.5-0.2,0.8-0.2c0.4,0,0.8,0.1,1.1,0.3c0.3,0.2,0.5,0.5,0.7,0.9L53.9,28c-0.1-0.2-0.3-0.3-0.4-0.4
			c-0.2-0.1-0.3-0.2-0.6-0.2c-0.2,0-0.3,0-0.5,0.1c-0.2,0.1-0.3,0.2-0.3,0.3s-0.2,0.3-0.3,0.4s-0.1,0.3-0.1,0.5c0,0.2,0,0.3,0.1,0.5
			c0.1,0.2,0.2,0.3,0.3,0.4c0.1,0.2,0.3,0.3,0.3,0.3c0.2,0.1,0.3,0.1,0.5,0.1c0.3,0,0.4-0.1,0.6-0.2c0.2-0.1,0.3-0.3,0.4-0.4
			L54.7,29.8z"/>
		<path d="M57,26.7c0.3,0,0.5,0.1,0.8,0.2c0.3,0.1,0.4,0.3,0.6,0.4c0.2,0.2,0.3,0.4,0.4,0.7c0.1,0.3,0.2,0.5,0.2,0.9
			c0,0.3-0.1,0.6-0.2,0.9c-0.1,0.3-0.3,0.5-0.4,0.7c-0.2,0.2-0.4,0.3-0.6,0.4C57.5,30.9,57.3,31,57,31s-0.6-0.1-0.8-0.2
			c-0.3-0.1-0.4-0.3-0.6-0.4c-0.2-0.2-0.3-0.4-0.4-0.7c-0.1-0.3-0.2-0.5-0.2-0.9c0-0.3,0.1-0.6,0.2-0.9c0.1-0.3,0.3-0.5,0.4-0.7
			c0.2-0.2,0.4-0.3,0.6-0.4C56.4,26.7,56.7,26.7,57,26.7z M57,30.2c0.2,0,0.3,0,0.5-0.1c0.2-0.1,0.3-0.2,0.4-0.3
			c0.1-0.1,0.2-0.3,0.3-0.4s0.1-0.3,0.1-0.5c0-0.2,0-0.3-0.1-0.5c-0.1-0.2-0.2-0.3-0.3-0.4c-0.1-0.1-0.3-0.3-0.4-0.3
			c-0.2-0.1-0.3-0.1-0.5-0.1c-0.2,0-0.3,0-0.5,0.1c-0.2,0.1-0.3,0.2-0.4,0.3c-0.1,0.1-0.2,0.3-0.3,0.4c-0.1,0.2-0.1,0.3-0.1,0.5
			c0,0.2,0,0.3,0.1,0.5c0.1,0.2,0.2,0.3,0.3,0.4c0.1,0.1,0.3,0.3,0.4,0.3C56.6,30.1,56.8,30.2,57,30.2z"/>
		<path d="M63.5,30.8h-0.8v-3l-0.9,3H61l-0.9-3v3h-0.8v-4.1h1.1l0.9,3.1l0.9-3.1h1.2L63.5,30.8L63.5,30.8z"/>
		<path d="M67.2,28.1c0,0.2,0,0.3-0.1,0.5c-0.1,0.2-0.2,0.3-0.3,0.4c-0.1,0.1-0.3,0.2-0.4,0.3c-0.2,0.1-0.3,0.1-0.5,0.1H65v1.5h-0.8
			v-4.1h1.7c0.2,0,0.4,0,0.6,0.1c0.2,0.1,0.3,0.2,0.4,0.3c0.1,0.1,0.2,0.3,0.3,0.4C67.2,27.7,67.2,27.9,67.2,28.1z M64.9,27.5v1.2
			h0.9c0.2,0,0.3-0.1,0.4-0.2c0.1-0.1,0.2-0.3,0.2-0.4s-0.1-0.3-0.2-0.4c-0.1-0.1-0.3-0.2-0.4-0.2H64.9z"/>
		<path d="M70.8,29.3c0,0.3,0,0.5-0.1,0.7c-0.1,0.2-0.2,0.4-0.3,0.5c-0.2,0.2-0.3,0.3-0.5,0.3c-0.2,0.1-0.4,0.1-0.7,0.1
			s-0.5,0-0.7-0.1c-0.2-0.1-0.3-0.2-0.5-0.3c-0.2-0.2-0.3-0.3-0.3-0.5c-0.1-0.2-0.1-0.4-0.1-0.7v-2.5h0.8v2.5c0,0.6,0.3,0.9,0.8,0.9
			s0.8-0.3,0.8-0.9v-2.5h0.8v2.5H70.8z"/>
		<path d="M73,27.5v3.4h-0.8v-3.4h-1.1v-0.7h3v0.7H73z"/>
		<path d="M75.2,30L75,30.9h-0.9l1.5-4.1h0.9l1.5,4.1h-0.9L76.9,30H75.2z M76,27.6l-0.6,1.7h1.1L76,27.6z"/>
		<path d="M80.8,31.7c0,0.1,0,0.2-0.1,0.3c0,0.1-0.1,0.1-0.2,0.2c-0.1,0.1-0.2,0.1-0.3,0.1c-0.1,0-0.2,0-0.3,0c-0.2,0-0.3,0-0.3-0.1
			c-0.1-0.1-0.2-0.1-0.3-0.2l0.1-0.2c0.1,0.1,0.2,0.1,0.3,0.1c0.1,0,0.2,0,0.3,0c0.1,0,0.1,0,0.2-0.1c0,0,0.1-0.1,0.1-0.2
			c0-0.1,0-0.1-0.1-0.1l-0.1-0.1c-0.1,0-0.1,0-0.2,0c-0.1,0-0.1,0-0.2,0l-0.3-0.2l0.2-0.4c-0.3,0-0.5-0.1-0.7-0.3
			c-0.3-0.1-0.4-0.3-0.6-0.4c-0.2-0.2-0.3-0.4-0.3-0.7S78,28.9,78,28.7c0-0.3,0.1-0.6,0.2-0.9s0.3-0.5,0.4-0.7
			c0.2-0.2,0.4-0.3,0.6-0.4c0.3-0.1,0.5-0.2,0.8-0.2c0.4,0,0.8,0.1,1.1,0.3c0.3,0.2,0.5,0.5,0.7,0.9L81,27.8
			c-0.1-0.2-0.3-0.3-0.4-0.4c-0.2-0.1-0.3-0.2-0.6-0.2c-0.2,0-0.3,0-0.5,0.1c-0.2,0.1-0.3,0.2-0.3,0.3c-0.1,0.2-0.2,0.3-0.3,0.4
			s-0.1,0.3-0.1,0.5c0,0.2,0,0.3,0.1,0.5c0.1,0.2,0.2,0.3,0.3,0.4c0.1,0.2,0.3,0.3,0.3,0.3C79.6,30,79.8,30,80,30
			c0.3,0,0.4-0.1,0.6-0.2c0.2-0.1,0.3-0.3,0.4-0.4l0.8,0.2c-0.2,0.3-0.3,0.6-0.6,0.8c-0.3,0.2-0.6,0.3-0.9,0.3l-0.2,0.3
			c0.1,0,0.2-0.1,0.3-0.1c0.1,0,0.2,0,0.3,0.1c0.1,0,0.2,0.1,0.2,0.2C80.8,31.4,80.8,31.5,80.8,31.7z"/>
		<path d="M83.1,30l-0.3,0.9H82l1.5-4.1h0.9l1.5,4.1H85L84.7,30H83.1z M85,25.7c0,0.1,0,0.2-0.1,0.3c0,0.1-0.1,0.2-0.1,0.3
			c0,0.1-0.1,0.1-0.2,0.2c-0.1,0-0.2,0.1-0.3,0.1s-0.2,0-0.3,0s-0.2-0.1-0.3-0.1s-0.2-0.1-0.2-0.1c-0.1,0-0.1,0-0.2,0
			c-0.2,0-0.3,0.1-0.3,0.3h-0.3c0-0.1,0-0.2,0.1-0.3c0-0.1,0.1-0.2,0.1-0.3c0.1-0.1,0.1-0.1,0.2-0.2c0.1,0,0.2-0.1,0.3-0.1
			c0.1,0,0.2,0,0.3,0s0.2,0.1,0.2,0.1c0.1,0,0.2,0.1,0.2,0.1c0.1,0,0.1,0,0.2,0c0.1,0,0.1,0,0.2-0.1c0,0,0.1-0.1,0.1-0.2
			C84.5,25.7,85,25.7,85,25.7z M83.9,27.6l-0.6,1.7h1.1L83.9,27.6z"/>
		<path d="M88,26.7c0.3,0,0.5,0.1,0.8,0.2c0.3,0.1,0.4,0.3,0.6,0.4s0.3,0.4,0.4,0.7c0.1,0.3,0.2,0.5,0.2,0.9c0,0.3-0.1,0.6-0.2,0.9
			c-0.1,0.3-0.3,0.5-0.4,0.7s-0.4,0.3-0.6,0.4C88.5,30.9,88.2,31,88,31s-0.6-0.1-0.8-0.2c-0.3-0.1-0.4-0.3-0.6-0.4
			c-0.2-0.2-0.3-0.4-0.4-0.7c-0.1-0.3-0.2-0.5-0.2-0.9c0-0.3,0.1-0.6,0.2-0.9c0.1-0.3,0.3-0.5,0.4-0.7c0.2-0.2,0.4-0.3,0.6-0.4
			C87.5,26.7,87.7,26.7,88,26.7z M88,30.2c0.2,0,0.3,0,0.5-0.1c0.2-0.1,0.3-0.2,0.4-0.3c0.1-0.1,0.2-0.3,0.3-0.4
			c0.1-0.2,0.1-0.3,0.1-0.5c0-0.2,0-0.3-0.1-0.5c-0.1-0.2-0.2-0.3-0.3-0.4c-0.1-0.1-0.3-0.3-0.4-0.3c-0.2-0.1-0.3-0.1-0.5-0.1
			s-0.3,0-0.5,0.1c-0.2,0.1-0.3,0.2-0.4,0.3c-0.1,0.1-0.2,0.3-0.3,0.4c-0.1,0.2-0.1,0.3-0.1,0.5c0,0.2,0,0.3,0.1,0.5
			c0.1,0.2,0.2,0.3,0.3,0.4c0.1,0.1,0.3,0.3,0.4,0.3C87.7,30.1,87.8,30.2,88,30.2z"/>
	</g>
</g>
</svg>
