<?xml version="1.0" encoding="utf-8"?>
<!-- Generator: Adobe Illustrator 19.2.1, SVG Export Plug-In . SVG Version: 6.00 Build 0)  -->
<svg version="1.1" id="Camada_1" xmlns="http://www.w3.org/2000/svg" xmlns:xlink="http://www.w3.org/1999/xlink" x="0px" y="0px"
	 viewBox="0 0 107.2 32.1" style="enable-background:new 0 0 107.2 32.1;" xml:space="preserve">
<style type="text/css">
	.st0{fill:#18376A;}
	.st1{fill:#787878;}
	.st2{fill:#189AC7;}
</style>
<title>logo_lab</title>
<g>
	<path class="st0" d="M72.6,10.6c1.7-2.2,2.9-4.5,4.7-6.2C78.8,3,80.5,2,82.7,2.3c2,0.2,3.4,1.9,3.3,3.9c-0.2,1.9-1.1,3.3-3.2,3.5
		c-1.3,0.2-2.6-0.5-3.1-1.7c-0.9-1.8-1.6-1.3-2.5,0c-1,1.6-2.1,3.2-3.1,4.7c-0.4,0.6-0.6,1.3-0.3,2c0.9,2.6,1.8,5.3,2.8,8
		s2.2,2.8,4.1,0.7c0.7-0.8,1.3-1.7,1.9-2.7c0.5-0.8,1-0.4,1.6-0.1c0.4,0.1,0.7,0.6,0.5,1c0,0.1-0.1,0.2-0.2,0.3
		c-1.8,3.1-4,5.8-7.7,6.9c-2.8,0.8-4.8,0-6-2.7c-0.7-1.5-1.2-3-1.9-4.6c-1.4,1.8-2.8,3.7-4.3,5.3c-1.8,2-4.1,2.8-6.8,1.8
		c-1.7-0.6-2.7-2.2-2.5-4c0-1.5,1.1-2.9,2.6-3.2c1.9-0.5,3.2,0.4,3.9,2.2c0.7,1.7,1.6,1.3,2.5,0.2c1.1-1.5,2.1-3.1,3.1-4.7
		c0.4-0.5,0.5-1.2,0.2-1.8c-1-2.9-2-5.7-3-8.6C64.4,8,64.2,7.1,63.3,7c-0.9-0.1-1.4,0.7-1.8,1.3s-0.7,1.2-1.1,1.8
		c-0.2,0.4-0.2,1.2-1.1,0.8c-0.6-0.3-1.3-0.7-0.9-1.6c1.2-3,2.8-5.6,6.1-6.8c2.7-0.9,5,0.2,6.2,3.1C71.4,7.2,71.9,8.8,72.6,10.6z"/>
	<path class="st1" d="M52.2,24.6V31H22.2v-30h29.9v7h1.1V0H21.1v32.1h32.1v-7.5L52.2,24.6L52.2,24.6z"/>
	<path d="M34.6,8.1l0.7-1.9H36l0.3,7.8h-0.7c-0.3-1.7-0.9-3.3-1.8-4.8c-0.7-1.2-1.9-1.9-3.2-1.9c-1.4,0-2.7,0.9-3.3,2.2
		c-0.8,1.4-1.3,3.9-1.3,7.3c0,2.9,0.5,5.1,1.4,6.6c0.7,1.2,2,2,3.5,1.9c1.3,0,2.5-0.5,3.3-1.5c1-1.3,1.6-2.9,1.7-4.5h0.8
		c-0.1,1.9-0.8,3.8-1.9,5.3c-1,1.2-2.5,1.9-4.1,1.9c-1.3,0-2.6-0.4-3.7-1.2c-1.2-0.9-2.1-2.1-2.7-3.5c-0.7-1.6-1-3.3-1-5
		c0-1.9,0.3-3.7,1-5.4c0.5-1.5,1.4-2.8,2.6-3.8c1-0.8,2.2-1.3,3.5-1.3c0.7,0,1.4,0.1,2,0.4C33.3,7,34,7.5,34.6,8.1z"/>
	<path d="M48,8.1l1-1.7h0.8l0.1,7h-0.7c-0.3-1.7-0.9-3.3-2-4.7c-0.7-0.9-1.8-1.5-3-1.5c-0.9,0-1.8,0.4-2.3,1
		c-0.6,0.7-0.9,1.6-0.9,2.5c0,0.5,0.1,1.1,0.3,1.6c0.2,0.5,0.6,0.9,1,1.2c0.8,0.4,1.7,0.7,2.6,0.9c1.3,0.3,2.6,0.8,3.7,1.4
		c0.7,0.4,1.2,1.1,1.6,1.8c0.4,0.8,0.5,1.7,0.5,2.5c0.1,1.6-0.5,3.1-1.4,4.3c-0.9,1.1-2.3,1.7-3.7,1.7c-1.6,0-3.2-0.7-4.3-1.9
		L40,26.1h-0.8v-7.5H40c0.2,1.8,0.9,3.5,2,4.9c0.9,1.1,2.2,1.8,3.5,1.8c1,0,1.9-0.4,2.6-1.1c0.7-0.8,1-1.8,1-2.8
		c0-0.6-0.1-1.1-0.4-1.6c-0.3-0.5-0.7-0.9-1.2-1.2c-1-0.5-2.1-0.9-3.2-1.1c-1.3-0.3-2.5-0.9-3.6-1.7c-0.9-1-1.4-2.4-1.3-3.8
		c-0.1-1.5,0.4-3,1.3-4.2c0.8-1,2.1-1.6,3.4-1.6c0.7,0,1.3,0.1,1.9,0.4C46.8,7.1,47.4,7.5,48,8.1z"/>
	<path class="st2" d="M52.2,21.3v-4.8h-4.7v-0.8h4.7v-4.8h0.8v4.8h4.7v0.8h-4.7v4.8H52.2z"/>
</g>
</svg>
