<?xml version="1.0" encoding="utf-8"?>
<!-- Generator: Adobe Illustrator 19.2.1, SVG Export Plug-In . SVG Version: 6.00 Build 0)  -->
<svg version="1.1" id="Camada_1" xmlns="http://www.w3.org/2000/svg" xmlns:xlink="http://www.w3.org/1999/xlink" x="0px" y="0px"
	 viewBox="0 0 107.2 32" style="enable-background:new 0 0 107.2 32;" xml:space="preserve">
<style type="text/css">
	.st0{fill:#C70019;}
	.st1{fill:#1A171B;}
</style>
<title>ufmg</title>
<g>
	<path class="st0" d="M55.5,10.3c0.7-0.8,1.3-1.6,2-2.4c1.8-2.1,3.8-4,6.1-5.6c0.9-0.7,1.9-1.1,3-1.4C67,0.8,67.5,0.9,68,1
		c0.6,0.2,0.9,0.7,0.9,1.3c0,0.7-0.2,1.5-0.5,2.2l-1.9,5.7l-0.1,0.3c0.1,0,0.2-0.1,0.2-0.2c2-2.6,4.3-4.9,6.9-7
		c1.1-0.9,2.4-1.7,3.8-2.2c0.5-0.2,1-0.2,1.5-0.2c0.8,0,1.4,0.5,1.5,1.3c0,0.1,0,0.1,0,0.2c0,0.6-0.1,1.3-0.3,1.9
		c-1.2,3.6-2.4,7.1-3.6,10.7c-0.1,0.2-0.2,0.5-0.2,0.8c-0.1,0.3,0.1,0.6,0.4,0.7c0.1,0,0.3,0,0.4,0c0.3-0.1,0.5-0.2,0.7-0.4
		c0.9-0.6,1.7-1.2,2.5-2c0.1-0.1,0.2-0.2,0.3-0.2c0.1-0.1,0.3-0.1,0.5,0c0.1,0.1,0.2,0.3,0.1,0.4c0,0.1-0.1,0.1-0.1,0.2
		c-1.1,1.3-2.3,2.5-3.5,3.6c-0.9,0.8-2,1.2-3.1,1.4H74c-0.7,0.2-1.5-0.3-1.7-1c-0.1-0.3,0-0.6,0.1-0.8c0.3-1.2,0.7-2.4,1.2-3.5
		c1-2.7,1.9-5.4,2.8-8.1c0.1-0.3,0.2-0.6,0.2-0.9c0-0.5-0.3-0.9-0.8-1c0,0-0.1,0-0.1,0c-0.5,0-0.9,0.2-1.3,0.4
		c-0.8,0.5-1.6,1-2.3,1.7c-2.8,2.4-5.1,5.4-6.7,8.8c-0.6,1.2-1,2.5-1.6,3.8c-0.1,0.4-0.4,0.6-0.8,0.7c-0.5,0.1-1,0.1-1.5-0.1
		c-0.3,0-0.5-0.3-0.5-0.7c0-0.1,0-0.1,0.1-0.2c1.2-3.7,2.5-7.5,3.7-11.2c0.2-0.6,0.4-1.3,0.4-2c0-0.1,0-0.3,0-0.4
		c0-0.4-0.3-0.8-0.7-0.8c-0.1,0-0.1,0-0.2,0c-0.9,0.1-1.8,0.5-2.5,1.1c-1.2,0.9-2.2,1.9-3.2,3.1c-2.7,2.9-4.7,6.4-5.8,10.2
		c-0.1,0.6-0.6,1-1.2,1c-0.5,0.1-0.9,0-1.4-0.1c-0.3-0.1-0.4-0.3-0.4-0.6c0-0.1,0-0.1,0.1-0.2L54,6.1c0.1-0.4,0.2-0.8,0.2-1.2
		c0.1-0.4-0.2-0.7-0.5-0.8c-0.1,0-0.2,0-0.3,0c-0.5,0.1-1,0.3-1.4,0.7c-0.6,0.5-1.2,1.1-1.7,1.7c-0.1,0.1-0.2,0.2-0.3,0.2
		c-0.2,0.1-0.4,0.1-0.6,0c-0.1-0.1-0.2-0.3-0.1-0.5c0-0.1,0.1-0.2,0.1-0.2c1.1-1.5,2.4-2.8,3.9-3.9c0.8-0.7,1.9-1.1,2.9-1.2
		C57,0.8,57.7,1.3,57.8,2c0,0.2,0,0.4,0,0.5c-0.1,0.8-0.4,1.6-0.7,2.4c-0.6,1.7-1.2,3.5-1.8,5.2L55.5,10.3z"/>
	<path class="st0" d="M64.2,31.5H50.5c-0.3,0-0.4,0-0.4-0.3c0-2,0-4.1,0-6.1c0-0.2,0-0.3,0.3-0.3H78c0.3,0,0.3,0.1,0.3,0.3
		c0,2,0,4.1,0,6.1c0,0.3-0.1,0.4-0.4,0.4L64.2,31.5L64.2,31.5z"/>
	<path class="st1" d="M104.2,11.5h2.7c0.2,0,0.3,0,0.3,0.3c0,0.2,0,0.4,0,0.5c-0.1,0.1-0.3,0.2-0.5,0.1c-0.5,0.1-0.9,0.6-0.8,1.1
		c0,1.2,0,2.3,0,3.5c0,0.5,0,0.9,0,1.4c0,0.1-0.1,0.2-0.2,0.3c0,0,0,0,0,0c-2.5,0.8-5.2,1.1-7.8,1c-3.7-0.3-6.6-2-8.4-5.3
		C87.1,9.7,89,4,93.7,1.7c0.3-0.2,0.6-0.3,0.9-0.4c2-0.7,4.1-1,6.2-0.7c1.7,0.2,3.3,0.5,5,0.8c0.1,0,0.2,0.1,0.2,0.2c0,0,0,0,0,0
		c0.1,1,0.1,2,0.2,3c0,0.2,0,0.2-0.2,0.2H106c-0.6,0.2-1.2-0.2-1.4-0.7c-0.8-1.5-2.3-2.4-4-2.4c-1.2-0.1-2.4,0-3.5,0.3
		c-1.9,0.6-3.5,2-4.2,3.8c-1.1,2.7-1.1,5.7,0.1,8.4c1.7,3.5,5.8,5.2,9.5,3.8c0.1,0,0.2-0.2,0.2-0.3c0-1,0-2.1,0-3.1
		c0-0.2,0-0.5-0.1-0.7c0-0.7-0.5-1.3-1.2-1.4c-0.1,0-0.2-0.1-0.2-0.2c0,0,0,0,0-0.1c0-0.7,0-0.7,0.7-0.7L104.2,11.5L104.2,11.5z"/>
	<path class="st1" d="M1.6,8.4c0-1.7,0-3.5,0-5.2c0.1-0.7-0.4-1.4-1-1.5c-0.1,0-0.1,0-0.2,0C0.2,1.7,0,1.6,0,1.4c0,0,0-0.1,0-0.1
		c0-0.5,0-0.5,0.5-0.5H6c0.3,0,0.4,0,0.3,0.3c0,0.5,0,0.5-0.5,0.7c-0.6,0.1-1,0.6-1,1.2c0,0,0,0,0,0c0,3.4,0,6.8,0,10.2
		c0,0.5,0.1,1.1,0.2,1.6c0.5,1.7,1.9,2.9,3.7,3.1c0.9,0.1,1.8,0.1,2.7-0.1c1.7-0.3,3-1.6,3.3-3.2c0.2-1,0.4-2,0.4-3
		c0-2.5,0.1-5.1,0-7.6c0-0.4-0.1-0.7-0.2-1c-0.1-0.7-0.7-1.1-1.3-1.2c-0.3,0-0.4-0.1-0.4-0.4c0-0.1,0-0.1,0-0.2c0-0.3,0-0.3,0.3-0.3
		c1.6,0,3.1,0,4.7,0c0.3,0,0.3,0.1,0.3,0.3c0,0.5,0,0.5-0.5,0.7c-0.6,0.2-1.1,0.8-1.1,1.5c-0.1,0.3-0.1,0.7-0.1,1c0,2.5,0,4.9,0,7.4
		c0,1.1-0.1,2.3-0.5,3.4c-0.6,1.9-2.1,3.4-4.1,4c-2.4,0.7-5.1,0.6-7.4-0.3c-1.8-0.7-3.1-2.4-3.2-4.3c-0.1-0.4-0.1-0.9-0.1-1.3
		C1.6,11.5,1.6,10,1.6,8.4z"/>
	<path class="st1" d="M34.3,0.6c2.3,0.1,4.5,0,6.9,0c0.2,0,0.3,0.1,0.3,0.3c0,0.8,0,1.6,0.1,2.4c0,0.2,0,0.3-0.3,0.3
		c-0.4,0.1-0.8-0.1-1-0.5c-0.4-0.7-1.1-1.1-1.8-1.1c-0.5-0.1-1-0.1-1.6-0.1h-4.4c-0.2,0-0.3,0-0.3,0.2c0,2.2,0,4.4,0,6.6
		c0,0.2,0,0.2,0.2,0.2h4.2c0.2,0,0.4,0,0.7-0.1c0.5-0.1,0.9-0.4,1-0.9c0-0.2,0.2-0.3,0.3-0.3c0,0,0,0,0,0c0.5,0,0.5,0,0.5,0.5
		c0,1,0,2,0,2.9c0,0.2-0.1,0.3-0.3,0.3c-0.1,0-0.2,0-0.2,0c-0.2,0-0.3-0.1-0.4-0.2c0,0,0,0,0,0c-0.2-0.5-0.6-0.8-1.1-0.8
		c-0.4-0.1-0.7-0.1-1.1-0.1h-3.6c-0.2,0-0.3,0.1-0.3,0.3c0,2,0,3.9,0,5.9c0,0.2,0,0.4,0,0.6c0,0.9,0.8,1.7,1.8,1.6
		c0.5,0,0.5,0,0.5,0.5s0,0.4-0.4,0.4h-6.6c-0.2,0-0.3-0.1-0.3-0.3c0-0.6,0-0.6,0.6-0.7c0.7-0.1,1.3-0.7,1.2-1.5c0-0.8,0-1.6,0-2.4
		c0-3.7,0-7.3,0-11c0-0.1,0-0.2,0-0.3c0.1-0.8-0.5-1.5-1.3-1.5c0,0-0.1,0-0.1,0c-0.5-0.1-0.5-0.1-0.5-0.5s0-0.5,0.5-0.5L34.3,0.6
		L34.3,0.6z"/>
</g>
</svg>
