<?xml version="1.0" encoding="utf-8"?>
<!-- Generator: Adobe Illustrator 19.2.1, SVG Export Plug-In . SVG Version: 6.00 Build 0)  -->
<svg version="1.1" id="_x30_b9b7173-8d17-4004-875f-329f7c0a9383"
	 xmlns="http://www.w3.org/2000/svg" xmlns:xlink="http://www.w3.org/1999/xlink" x="0px" y="0px" viewBox="0 0 1055.5 773.8"
	 style="enable-background:new 0 0 1055.5 773.8;" xml:space="preserve">
<style type="text/css">
	.st0{opacity:0.1;fill:#F63854;enable-background:new    ;}
	.st1{opacity:0.7;}
	.st2{fill:url(#SVGID_1_);}
	.st3{opacity:0.1;}
	.st4{fill:url(#SVGID_2_);}
	.st5{fill:url(#SVGID_3_);}
	.st6{opacity:0.17;}
	.st7{fill:url(#SVGID_4_);}
	.st8{fill:url(#SVGID_5_);}
	.st9{fill:url(#SVGID_6_);}
	.st10{opacity:5.000000e-002;}
	.st11{fill:url(#SVGID_7_);}
	.st12{opacity:0.5;}
	.st13{fill:url(#SVGID_8_);}
	.st14{fill:url(#SVGID_9_);}
	.st15{fill:url(#SVGID_10_);}
	.st16{fill:url(#SVGID_11_);}
	.st17{fill:url(#SVGID_12_);}
	.st18{fill:url(#SVGID_13_);}
	.st19{fill:url(#SVGID_14_);}
	.st20{fill:url(#SVGID_15_);}
	.st21{fill:url(#SVGID_16_);}
	.st22{fill:url(#SVGID_17_);}
	.st23{fill:url(#SVGID_18_);}
	.st24{fill:url(#SVGID_19_);}
	.st25{fill:url(#SVGID_20_);}
	.st26{fill:url(#SVGID_21_);}
	.st27{fill:url(#SVGID_22_);}
	.st28{fill:url(#SVGID_23_);}
	.st29{fill:url(#SVGID_24_);}
	.st30{fill:url(#SVGID_25_);}
	.st31{fill:url(#SVGID_26_);}
	.st32{fill:url(#SVGID_27_);}
	.st33{fill:url(#SVGID_28_);}
	.st34{fill:url(#SVGID_29_);}
	.st35{fill:url(#SVGID_30_);}
	.st36{fill:url(#SVGID_31_);}
	.st37{fill:url(#SVGID_32_);}
	.st38{fill:url(#SVGID_33_);}
	.st39{fill:url(#SVGID_34_);}
	.st40{fill:url(#SVGID_35_);}
	.st41{fill:url(#SVGID_36_);}
	.st42{fill:url(#SVGID_37_);}
	.st43{fill:url(#SVGID_38_);}
	.st44{fill:url(#SVGID_39_);}
	.st45{fill:url(#SVGID_40_);}
	.st46{fill:url(#SVGID_41_);}
	.st47{fill:url(#SVGID_42_);}
	.st48{opacity:0.6;}
	.st49{fill:url(#SVGID_43_);}
	.st50{fill:url(#SVGID_44_);}
	.st51{fill:url(#SVGID_45_);}
	.st52{fill:url(#SVGID_46_);}
	.st53{opacity:7.000000e-002;}
	.st54{fill:url(#SVGID_47_);}
	.st55{fill:url(#SVGID_48_);}
	.st56{fill:url(#SVGID_49_);}
	.st57{fill:url(#SVGID_50_);}
	.st58{fill:url(#SVGID_51_);}
	.st59{fill:url(#SVGID_52_);}
	.st60{fill:url(#SVGID_53_);}
	.st61{fill:url(#SVGID_54_);}
	.st62{fill:url(#SVGID_55_);}
	.st63{fill:url(#SVGID_56_);}
	.st64{fill:url(#SVGID_57_);}
	.st65{fill:url(#SVGID_58_);}
	.st66{fill:url(#SVGID_59_);}
	.st67{fill:url(#SVGID_60_);}
	.st68{fill:url(#SVGID_61_);}
	.st69{fill:url(#SVGID_62_);}
	.st70{fill:url(#SVGID_63_);}
	.st71{fill:url(#SVGID_64_);}
	.st72{fill:url(#SVGID_65_);}
	.st73{fill:url(#SVGID_66_);}
	.st74{fill:url(#SVGID_67_);}
	.st75{fill:url(#SVGID_68_);}
	.st76{fill:url(#SVGID_69_);}
	.st77{fill:url(#SVGID_70_);}
	.st78{fill:url(#SVGID_71_);}
	.st79{fill:url(#SVGID_72_);}
	.st80{fill:url(#SVGID_73_);}
	.st81{fill:url(#SVGID_74_);}
	.st82{fill:url(#SVGID_75_);}
	.st83{fill:url(#SVGID_76_);}
	.st84{fill:url(#SVGID_77_);}
	.st85{fill:url(#SVGID_78_);}
	.st86{fill:url(#SVGID_79_);}
	.st87{fill:url(#SVGID_80_);}
	.st88{fill:#535461;}
	.st89{opacity:0.1;enable-background:new    ;}
	.st90{opacity:0.17;enable-background:new    ;}
	.st91{opacity:5.000000e-002;enable-background:new    ;}
	.st92{fill:url(#SVGID_81_);}
	.st93{fill:#F5F5F5;}
	.st94{fill:#F63854;}
	.st95{fill:#E0E0E0;}
	.st96{fill:url(#SVGID_82_);}
	.st97{fill:#FFFFFF;}
	.st98{fill:url(#SVGID_83_);}
	.st99{fill:url(#SVGID_84_);}
	.st100{opacity:0.6;fill:#3AD29F;enable-background:new    ;}
	.st101{opacity:7.000000e-002;enable-background:new    ;}
	.st102{fill:url(#SVGID_85_);}
	.st103{fill:url(#SVGID_86_);}
	.st104{opacity:0.6;fill:#F63854;enable-background:new    ;}
	.st105{fill:#BDBDBD;}
	.st106{fill:url(#SVGID_87_);}
	.st107{fill:#F2F2F2;}
	.st108{fill:url(#SVGID_88_);}
	.st109{fill:#69F0AE;}
	.st110{fill:#EFB7B9;}
	.st111{fill:#3F3D56;}
	.st112{fill:#4C4981;}
	.st113{fill:#444053;}
	.st114{fill:#F86D70;}
	.st115{fill:#925978;}
	.st116{fill:none;stroke:#565987;stroke-miterlimit:10;}
	.st117{fill:#FFD037;}
	.st118{fill:#A8A8A8;}
	.st119{opacity:0.2;enable-background:new    ;}
	.st120{fill:url(#SVGID_89_);}
	.st121{fill:#DB8B8B;}
	.st122{fill:#C17174;}
	.st123{fill:#474463;}
	.st124{fill:#FF748E;}
	.st125{fill:#464353;}
	.st126{fill:#FC6681;}
</style>
<title>server status</title>
<g>
	<path class="st0" d="M344.3,460.9c34.9-13.1,89.7-15.8,139.6-14.8c156.7,3.3,298.1,35.2,420.4,71.3c44.3,13.1,87.9,27.2,116.6,45.2
		c58.5,36.6,41.2,87.4-40.2,117.6c-27.7,10.3-61.3,18.2-95.7,25.1c-61.3,12.4-127.4,22.4-196.9,25.2c-49.6,2-99.8,0.4-149.1-2.4
		c-137.7-7.9-272.9-25.3-386.2-55.1c-49.7-13.1-96.5-29.3-117-50.5s-7.4-48,43.4-60.5c21-5.2,46.1-7.5,70.7-9.7
		c36.2-3.2,72.9-6.4,105.5-13c33.7-6.8,73.6-19.9,66.9-34.9C315.2,488.2,309.4,474,344.3,460.9z"/>
	<g>
		<g class="st1">
			
				<linearGradient id="SVGID_1_" gradientUnits="userSpaceOnUse" x1="500.5352" y1="355.6357" x2="687.2186" y2="355.6357" gradientTransform="matrix(1 0 0 -1 0 773.89)">
				<stop  offset="0" style="stop-color:#808080;stop-opacity:0.25"/>
				<stop  offset="0.54" style="stop-color:#808080;stop-opacity:0.12"/>
				<stop  offset="1" style="stop-color:#808080;stop-opacity:0.1"/>
			</linearGradient>
			<polygon class="st2" points="687.2,287.3 500.5,242.3 500.5,594.2 687.2,545.3 			"/>
			<g class="st3">
				
					<linearGradient id="SVGID_2_" gradientUnits="userSpaceOnUse" x1="500.5352" y1="355.6357" x2="687.2186" y2="355.6357" gradientTransform="matrix(1 0 0 -1 0 773.89)">
					<stop  offset="0" style="stop-color:#808080;stop-opacity:0.25"/>
					<stop  offset="0.54" style="stop-color:#808080;stop-opacity:0.12"/>
					<stop  offset="1" style="stop-color:#808080;stop-opacity:0.1"/>
				</linearGradient>
				<polygon class="st4" points="687.2,287.3 500.5,242.3 500.5,594.2 687.2,545.3 				"/>
			</g>
			
				<linearGradient id="SVGID_3_" gradientUnits="userSpaceOnUse" x1="313.844" y1="355.6357" x2="500.5352" y2="355.6357" gradientTransform="matrix(1 0 0 -1 0 773.89)">
				<stop  offset="0" style="stop-color:#808080;stop-opacity:0.25"/>
				<stop  offset="0.54" style="stop-color:#808080;stop-opacity:0.12"/>
				<stop  offset="1" style="stop-color:#808080;stop-opacity:0.1"/>
			</linearGradient>
			<polygon class="st5" points="313.8,287.3 500.5,242.3 500.5,594.2 313.8,546.3 			"/>
			<g class="st6">
				
					<linearGradient id="SVGID_4_" gradientUnits="userSpaceOnUse" x1="313.844" y1="355.6357" x2="500.5352" y2="355.6357" gradientTransform="matrix(1 0 0 -1 0 773.89)">
					<stop  offset="0" style="stop-color:#808080;stop-opacity:0.25"/>
					<stop  offset="0.54" style="stop-color:#808080;stop-opacity:0.12"/>
					<stop  offset="1" style="stop-color:#808080;stop-opacity:0.1"/>
				</linearGradient>
				<polygon class="st7" points="313.8,287.3 500.5,242.3 500.5,594.2 313.8,546.3 				"/>
			</g>
			
				<linearGradient id="SVGID_5_" gradientUnits="userSpaceOnUse" x1="500.5352" y1="549.1619" x2="783.9798" y2="549.1619" gradientTransform="matrix(1 0 0 -1 0 773.89)">
				<stop  offset="0" style="stop-color:#808080;stop-opacity:0.25"/>
				<stop  offset="0.54" style="stop-color:#808080;stop-opacity:0.12"/>
				<stop  offset="1" style="stop-color:#808080;stop-opacity:0.1"/>
			</linearGradient>
			<polygon class="st8" points="500.5,242.3 597.3,162.2 784,210.1 687.2,287.3 			"/>
			
				<linearGradient id="SVGID_6_" gradientUnits="userSpaceOnUse" x1="218.062" y1="549.1619" x2="500.5352" y2="549.1619" gradientTransform="matrix(1 0 0 -1 0 773.89)">
				<stop  offset="0" style="stop-color:#808080;stop-opacity:0.25"/>
				<stop  offset="0.54" style="stop-color:#808080;stop-opacity:0.12"/>
				<stop  offset="1" style="stop-color:#808080;stop-opacity:0.1"/>
			</linearGradient>
			<polygon class="st9" points="218.1,211 313.8,287.3 500.5,242.3 405.7,162.2 			"/>
			<g class="st10">
				
					<linearGradient id="SVGID_7_" gradientUnits="userSpaceOnUse" x1="218.062" y1="549.1619" x2="500.5352" y2="549.1619" gradientTransform="matrix(1 0 0 -1 0 773.89)">
					<stop  offset="0" style="stop-color:#808080;stop-opacity:0.25"/>
					<stop  offset="0.54" style="stop-color:#808080;stop-opacity:0.12"/>
					<stop  offset="1" style="stop-color:#808080;stop-opacity:0.1"/>
				</linearGradient>
				<polygon class="st11" points="218.1,211 313.8,287.3 500.5,242.3 405.7,162.2 				"/>
			</g>
			<g class="st12">
				
					<linearGradient id="SVGID_8_" gradientUnits="userSpaceOnUse" x1="431.3529" y1="444.39" x2="431.3529" y2="572.238" gradientTransform="matrix(1 0 0 -1 0 773.89)">
					<stop  offset="0" style="stop-color:#808080;stop-opacity:0.25"/>
					<stop  offset="0.54" style="stop-color:#808080;stop-opacity:0.12"/>
					<stop  offset="1" style="stop-color:#808080;stop-opacity:0.1"/>
				</linearGradient>
				<path class="st13" d="M365.5,201.7h131.6c1.9,0,3.5,1.6,3.5,3.5V326c0,1.9-1.6,3.5-3.5,3.5H365.5c-1.9,0-3.5-1.6-3.5-3.5V205.1
					C362.1,203.2,363.6,201.7,365.5,201.7z"/>
			</g>
			
				<linearGradient id="SVGID_9_" gradientUnits="userSpaceOnUse" x1="363.7589" y1="508.8768" x2="499.1319" y2="508.8768" gradientTransform="matrix(1 0 0 -1 0 773.89)">
				<stop  offset="0" style="stop-color:#808080;stop-opacity:0.25"/>
				<stop  offset="0.54" style="stop-color:#808080;stop-opacity:0.12"/>
				<stop  offset="1" style="stop-color:#808080;stop-opacity:0.1"/>
			</linearGradient>
			<path class="st14" d="M367.2,202.6h128.4c1.9,0,3.5,1.6,3.5,3.5v117.8c0,1.9-1.6,3.5-3.5,3.5H367.2c-1.9,0-3.5-1.6-3.5-3.5V206.1
				C363.8,204.2,365.3,202.6,367.2,202.6z"/>
			
				<linearGradient id="SVGID_10_" gradientUnits="userSpaceOnUse" x1="374.1906" y1="540.4302" x2="397.02" y2="540.4302" gradientTransform="matrix(1 0 0 -1 0 773.89)">
				<stop  offset="0" style="stop-color:#808080;stop-opacity:0.25"/>
				<stop  offset="0.54" style="stop-color:#808080;stop-opacity:0.12"/>
				<stop  offset="1" style="stop-color:#808080;stop-opacity:0.1"/>
			</linearGradient>
			<path class="st15" d="M377.7,223.2h15.9c1.9,0,3.5,1.6,3.5,3.5v13.6c0,1.9-1.6,3.5-3.5,3.5h-15.9c-1.9,0-3.5-1.6-3.5-3.5v-13.6
				C374.2,224.7,375.7,223.2,377.7,223.2z"/>
			
				<linearGradient id="SVGID_11_" gradientUnits="userSpaceOnUse" x1="403.8665" y1="549.5628" x2="494.6216" y2="549.5628" gradientTransform="matrix(1 0 0 -1 0 773.89)">
				<stop  offset="0" style="stop-color:#808080;stop-opacity:0.25"/>
				<stop  offset="0.54" style="stop-color:#808080;stop-opacity:0.12"/>
				<stop  offset="1" style="stop-color:#808080;stop-opacity:0.1"/>
			</linearGradient>
			<path class="st16" d="M404.5,223.2H494c0.3,0,0.6,0.3,0.6,0.6v1c0,0.3-0.3,0.6-0.6,0.6h-89.5c-0.3,0-0.6-0.3-0.6-0.6v-1
				C403.9,223.5,404.1,223.2,404.5,223.2z"/>
			
				<linearGradient id="SVGID_12_" gradientUnits="userSpaceOnUse" x1="403.8665" y1="542.7162" x2="494.6216" y2="542.7162" gradientTransform="matrix(1 0 0 -1 0 773.89)">
				<stop  offset="0" style="stop-color:#808080;stop-opacity:0.25"/>
				<stop  offset="0.54" style="stop-color:#808080;stop-opacity:0.12"/>
				<stop  offset="1" style="stop-color:#808080;stop-opacity:0.1"/>
			</linearGradient>
			<path class="st17" d="M404.5,230H494c0.3,0,0.6,0.3,0.6,0.6v1c0,0.3-0.3,0.6-0.6,0.6h-89.5c-0.3,0-0.6-0.3-0.6-0.6v-1
				C403.9,230.3,404.1,230,404.5,230z"/>
			
				<linearGradient id="SVGID_13_" gradientUnits="userSpaceOnUse" x1="371.9084" y1="517.8513" x2="494.6216" y2="517.8513" gradientTransform="matrix(1 0 0 -1 0 773.89)">
				<stop  offset="0" style="stop-color:#808080;stop-opacity:0.25"/>
				<stop  offset="0.54" style="stop-color:#808080;stop-opacity:0.12"/>
				<stop  offset="1" style="stop-color:#808080;stop-opacity:0.1"/>
			</linearGradient>
			<path class="st18" d="M372.5,254.9H494c0.3,0,0.6,0.3,0.6,0.6v1c0,0.3-0.3,0.6-0.6,0.6H372.5c-0.3,0-0.6-0.3-0.6-0.6v-1
				C371.9,255.2,372.2,254.9,372.5,254.9z"/>
			
				<linearGradient id="SVGID_14_" gradientUnits="userSpaceOnUse" x1="371.9084" y1="511.0048" x2="494.6216" y2="511.0048" gradientTransform="matrix(1 0 0 -1 0 773.89)">
				<stop  offset="0" style="stop-color:#808080;stop-opacity:0.25"/>
				<stop  offset="0.54" style="stop-color:#808080;stop-opacity:0.12"/>
				<stop  offset="1" style="stop-color:#808080;stop-opacity:0.1"/>
			</linearGradient>
			<path class="st19" d="M372.5,261.7H494c0.3,0,0.6,0.3,0.6,0.6v1c0,0.3-0.3,0.6-0.6,0.6H372.5c-0.3,0-0.6-0.3-0.6-0.6v-1
				C371.9,262,372.2,261.7,372.5,261.7z"/>
			
				<linearGradient id="SVGID_15_" gradientUnits="userSpaceOnUse" x1="371.9084" y1="501.8761" x2="494.6216" y2="501.8761" gradientTransform="matrix(1 0 0 -1 0 773.89)">
				<stop  offset="0" style="stop-color:#808080;stop-opacity:0.25"/>
				<stop  offset="0.54" style="stop-color:#808080;stop-opacity:0.12"/>
				<stop  offset="1" style="stop-color:#808080;stop-opacity:0.1"/>
			</linearGradient>
			<path class="st20" d="M372.5,270.9H494c0.3,0,0.6,0.3,0.6,0.6v1c0,0.3-0.3,0.6-0.6,0.6H372.5c-0.3,0-0.6-0.3-0.6-0.6v-1
				C371.9,271.1,372.2,270.9,372.5,270.9z"/>
			
				<linearGradient id="SVGID_16_" gradientUnits="userSpaceOnUse" x1="371.9084" y1="495.0219" x2="442.6789" y2="495.0219" gradientTransform="matrix(1 0 0 -1 0 773.89)">
				<stop  offset="0" style="stop-color:#808080;stop-opacity:0.25"/>
				<stop  offset="0.54" style="stop-color:#808080;stop-opacity:0.12"/>
				<stop  offset="1" style="stop-color:#808080;stop-opacity:0.1"/>
			</linearGradient>
			<path class="st21" d="M372.5,277.7h69.5c0.3,0,0.6,0.3,0.6,0.6v1c0,0.3-0.3,0.6-0.6,0.6h-69.5c-0.3,0-0.6-0.3-0.6-0.6v-1
				C371.9,278,372.2,277.7,372.5,277.7z"/>
			
				<linearGradient id="SVGID_17_" gradientUnits="userSpaceOnUse" x1="371.9084" y1="485.9163" x2="494.6216" y2="485.9163" gradientTransform="matrix(1 0 0 -1 0 773.89)">
				<stop  offset="0" style="stop-color:#808080;stop-opacity:0.25"/>
				<stop  offset="0.54" style="stop-color:#808080;stop-opacity:0.12"/>
				<stop  offset="1" style="stop-color:#808080;stop-opacity:0.1"/>
			</linearGradient>
			<path class="st22" d="M372.5,286.8H494c0.3,0,0.6,0.3,0.6,0.6v1c0,0.3-0.3,0.6-0.6,0.6H372.5c-0.3,0-0.6-0.3-0.6-0.6v-1
				C371.9,287.1,372.2,286.8,372.5,286.8z"/>
			
				<linearGradient id="SVGID_18_" gradientUnits="userSpaceOnUse" x1="371.9084" y1="479.0698" x2="494.6216" y2="479.0698" gradientTransform="matrix(1 0 0 -1 0 773.89)">
				<stop  offset="0" style="stop-color:#808080;stop-opacity:0.25"/>
				<stop  offset="0.54" style="stop-color:#808080;stop-opacity:0.12"/>
				<stop  offset="1" style="stop-color:#808080;stop-opacity:0.1"/>
			</linearGradient>
			<path class="st23" d="M372.5,293.7H494c0.3,0,0.6,0.3,0.6,0.6v1c0,0.3-0.3,0.6-0.6,0.6H372.5c-0.3,0-0.6-0.3-0.6-0.6v-1
				C371.9,294,372.2,293.7,372.5,293.7z"/>
			
				<linearGradient id="SVGID_19_" gradientUnits="userSpaceOnUse" x1="371.9084" y1="469.9334" x2="494.6216" y2="469.9334" gradientTransform="matrix(1 0 0 -1 0 773.89)">
				<stop  offset="0" style="stop-color:#808080;stop-opacity:0.25"/>
				<stop  offset="0.54" style="stop-color:#808080;stop-opacity:0.12"/>
				<stop  offset="1" style="stop-color:#808080;stop-opacity:0.1"/>
			</linearGradient>
			<path class="st24" d="M372.5,302.8H494c0.3,0,0.6,0.3,0.6,0.6v1c0,0.3-0.3,0.6-0.6,0.6H372.5c-0.3,0-0.6-0.3-0.6-0.6v-1
				C371.9,303.1,372.2,302.8,372.5,302.8z"/>
			
				<linearGradient id="SVGID_20_" gradientUnits="userSpaceOnUse" x1="371.9084" y1="463.0869" x2="442.6789" y2="463.0869" gradientTransform="matrix(1 0 0 -1 0 773.89)">
				<stop  offset="0" style="stop-color:#808080;stop-opacity:0.25"/>
				<stop  offset="0.54" style="stop-color:#808080;stop-opacity:0.12"/>
				<stop  offset="1" style="stop-color:#808080;stop-opacity:0.1"/>
			</linearGradient>
			<path class="st25" d="M372.5,309.7h69.5c0.3,0,0.6,0.3,0.6,0.6v1c0,0.3-0.3,0.6-0.6,0.6h-69.5c-0.3,0-0.6-0.3-0.6-0.6v-1
				C371.9,309.9,372.2,309.7,372.5,309.7z"/>
			<g class="st12">
				
					<linearGradient id="SVGID_21_" gradientUnits="userSpaceOnUse" x1="452.2625" y1="414.8528" x2="452.2625" y2="542.7008" gradientTransform="matrix(1 0 0 -1 0 773.89)">
					<stop  offset="0" style="stop-color:#808080;stop-opacity:0.25"/>
					<stop  offset="0.54" style="stop-color:#808080;stop-opacity:0.12"/>
					<stop  offset="1" style="stop-color:#808080;stop-opacity:0.1"/>
				</linearGradient>
				<path class="st26" d="M386.4,231.2h131.6c1.9,0,3.5,1.6,3.5,3.5v120.9c0,1.9-1.6,3.5-3.5,3.5H386.4c-1.9,0-3.5-1.6-3.5-3.5
					V234.7C383,232.7,384.5,231.2,386.4,231.2z"/>
			</g>
			
				<linearGradient id="SVGID_22_" gradientUnits="userSpaceOnUse" x1="384.6685" y1="479.3319" x2="520.0416" y2="479.3319" gradientTransform="matrix(1 0 0 -1 0 773.89)">
				<stop  offset="0" style="stop-color:#808080;stop-opacity:0.25"/>
				<stop  offset="0.54" style="stop-color:#808080;stop-opacity:0.12"/>
				<stop  offset="1" style="stop-color:#808080;stop-opacity:0.1"/>
			</linearGradient>
			<path class="st27" d="M388.1,232.2h128.4c1.9,0,3.5,1.6,3.5,3.5v117.8c0,1.9-1.6,3.5-3.5,3.5H388.1c-1.9,0-3.5-1.6-3.5-3.5V235.7
				C384.7,233.7,386.2,232.2,388.1,232.2z"/>
			
				<linearGradient id="SVGID_23_" gradientUnits="userSpaceOnUse" x1="395.1002" y1="510.8853" x2="417.9297" y2="510.8853" gradientTransform="matrix(1 0 0 -1 0 773.89)">
				<stop  offset="0" style="stop-color:#808080;stop-opacity:0.25"/>
				<stop  offset="0.54" style="stop-color:#808080;stop-opacity:0.12"/>
				<stop  offset="1" style="stop-color:#808080;stop-opacity:0.1"/>
			</linearGradient>
			<path class="st28" d="M398.6,252.7h15.9c1.9,0,3.5,1.6,3.5,3.5v13.6c0,1.9-1.6,3.5-3.5,3.5h-15.9c-1.9,0-3.5-1.6-3.5-3.5v-13.6
				C395.1,254.3,396.7,252.7,398.6,252.7z"/>
			
				<linearGradient id="SVGID_24_" gradientUnits="userSpaceOnUse" x1="424.7839" y1="520.0179" x2="515.5389" y2="520.0179" gradientTransform="matrix(1 0 0 -1 0 773.89)">
				<stop  offset="0" style="stop-color:#808080;stop-opacity:0.25"/>
				<stop  offset="0.54" style="stop-color:#808080;stop-opacity:0.12"/>
				<stop  offset="1" style="stop-color:#808080;stop-opacity:0.1"/>
			</linearGradient>
			<path class="st29" d="M425.4,252.7h89.5c0.3,0,0.6,0.3,0.6,0.6v1c0,0.3-0.3,0.6-0.6,0.6h-89.5c-0.3,0-0.6-0.3-0.6-0.6v-1
				C424.8,253,425.1,252.7,425.4,252.7z"/>
			
				<linearGradient id="SVGID_25_" gradientUnits="userSpaceOnUse" x1="424.7839" y1="513.1713" x2="515.5389" y2="513.1713" gradientTransform="matrix(1 0 0 -1 0 773.89)">
				<stop  offset="0" style="stop-color:#808080;stop-opacity:0.25"/>
				<stop  offset="0.54" style="stop-color:#808080;stop-opacity:0.12"/>
				<stop  offset="1" style="stop-color:#808080;stop-opacity:0.1"/>
			</linearGradient>
			<path class="st30" d="M425.4,259.6h89.5c0.3,0,0.6,0.3,0.6,0.6v1c0,0.3-0.3,0.6-0.6,0.6h-89.5c-0.3,0-0.6-0.3-0.6-0.6v-1
				C424.8,259.9,425.1,259.6,425.4,259.6z"/>
			
				<linearGradient id="SVGID_26_" gradientUnits="userSpaceOnUse" x1="392.818" y1="488.3141" x2="515.5312" y2="488.3141" gradientTransform="matrix(1 0 0 -1 0 773.89)">
				<stop  offset="0" style="stop-color:#808080;stop-opacity:0.25"/>
				<stop  offset="0.54" style="stop-color:#808080;stop-opacity:0.12"/>
				<stop  offset="1" style="stop-color:#808080;stop-opacity:0.1"/>
			</linearGradient>
			<path class="st31" d="M393.4,284.4h121.5c0.3,0,0.6,0.3,0.6,0.6v1c0,0.3-0.3,0.6-0.6,0.6H393.4c-0.3,0-0.6-0.3-0.6-0.6v-1
				C392.8,284.7,393.1,284.4,393.4,284.4z"/>
			
				<linearGradient id="SVGID_27_" gradientUnits="userSpaceOnUse" x1="392.818" y1="481.4599" x2="515.5312" y2="481.4599" gradientTransform="matrix(1 0 0 -1 0 773.89)">
				<stop  offset="0" style="stop-color:#808080;stop-opacity:0.25"/>
				<stop  offset="0.54" style="stop-color:#808080;stop-opacity:0.12"/>
				<stop  offset="1" style="stop-color:#808080;stop-opacity:0.1"/>
			</linearGradient>
			<path class="st32" d="M393.4,291.3h121.5c0.3,0,0.6,0.3,0.6,0.6v1c0,0.3-0.3,0.6-0.6,0.6H393.4c-0.3,0-0.6-0.3-0.6-0.6v-1
				C392.8,291.6,393.1,291.3,393.4,291.3z"/>
			
				<linearGradient id="SVGID_28_" gradientUnits="userSpaceOnUse" x1="392.818" y1="472.3312" x2="515.5312" y2="472.3312" gradientTransform="matrix(1 0 0 -1 0 773.89)">
				<stop  offset="0" style="stop-color:#808080;stop-opacity:0.25"/>
				<stop  offset="0.54" style="stop-color:#808080;stop-opacity:0.12"/>
				<stop  offset="1" style="stop-color:#808080;stop-opacity:0.1"/>
			</linearGradient>
			<path class="st33" d="M393.4,300.4h121.5c0.3,0,0.6,0.3,0.6,0.6v1c0,0.3-0.3,0.6-0.6,0.6H393.4c-0.3,0-0.6-0.3-0.6-0.6v-1
				C392.8,300.7,393.1,300.4,393.4,300.4z"/>
			
				<linearGradient id="SVGID_29_" gradientUnits="userSpaceOnUse" x1="392.818" y1="465.4847" x2="463.5886" y2="465.4847" gradientTransform="matrix(1 0 0 -1 0 773.89)">
				<stop  offset="0" style="stop-color:#808080;stop-opacity:0.25"/>
				<stop  offset="0.54" style="stop-color:#808080;stop-opacity:0.12"/>
				<stop  offset="1" style="stop-color:#808080;stop-opacity:0.1"/>
			</linearGradient>
			<path class="st34" d="M393.4,307.3H463c0.3,0,0.6,0.3,0.6,0.6v1c0,0.3-0.3,0.6-0.6,0.6h-69.5c-0.3,0-0.6-0.3-0.6-0.6v-1
				C392.8,307.5,393.1,307.3,393.4,307.3z"/>
			
				<linearGradient id="SVGID_30_" gradientUnits="userSpaceOnUse" x1="392.818" y1="456.3714" x2="515.5312" y2="456.3714" gradientTransform="matrix(1 0 0 -1 0 773.89)">
				<stop  offset="0" style="stop-color:#808080;stop-opacity:0.25"/>
				<stop  offset="0.54" style="stop-color:#808080;stop-opacity:0.12"/>
				<stop  offset="1" style="stop-color:#808080;stop-opacity:0.1"/>
			</linearGradient>
			<path class="st35" d="M393.4,316.4h121.5c0.3,0,0.6,0.3,0.6,0.6v1c0,0.3-0.3,0.6-0.6,0.6H393.4c-0.3,0-0.6-0.3-0.6-0.6v-1
				C392.8,316.7,393.1,316.4,393.4,316.4z"/>
			
				<linearGradient id="SVGID_31_" gradientUnits="userSpaceOnUse" x1="392.818" y1="449.5249" x2="515.5312" y2="449.5249" gradientTransform="matrix(1 0 0 -1 0 773.89)">
				<stop  offset="0" style="stop-color:#808080;stop-opacity:0.25"/>
				<stop  offset="0.54" style="stop-color:#808080;stop-opacity:0.12"/>
				<stop  offset="1" style="stop-color:#808080;stop-opacity:0.1"/>
			</linearGradient>
			<path class="st36" d="M393.4,323.2h121.5c0.3,0,0.6,0.3,0.6,0.6v1c0,0.3-0.3,0.6-0.6,0.6H393.4c-0.3,0-0.6-0.3-0.6-0.6v-1
				C392.8,323.5,393.1,323.2,393.4,323.2z"/>
			
				<linearGradient id="SVGID_32_" gradientUnits="userSpaceOnUse" x1="392.818" y1="440.3885" x2="515.5312" y2="440.3885" gradientTransform="matrix(1 0 0 -1 0 773.89)">
				<stop  offset="0" style="stop-color:#808080;stop-opacity:0.25"/>
				<stop  offset="0.54" style="stop-color:#808080;stop-opacity:0.12"/>
				<stop  offset="1" style="stop-color:#808080;stop-opacity:0.1"/>
			</linearGradient>
			<path class="st37" d="M393.4,332.4h121.5c0.3,0,0.6,0.3,0.6,0.6v1c0,0.3-0.3,0.6-0.6,0.6H393.4c-0.3,0-0.6-0.3-0.6-0.6v-1
				C392.8,332.6,393.1,332.4,393.4,332.4z"/>
			
				<linearGradient id="SVGID_33_" gradientUnits="userSpaceOnUse" x1="392.818" y1="433.5419" x2="463.5886" y2="433.5419" gradientTransform="matrix(1 0 0 -1 0 773.89)">
				<stop  offset="0" style="stop-color:#808080;stop-opacity:0.25"/>
				<stop  offset="0.54" style="stop-color:#808080;stop-opacity:0.12"/>
				<stop  offset="1" style="stop-color:#808080;stop-opacity:0.1"/>
			</linearGradient>
			<path class="st38" d="M393.4,339.2H463c0.3,0,0.6,0.3,0.6,0.6v1c0,0.3-0.3,0.6-0.6,0.6h-69.5c-0.3,0-0.6-0.3-0.6-0.6v-1
				C392.8,339.5,393.1,339.2,393.4,339.2z"/>
			<g class="st12">
				
					<linearGradient id="SVGID_34_" gradientUnits="userSpaceOnUse" x1="523.5882" y1="385.092" x2="523.5882" y2="526.1551" gradientTransform="matrix(1 0 0 -1 0 773.89)">
					<stop  offset="0" style="stop-color:#808080;stop-opacity:0.25"/>
					<stop  offset="0.54" style="stop-color:#808080;stop-opacity:0.12"/>
					<stop  offset="1" style="stop-color:#808080;stop-opacity:0.1"/>
				</linearGradient>
				<rect x="463.6" y="247.7" class="st39" width="120.1" height="141.1"/>
			</g>
			
				<linearGradient id="SVGID_35_" gradientUnits="userSpaceOnUse" x1="467.2509" y1="456.0437" x2="581.0667" y2="456.0437" gradientTransform="matrix(1 0 0 -1 0 773.89)">
				<stop  offset="0" style="stop-color:#808080;stop-opacity:0.25"/>
				<stop  offset="0.54" style="stop-color:#808080;stop-opacity:0.12"/>
				<stop  offset="1" style="stop-color:#808080;stop-opacity:0.1"/>
			</linearGradient>
			<rect x="467.3" y="250" class="st40" width="113.8" height="135.7"/>
			<g class="st12">
				
					<linearGradient id="SVGID_36_" gradientUnits="userSpaceOnUse" x1="757.1588" y1="417.8194" x2="757.1588" y2="437.9657" gradientTransform="matrix(1 0 0 -1 -233 706.14)">
					<stop  offset="0" style="stop-color:#808080;stop-opacity:0.25"/>
					<stop  offset="0.54" style="stop-color:#808080;stop-opacity:0.12"/>
					<stop  offset="1" style="stop-color:#808080;stop-opacity:0.1"/>
				</linearGradient>
				<path class="st41" d="M530.4,271.6v-3.4H518v3.4h-8.7v16.7H539v-16.7H530.4z M519.5,269.4h9.3v2.2h-9.3V269.4z"/>
			</g>
			
				<linearGradient id="SVGID_37_" gradientUnits="userSpaceOnUse" x1="510.5351" y1="494.0812" x2="537.7824" y2="494.0812" gradientTransform="matrix(1 0 0 -1 0 773.89)">
				<stop  offset="0" style="stop-color:#808080;stop-opacity:0.25"/>
				<stop  offset="0.54" style="stop-color:#808080;stop-opacity:0.12"/>
				<stop  offset="1" style="stop-color:#808080;stop-opacity:0.1"/>
			</linearGradient>
			<rect x="510.5" y="272.1" class="st42" width="27.2" height="15.3"/>
			
				<linearGradient id="SVGID_38_" gradientUnits="userSpaceOnUse" x1="518.4841" y1="502.8784" x2="529.8334" y2="502.8784" gradientTransform="matrix(1 0 0 -1 0 773.89)">
				<stop  offset="0" style="stop-color:#808080;stop-opacity:0.25"/>
				<stop  offset="0.54" style="stop-color:#808080;stop-opacity:0.12"/>
				<stop  offset="1" style="stop-color:#808080;stop-opacity:0.1"/>
			</linearGradient>
			<polygon class="st43" points="518.5,269 518.5,273 519.9,273 519.9,270.2 528.4,270.2 528.4,273 529.8,273 529.8,269 			"/>
			
				<linearGradient id="SVGID_39_" gradientUnits="userSpaceOnUse" x1="484.2824" y1="462.6551" x2="564.3204" y2="462.6551" gradientTransform="matrix(1 0 0 -1 0 773.89)">
				<stop  offset="0" style="stop-color:#808080;stop-opacity:0.25"/>
				<stop  offset="0.54" style="stop-color:#808080;stop-opacity:0.12"/>
				<stop  offset="1" style="stop-color:#808080;stop-opacity:0.1"/>
			</linearGradient>
			<rect x="484.3" y="309.5" class="st44" width="80" height="3.4"/>
			
				<linearGradient id="SVGID_40_" gradientUnits="userSpaceOnUse" x1="484.2824" y1="440.2343" x2="564.3204" y2="440.2343" gradientTransform="matrix(1 0 0 -1 0 773.89)">
				<stop  offset="0" style="stop-color:#808080;stop-opacity:0.25"/>
				<stop  offset="0.54" style="stop-color:#808080;stop-opacity:0.12"/>
				<stop  offset="1" style="stop-color:#808080;stop-opacity:0.1"/>
			</linearGradient>
			<rect x="484.3" y="332" class="st45" width="80" height="3.4"/>
			
				<linearGradient id="SVGID_41_" gradientUnits="userSpaceOnUse" x1="484.2824" y1="434.2744" x2="564.3204" y2="434.2744" gradientTransform="matrix(1 0 0 -1 0 773.89)">
				<stop  offset="0" style="stop-color:#808080;stop-opacity:0.25"/>
				<stop  offset="0.54" style="stop-color:#808080;stop-opacity:0.12"/>
				<stop  offset="1" style="stop-color:#808080;stop-opacity:0.1"/>
			</linearGradient>
			<rect x="484.3" y="337.9" class="st46" width="80" height="3.4"/>
			
				<linearGradient id="SVGID_42_" gradientUnits="userSpaceOnUse" x1="484.2824" y1="446.1941" x2="518.0601" y2="446.1941" gradientTransform="matrix(1 0 0 -1 0 773.89)">
				<stop  offset="0" style="stop-color:#808080;stop-opacity:0.25"/>
				<stop  offset="0.54" style="stop-color:#808080;stop-opacity:0.12"/>
				<stop  offset="1" style="stop-color:#808080;stop-opacity:0.1"/>
			</linearGradient>
			<rect x="484.3" y="326" class="st47" width="33.8" height="3.4"/>
			<g class="st48">
				
					<linearGradient id="SVGID_43_" gradientUnits="userSpaceOnUse" x1="539.0623" y1="446.1941" x2="564.3204" y2="446.1941" gradientTransform="matrix(1 0 0 -1 0 773.89)">
					<stop  offset="0" style="stop-color:#808080;stop-opacity:0.25"/>
					<stop  offset="0.54" style="stop-color:#808080;stop-opacity:0.12"/>
					<stop  offset="1" style="stop-color:#808080;stop-opacity:0.1"/>
				</linearGradient>
				<rect x="539.1" y="326" class="st49" width="25.3" height="3.4"/>
			</g>
			
				<linearGradient id="SVGID_44_" gradientUnits="userSpaceOnUse" x1="512.3778" y1="420.3654" x2="537.6359" y2="420.3654" gradientTransform="matrix(1 0 0 -1 0 773.89)">
				<stop  offset="0" style="stop-color:#808080;stop-opacity:0.25"/>
				<stop  offset="0.54" style="stop-color:#808080;stop-opacity:0.12"/>
				<stop  offset="1" style="stop-color:#808080;stop-opacity:0.1"/>
			</linearGradient>
			<rect x="512.4" y="351.8" class="st50" width="25.3" height="3.4"/>
			
				<linearGradient id="SVGID_45_" gradientUnits="userSpaceOnUse" x1="313.844" y1="333.157" x2="500.5352" y2="333.157" gradientTransform="matrix(1 0 0 -1 0 773.89)">
				<stop  offset="0" style="stop-color:#808080;stop-opacity:0.25"/>
				<stop  offset="0.54" style="stop-color:#808080;stop-opacity:0.12"/>
				<stop  offset="1" style="stop-color:#808080;stop-opacity:0.1"/>
			</linearGradient>
			<polygon class="st51" points="313.8,287.3 313.8,546.3 500.5,594.2 500.5,337.1 			"/>
			
				<linearGradient id="SVGID_46_" gradientUnits="userSpaceOnUse" x1="500.5352" y1="333.157" x2="687.2186" y2="333.157" gradientTransform="matrix(1 0 0 -1 0 773.89)">
				<stop  offset="0" style="stop-color:#808080;stop-opacity:0.25"/>
				<stop  offset="0.54" style="stop-color:#808080;stop-opacity:0.12"/>
				<stop  offset="1" style="stop-color:#808080;stop-opacity:0.1"/>
			</linearGradient>
			<polygon class="st52" points="687.2,545.3 500.5,594.2 500.5,337.1 687.2,287.3 			"/>
			<g class="st53">
				
					<linearGradient id="SVGID_47_" gradientUnits="userSpaceOnUse" x1="500.5352" y1="333.157" x2="687.2186" y2="333.157" gradientTransform="matrix(1 0 0 -1 0 773.89)">
					<stop  offset="0" style="stop-color:#808080;stop-opacity:0.25"/>
					<stop  offset="0.54" style="stop-color:#808080;stop-opacity:0.12"/>
					<stop  offset="1" style="stop-color:#808080;stop-opacity:0.1"/>
				</linearGradient>
				<polygon class="st54" points="687.2,545.3 500.5,594.2 500.5,337.1 687.2,287.3 				"/>
			</g>
			<g class="st53">
				
					<linearGradient id="SVGID_48_" gradientUnits="userSpaceOnUse" x1="612.9323" y1="282.3286" x2="687.2186" y2="282.3286" gradientTransform="matrix(1 0 0 -1 0 773.89)">
					<stop  offset="0" style="stop-color:#808080;stop-opacity:0.25"/>
					<stop  offset="0.54" style="stop-color:#808080;stop-opacity:0.12"/>
					<stop  offset="1" style="stop-color:#808080;stop-opacity:0.1"/>
				</linearGradient>
				<polygon class="st55" points="612.9,459.3 612.9,544.3 687.2,523.8 687.2,438.8 				"/>
			</g>
			
				<linearGradient id="SVGID_49_" gradientUnits="userSpaceOnUse" x1="617.0456" y1="455.3151" x2="617.0456" y2="508.2138" gradientTransform="matrix(1 0 0 -1 0 773.89)">
				<stop  offset="0" style="stop-color:#808080;stop-opacity:0.25"/>
				<stop  offset="0.54" style="stop-color:#808080;stop-opacity:0.12"/>
				<stop  offset="1" style="stop-color:#808080;stop-opacity:0.1"/>
			</linearGradient>
			<rect x="589.5" y="265.7" class="st56" width="55.1" height="52.9"/>
			
				<linearGradient id="SVGID_50_" gradientUnits="userSpaceOnUse" x1="590.3804" y1="481.6565" x2="643.7108" y2="481.6565" gradientTransform="matrix(1 0 0 -1 0 773.89)">
				<stop  offset="0" style="stop-color:#808080;stop-opacity:0.25"/>
				<stop  offset="0.54" style="stop-color:#808080;stop-opacity:0.12"/>
				<stop  offset="1" style="stop-color:#808080;stop-opacity:0.1"/>
			</linearGradient>
			<rect x="590.4" y="267" class="st57" width="53.3" height="50.5"/>
			<g class="st12">
				
					<linearGradient id="SVGID_51_" gradientUnits="userSpaceOnUse" x1="850.0456" y1="417.5726" x2="850.0456" y2="432.9002" gradientTransform="matrix(1 0 0 -1 -233 706.14)">
					<stop  offset="0" style="stop-color:#808080;stop-opacity:0.25"/>
					<stop  offset="0.54" style="stop-color:#808080;stop-opacity:0.12"/>
					<stop  offset="1" style="stop-color:#808080;stop-opacity:0.1"/>
				</linearGradient>
				<path class="st58" d="M621.8,275.8v-2.6h-9.4v2.6h-6.6v12.7h22.6v-12.8H621.8z M613.5,274.2h7.1v1.6h-7.1V274.2z"/>
			</g>
			<g class="st48">
				
					<linearGradient id="SVGID_52_" gradientUnits="userSpaceOnUse" x1="606.6794" y1="491.7991" x2="627.4041" y2="491.7991" gradientTransform="matrix(1 0 0 -1 0 773.89)">
					<stop  offset="0" style="stop-color:#808080;stop-opacity:0.25"/>
					<stop  offset="0.54" style="stop-color:#808080;stop-opacity:0.12"/>
					<stop  offset="1" style="stop-color:#808080;stop-opacity:0.1"/>
				</linearGradient>
				<rect x="606.7" y="276.3" class="st59" width="20.7" height="11.7"/>
			</g>
			<g class="st48">
				
					<linearGradient id="SVGID_53_" gradientUnits="userSpaceOnUse" x1="612.7241" y1="498.4953" x2="621.3671" y2="498.4953" gradientTransform="matrix(1 0 0 -1 0 773.89)">
					<stop  offset="0" style="stop-color:#808080;stop-opacity:0.25"/>
					<stop  offset="0.54" style="stop-color:#808080;stop-opacity:0.12"/>
					<stop  offset="1" style="stop-color:#808080;stop-opacity:0.1"/>
				</linearGradient>
				<polygon class="st60" points="612.7,273.9 612.7,276.9 613.8,276.9 613.8,274.8 620.3,274.8 620.3,276.9 621.4,276.9 
					621.4,273.9 				"/>
			</g>
			<g class="st48">
				
					<linearGradient id="SVGID_54_" gradientUnits="userSpaceOnUse" x1="607.8668" y1="475.608" x2="627.0803" y2="475.608" gradientTransform="matrix(1 0 0 -1 0 773.89)">
					<stop  offset="0" style="stop-color:#808080;stop-opacity:0.25"/>
					<stop  offset="0.54" style="stop-color:#808080;stop-opacity:0.12"/>
					<stop  offset="1" style="stop-color:#808080;stop-opacity:0.1"/>
				</linearGradient>
				<rect x="607.9" y="297" class="st61" width="19.2" height="2.6"/>
			</g>
			
				<linearGradient id="SVGID_55_" gradientUnits="userSpaceOnUse" x1="600.6348" y1="470.8586" x2="633.4565" y2="470.8586" gradientTransform="matrix(1 0 0 -1 0 773.89)">
				<stop  offset="0" style="stop-color:#808080;stop-opacity:0.25"/>
				<stop  offset="0.54" style="stop-color:#808080;stop-opacity:0.12"/>
				<stop  offset="1" style="stop-color:#808080;stop-opacity:0.1"/>
			</linearGradient>
			<rect x="600.6" y="301.7" class="st62" width="32.8" height="2.6"/>
			<g class="st12">
				
					<linearGradient id="SVGID_56_" gradientUnits="userSpaceOnUse" x1="494.6601" y1="611.3203" x2="494.6601" y2="669.9167" gradientTransform="matrix(1 0 0 -1 0 773.89)">
					<stop  offset="0" style="stop-color:#808080;stop-opacity:0.25"/>
					<stop  offset="0.54" style="stop-color:#808080;stop-opacity:0.12"/>
					<stop  offset="1" style="stop-color:#808080;stop-opacity:0.1"/>
				</linearGradient>
				<rect x="459" y="104" class="st63" width="71.3" height="58.6"/>
			</g>
			
				<linearGradient id="SVGID_57_" gradientUnits="userSpaceOnUse" x1="459.8261" y1="640.5491" x2="529.363" y2="640.5491" gradientTransform="matrix(1 0 0 -1 0 773.89)">
				<stop  offset="0" style="stop-color:#808080;stop-opacity:0.25"/>
				<stop  offset="0.54" style="stop-color:#808080;stop-opacity:0.12"/>
				<stop  offset="1" style="stop-color:#808080;stop-opacity:0.1"/>
			</linearGradient>
			<rect x="459.8" y="105.1" class="st64" width="69.5" height="56.5"/>
			
				<linearGradient id="SVGID_58_" gradientUnits="userSpaceOnUse" x1="459.8261" y1="662.5035" x2="529.363" y2="662.5035" gradientTransform="matrix(1 0 0 -1 0 773.89)">
				<stop  offset="0" style="stop-color:#808080;stop-opacity:0.25"/>
				<stop  offset="0.54" style="stop-color:#808080;stop-opacity:0.12"/>
				<stop  offset="1" style="stop-color:#808080;stop-opacity:0.1"/>
			</linearGradient>
			<rect x="459.8" y="105.1" class="st65" width="69.5" height="12.6"/>
			<g class="st3">
				
					<linearGradient id="SVGID_59_" gradientUnits="userSpaceOnUse" x1="459.8261" y1="662.5035" x2="529.363" y2="662.5035" gradientTransform="matrix(1 0 0 -1 0 773.89)">
					<stop  offset="0" style="stop-color:#808080;stop-opacity:0.25"/>
					<stop  offset="0.54" style="stop-color:#808080;stop-opacity:0.12"/>
					<stop  offset="1" style="stop-color:#808080;stop-opacity:0.1"/>
				</linearGradient>
				<rect x="459.8" y="105.1" class="st66" width="69.5" height="12.6"/>
			</g>
			
				<linearGradient id="SVGID_60_" gradientUnits="userSpaceOnUse" x1="465.3696" y1="647.9584" x2="523.8273" y2="647.9584" gradientTransform="matrix(1 0 0 -1 0 773.89)">
				<stop  offset="0" style="stop-color:#808080;stop-opacity:0.25"/>
				<stop  offset="0.54" style="stop-color:#808080;stop-opacity:0.12"/>
				<stop  offset="1" style="stop-color:#808080;stop-opacity:0.1"/>
			</linearGradient>
			<rect x="465.4" y="122.3" class="st67" width="58.5" height="7.3"/>
			
				<linearGradient id="SVGID_61_" gradientUnits="userSpaceOnUse" x1="465.3696" y1="637.4998" x2="508.037" y2="637.4998" gradientTransform="matrix(1 0 0 -1 0 773.89)">
				<stop  offset="0" style="stop-color:#808080;stop-opacity:0.25"/>
				<stop  offset="0.54" style="stop-color:#808080;stop-opacity:0.12"/>
				<stop  offset="1" style="stop-color:#808080;stop-opacity:0.1"/>
			</linearGradient>
			<rect x="465.4" y="135.1" class="st68" width="42.7" height="2.5"/>
			
				<linearGradient id="SVGID_62_" gradientUnits="userSpaceOnUse" x1="465.3696" y1="633.2053" x2="493.0718" y2="633.2053" gradientTransform="matrix(1 0 0 -1 0 773.89)">
				<stop  offset="0" style="stop-color:#808080;stop-opacity:0.25"/>
				<stop  offset="0.54" style="stop-color:#808080;stop-opacity:0.12"/>
				<stop  offset="1" style="stop-color:#808080;stop-opacity:0.1"/>
			</linearGradient>
			<rect x="465.4" y="139.4" class="st69" width="27.7" height="2.5"/>
			
				<linearGradient id="SVGID_63_" gradientUnits="userSpaceOnUse" x1="465.3696" y1="628.9108" x2="501.9384" y2="628.9108" gradientTransform="matrix(1 0 0 -1 0 773.89)">
				<stop  offset="0" style="stop-color:#808080;stop-opacity:0.25"/>
				<stop  offset="0.54" style="stop-color:#808080;stop-opacity:0.12"/>
				<stop  offset="1" style="stop-color:#808080;stop-opacity:0.1"/>
			</linearGradient>
			<rect x="465.4" y="143.7" class="st70" width="36.6" height="2.5"/>
			
				<linearGradient id="SVGID_64_" gradientUnits="userSpaceOnUse" x1="465.3696" y1="624.624" x2="508.037" y2="624.624" gradientTransform="matrix(1 0 0 -1 0 773.89)">
				<stop  offset="0" style="stop-color:#808080;stop-opacity:0.25"/>
				<stop  offset="0.54" style="stop-color:#808080;stop-opacity:0.12"/>
				<stop  offset="1" style="stop-color:#808080;stop-opacity:0.1"/>
			</linearGradient>
			<rect x="465.4" y="148" class="st71" width="42.7" height="2.5"/>
			
				<linearGradient id="SVGID_65_" gradientUnits="userSpaceOnUse" x1="465.3696" y1="620.3295" x2="479.6332" y2="620.3295" gradientTransform="matrix(1 0 0 -1 0 773.89)">
				<stop  offset="0" style="stop-color:#808080;stop-opacity:0.25"/>
				<stop  offset="0.54" style="stop-color:#808080;stop-opacity:0.12"/>
				<stop  offset="1" style="stop-color:#808080;stop-opacity:0.1"/>
			</linearGradient>
			<rect x="465.4" y="152.3" class="st72" width="14.3" height="2.5"/>
			<g class="st12">
				
					<linearGradient id="SVGID_66_" gradientUnits="userSpaceOnUse" x1="608.0827" y1="553.2944" x2="608.0827" y2="625.9154" gradientTransform="matrix(1 0 0 -1 0 773.89)">
					<stop  offset="0" style="stop-color:#808080;stop-opacity:0.25"/>
					<stop  offset="0.54" style="stop-color:#808080;stop-opacity:0.12"/>
					<stop  offset="1" style="stop-color:#808080;stop-opacity:0.1"/>
				</linearGradient>
				<rect x="563.9" y="148" class="st73" width="88.4" height="72.6"/>
			</g>
			
				<linearGradient id="SVGID_67_" gradientUnits="userSpaceOnUse" x1="564.9064" y1="589.5201" x2="651.097" y2="589.5201" gradientTransform="matrix(1 0 0 -1 0 773.89)">
				<stop  offset="0" style="stop-color:#808080;stop-opacity:0.25"/>
				<stop  offset="0.54" style="stop-color:#808080;stop-opacity:0.12"/>
				<stop  offset="1" style="stop-color:#808080;stop-opacity:0.1"/>
			</linearGradient>
			<rect x="564.9" y="149.3" class="st74" width="86.2" height="70"/>
			
				<linearGradient id="SVGID_68_" gradientUnits="userSpaceOnUse" x1="564.9064" y1="616.7327" x2="651.097" y2="616.7327" gradientTransform="matrix(1 0 0 -1 0 773.89)">
				<stop  offset="0" style="stop-color:#808080;stop-opacity:0.25"/>
				<stop  offset="0.54" style="stop-color:#808080;stop-opacity:0.12"/>
				<stop  offset="1" style="stop-color:#808080;stop-opacity:0.1"/>
			</linearGradient>
			<rect x="564.9" y="149.3" class="st75" width="86.2" height="15.6"/>
			
				<linearGradient id="SVGID_69_" gradientUnits="userSpaceOnUse" x1="571.7683" y1="598.7067" x2="644.2197" y2="598.7067" gradientTransform="matrix(1 0 0 -1 0 773.89)">
				<stop  offset="0" style="stop-color:#808080;stop-opacity:0.25"/>
				<stop  offset="0.54" style="stop-color:#808080;stop-opacity:0.12"/>
				<stop  offset="1" style="stop-color:#808080;stop-opacity:0.1"/>
			</linearGradient>
			<rect x="571.8" y="170.6" class="st76" width="72.5" height="9.1"/>
			
				<linearGradient id="SVGID_70_" gradientUnits="userSpaceOnUse" x1="571.7683" y1="585.7422" x2="624.6516" y2="585.7422" gradientTransform="matrix(1 0 0 -1 0 773.89)">
				<stop  offset="0" style="stop-color:#808080;stop-opacity:0.25"/>
				<stop  offset="0.54" style="stop-color:#808080;stop-opacity:0.12"/>
				<stop  offset="1" style="stop-color:#808080;stop-opacity:0.1"/>
			</linearGradient>
			<rect x="571.8" y="186.6" class="st77" width="52.9" height="3.1"/>
			
				<linearGradient id="SVGID_71_" gradientUnits="userSpaceOnUse" x1="571.7683" y1="580.4222" x2="606.1089" y2="580.4222" gradientTransform="matrix(1 0 0 -1 0 773.89)">
				<stop  offset="0" style="stop-color:#808080;stop-opacity:0.25"/>
				<stop  offset="0.54" style="stop-color:#808080;stop-opacity:0.12"/>
				<stop  offset="1" style="stop-color:#808080;stop-opacity:0.1"/>
			</linearGradient>
			<rect x="571.8" y="191.9" class="st78" width="34.3" height="3.1"/>
			
				<linearGradient id="SVGID_72_" gradientUnits="userSpaceOnUse" x1="571.7683" y1="575.0946" x2="617.0957" y2="575.0946" gradientTransform="matrix(1 0 0 -1 0 773.89)">
				<stop  offset="0" style="stop-color:#808080;stop-opacity:0.25"/>
				<stop  offset="0.54" style="stop-color:#808080;stop-opacity:0.12"/>
				<stop  offset="1" style="stop-color:#808080;stop-opacity:0.1"/>
			</linearGradient>
			<rect x="571.8" y="197.2" class="st79" width="45.3" height="3.1"/>
			
				<linearGradient id="SVGID_73_" gradientUnits="userSpaceOnUse" x1="571.7683" y1="569.7747" x2="624.6516" y2="569.7747" gradientTransform="matrix(1 0 0 -1 0 773.89)">
				<stop  offset="0" style="stop-color:#808080;stop-opacity:0.25"/>
				<stop  offset="0.54" style="stop-color:#808080;stop-opacity:0.12"/>
				<stop  offset="1" style="stop-color:#808080;stop-opacity:0.1"/>
			</linearGradient>
			<rect x="571.8" y="202.6" class="st80" width="52.9" height="3.1"/>
			
				<linearGradient id="SVGID_74_" gradientUnits="userSpaceOnUse" x1="571.7683" y1="564.4547" x2="589.4552" y2="564.4547" gradientTransform="matrix(1 0 0 -1 0 773.89)">
				<stop  offset="0" style="stop-color:#808080;stop-opacity:0.25"/>
				<stop  offset="0.54" style="stop-color:#808080;stop-opacity:0.12"/>
				<stop  offset="1" style="stop-color:#808080;stop-opacity:0.1"/>
			</linearGradient>
			<rect x="571.8" y="207.9" class="st81" width="17.7" height="3.1"/>
			
				<linearGradient id="SVGID_75_" gradientUnits="userSpaceOnUse" x1="575.5463" y1="598.7914" x2="596.1475" y2="598.7914" gradientTransform="matrix(1 0 0 -1 0 773.89)">
				<stop  offset="0" style="stop-color:#808080;stop-opacity:0.25"/>
				<stop  offset="0.54" style="stop-color:#808080;stop-opacity:0.12"/>
				<stop  offset="1" style="stop-color:#808080;stop-opacity:0.1"/>
			</linearGradient>
			<rect x="575.5" y="173.7" class="st82" width="20.6" height="2.7"/>
			<g class="st3">
				
					<linearGradient id="SVGID_76_" gradientUnits="userSpaceOnUse" x1="311.4076" y1="404.5059" x2="500.0417" y2="404.5059" gradientTransform="matrix(1 0 0 -1 0 773.89)">
					<stop  offset="0" style="stop-color:#808080;stop-opacity:0.25"/>
					<stop  offset="0.54" style="stop-color:#808080;stop-opacity:0.12"/>
					<stop  offset="1" style="stop-color:#808080;stop-opacity:0.1"/>
				</linearGradient>
				<polygon class="st83" points="311.4,421.7 416,448.1 500,379.6 500,337.6 313.4,290.7 				"/>
			</g>
			<g class="st3">
				
					<linearGradient id="SVGID_77_" gradientUnits="userSpaceOnUse" x1="500.0417" y1="404.5059" x2="688.6836" y2="404.5059" gradientTransform="matrix(1 0 0 -1 0 773.89)">
					<stop  offset="0" style="stop-color:#808080;stop-opacity:0.25"/>
					<stop  offset="0.54" style="stop-color:#808080;stop-opacity:0.12"/>
					<stop  offset="1" style="stop-color:#808080;stop-opacity:0.1"/>
				</linearGradient>
				<polygon class="st84" points="688.7,421.7 584.1,448.1 500,379.6 500,337.6 686.7,290.7 				"/>
			</g>
			
				<linearGradient id="SVGID_78_" gradientUnits="userSpaceOnUse" x1="218.062" y1="423.5651" x2="500.5352" y2="423.5651" gradientTransform="matrix(1 0 0 -1 0 773.89)">
				<stop  offset="0" style="stop-color:#808080;stop-opacity:0.25"/>
				<stop  offset="0.54" style="stop-color:#808080;stop-opacity:0.12"/>
				<stop  offset="1" style="stop-color:#808080;stop-opacity:0.1"/>
			</linearGradient>
			<polygon class="st85" points="313.8,287.3 218.1,366.5 404.7,413.4 500.5,337.1 			"/>
			
				<linearGradient id="SVGID_79_" gradientUnits="userSpaceOnUse" x1="500.5352" y1="423.5651" x2="783.9798" y2="423.5651" gradientTransform="matrix(1 0 0 -1 0 773.89)">
				<stop  offset="0" style="stop-color:#808080;stop-opacity:0.25"/>
				<stop  offset="0.54" style="stop-color:#808080;stop-opacity:0.12"/>
				<stop  offset="1" style="stop-color:#808080;stop-opacity:0.1"/>
			</linearGradient>
			<polygon class="st86" points="687.2,287.3 784,366.5 598.3,413.4 500.5,337.1 			"/>
			<g class="st53">
				
					<linearGradient id="SVGID_80_" gradientUnits="userSpaceOnUse" x1="500.5352" y1="423.5651" x2="783.9798" y2="423.5651" gradientTransform="matrix(1 0 0 -1 0 773.89)">
					<stop  offset="0" style="stop-color:#808080;stop-opacity:0.25"/>
					<stop  offset="0.54" style="stop-color:#808080;stop-opacity:0.12"/>
					<stop  offset="1" style="stop-color:#808080;stop-opacity:0.1"/>
				</linearGradient>
				<polygon class="st87" points="687.2,287.3 784,366.5 598.3,413.4 500.5,337.1 				"/>
			</g>
		</g>
		<polygon class="st88" points="687.6,284.9 502.5,240.3 502.5,589.2 687.6,540.7 		"/>
		<polygon class="st89" points="687.6,284.9 502.5,240.3 502.5,589.2 687.6,540.7 		"/>
		<polygon class="st88" points="317.4,284.9 502.5,240.3 502.5,589.2 317.4,541.7 		"/>
		<polygon class="st90" points="317.4,283.4 502.5,238.8 502.5,589.2 317.4,541.7 		"/>
		<polygon class="st88" points="500.9,241.9 598.4,160.9 783.5,208.4 686,286.4 		"/>
		<polygon class="st88" points="224,210.9 318.9,286.4 504,241.9 410,162.4 		"/>
		<polygon class="st91" points="222.4,209.3 319.7,286.4 504.8,241.9 408.5,160.9 		"/>
		<g class="st12">
			
				<linearGradient id="SVGID_81_" gradientUnits="userSpaceOnUse" x1="433.8818" y1="447.1347" x2="433.8818" y2="573.888" gradientTransform="matrix(1 0 0 -1 0 773.89)">
				<stop  offset="0" style="stop-color:#808080;stop-opacity:0.25"/>
				<stop  offset="0.54" style="stop-color:#808080;stop-opacity:0.12"/>
				<stop  offset="1" style="stop-color:#808080;stop-opacity:0.1"/>
			</linearGradient>
			<path class="st92" d="M368.7,200h130.4c1.9,0,3.5,1.6,3.5,3.5v119.8c0,1.9-1.6,3.5-3.5,3.5H368.7c-1.9,0-3.5-1.6-3.5-3.5V203.5
				C365.2,201.6,366.7,200,368.7,200z"/>
		</g>
		<path class="st93" d="M370.3,201h127.3c1.9,0,3.5,1.6,3.5,3.5v116.7c0,1.9-1.6,3.5-3.5,3.5H370.3c-1.9,0-3.5-1.6-3.5-3.5V204.5
			C366.9,202.5,368.4,201,370.3,201z"/>
		<path class="st94" d="M380.7,221.4h15.7c1.9,0,3.5,1.6,3.5,3.5v13.4c0,1.9-1.6,3.5-3.5,3.5h-15.7c-1.9,0-3.5-1.6-3.5-3.5v-13.4
			C377.2,222.9,378.8,221.4,380.7,221.4z"/>
		<path class="st95" d="M407.3,221.4H496c0.3,0,0.6,0.3,0.6,0.6v1c0,0.3-0.3,0.6-0.6,0.6h-88.7c-0.3,0-0.6-0.3-0.6-0.6v-1
			C406.6,221.6,406.9,221.4,407.3,221.4z"/>
		<path class="st95" d="M407.3,228.1H496c0.3,0,0.6,0.3,0.6,0.6v1c0,0.3-0.3,0.6-0.6,0.6h-88.7c-0.3,0-0.6-0.3-0.6-0.6v-1
			C406.6,228.4,406.9,228.1,407.3,228.1z"/>
		<path class="st95" d="M375.6,252.8H496c0.3,0,0.6,0.3,0.6,0.6v1c0,0.3-0.3,0.6-0.6,0.6H375.6c-0.3,0-0.6-0.3-0.6-0.6v-1
			C375,253.1,375.2,252.8,375.6,252.8z"/>
		<path class="st95" d="M375.6,259.6H496c0.3,0,0.6,0.3,0.6,0.6v1c0,0.3-0.3,0.6-0.6,0.6H375.6c-0.3,0-0.6-0.3-0.6-0.6v-1
			C375,259.9,375.2,259.6,375.6,259.6z"/>
		<path class="st95" d="M375.6,268.6H496c0.3,0,0.6,0.3,0.6,0.6v1c0,0.3-0.3,0.6-0.6,0.6H375.6c-0.3,0-0.6-0.3-0.6-0.6v-1
			C375,268.9,375.2,268.6,375.6,268.6z"/>
		<path class="st95" d="M375.6,275.4h68.9c0.3,0,0.6,0.3,0.6,0.6v1c0,0.3-0.3,0.6-0.6,0.6h-68.9c-0.3,0-0.6-0.3-0.6-0.6v-1
			C375,275.7,375.2,275.4,375.6,275.4z"/>
		<path class="st95" d="M375.6,284.5H496c0.3,0,0.6,0.3,0.6,0.6v1c0,0.3-0.3,0.6-0.6,0.6H375.6c-0.3,0-0.6-0.3-0.6-0.6v-1
			C375,284.7,375.2,284.5,375.6,284.5z"/>
		<path class="st95" d="M375.6,291.3H496c0.3,0,0.6,0.3,0.6,0.6v1c0,0.3-0.3,0.6-0.6,0.6H375.6c-0.3,0-0.6-0.3-0.6-0.6v-1
			C375,291.5,375.2,291.3,375.6,291.3z"/>
		<path class="st95" d="M375.6,300.3H496c0.3,0,0.6,0.3,0.6,0.6v1c0,0.3-0.3,0.6-0.6,0.6H375.6c-0.3,0-0.6-0.3-0.6-0.6v-1
			C375,300.6,375.2,300.3,375.6,300.3z"/>
		<path class="st95" d="M375.6,307.1h68.9c0.3,0,0.6,0.3,0.6,0.6v1c0,0.3-0.3,0.6-0.6,0.6h-68.9c-0.3,0-0.6-0.3-0.6-0.6v-1
			C375,307.4,375.2,307.1,375.6,307.1z"/>
		<g class="st12">
			
				<linearGradient id="SVGID_82_" gradientUnits="userSpaceOnUse" x1="454.6141" y1="417.8443" x2="454.6141" y2="544.5975" gradientTransform="matrix(1 0 0 -1 0 773.89)">
				<stop  offset="0" style="stop-color:#808080;stop-opacity:0.25"/>
				<stop  offset="0.54" style="stop-color:#808080;stop-opacity:0.12"/>
				<stop  offset="1" style="stop-color:#808080;stop-opacity:0.1"/>
			</linearGradient>
			<path class="st96" d="M389.4,229.3h130.4c1.9,0,3.5,1.6,3.5,3.5v119.8c0,1.9-1.6,3.5-3.5,3.5H389.4c-1.9,0-3.5-1.6-3.5-3.5V232.8
				C385.9,230.8,387.5,229.3,389.4,229.3z"/>
		</g>
		<path class="st97" d="M391.1,230.3h127.3c1.9,0,3.5,1.6,3.5,3.5v116.7c0,1.9-1.6,3.5-3.5,3.5H391.1c-1.9,0-3.5-1.6-3.5-3.5V233.7
			C387.6,231.8,389.2,230.3,391.1,230.3z"/>
		<path class="st94" d="M401.4,250.6h15.7c1.9,0,3.5,1.6,3.5,3.5v13.4c0,1.9-1.6,3.5-3.5,3.5h-15.7c-1.9,0-3.5-1.6-3.5-3.5v-13.4
			C397.9,252.2,399.5,250.6,401.4,250.6z"/>
		<path class="st95" d="M428,250.6h88.7c0.3,0,0.6,0.3,0.6,0.6v1c0,0.3-0.3,0.6-0.6,0.6H428c-0.3,0-0.6-0.3-0.6-0.6v-1
			C427.4,250.9,427.7,250.6,428,250.6z"/>
		<path class="st95" d="M428,257.4h88.7c0.3,0,0.6,0.3,0.6,0.6v1c0,0.3-0.3,0.6-0.6,0.6H428c-0.3,0-0.6-0.3-0.6-0.6v-1
			C427.4,257.7,427.7,257.4,428,257.4z"/>
		<path class="st95" d="M396.3,282.1h120.4c0.3,0,0.6,0.3,0.6,0.6v1c0,0.3-0.3,0.6-0.6,0.6H396.3c-0.3,0-0.6-0.3-0.6-0.6v-1
			C395.7,282.4,396,282.1,396.3,282.1z"/>
		<path class="st95" d="M396.3,288.9h120.4c0.3,0,0.6,0.3,0.6,0.6v1c0,0.3-0.3,0.6-0.6,0.6H396.3c-0.3,0-0.6-0.3-0.6-0.6v-1
			C395.7,289.2,396,288.9,396.3,288.9z"/>
		<path class="st95" d="M396.3,297.9h120.4c0.3,0,0.6,0.3,0.6,0.6v1c0,0.3-0.3,0.6-0.6,0.6H396.3c-0.3,0-0.6-0.3-0.6-0.6v-1
			C395.7,298.2,396,297.9,396.3,297.9z"/>
		<path class="st95" d="M396.3,304.7h68.9c0.3,0,0.6,0.3,0.6,0.6v1c0,0.3-0.3,0.6-0.6,0.6h-68.9c-0.3,0-0.6-0.3-0.6-0.6v-1
			C395.7,305,396,304.7,396.3,304.7z"/>
		<path class="st95" d="M396.3,313.7h120.4c0.3,0,0.6,0.3,0.6,0.6v1c0,0.3-0.3,0.6-0.6,0.6H396.3c-0.3,0-0.6-0.3-0.6-0.6v-1
			C395.7,314,396,313.7,396.3,313.7z"/>
		<path class="st95" d="M396.3,320.5h120.4c0.3,0,0.6,0.3,0.6,0.6v1c0,0.3-0.3,0.6-0.6,0.6H396.3c-0.3,0-0.6-0.3-0.6-0.6v-1
			C395.7,320.8,396,320.5,396.3,320.5z"/>
		<path class="st95" d="M396.3,329.6h120.4c0.3,0,0.6,0.3,0.6,0.6v1c0,0.3-0.3,0.6-0.6,0.6H396.3c-0.3,0-0.6-0.3-0.6-0.6v-1
			C395.7,329.9,396,329.6,396.3,329.6z"/>
		<path class="st95" d="M396.3,336.4h68.9c0.3,0,0.6,0.3,0.6,0.6v1c0,0.3-0.3,0.6-0.6,0.6h-68.9c-0.3,0-0.6-0.3-0.6-0.6v-1
			C395.7,336.7,396,336.4,396.3,336.4z"/>
		<g class="st12">
			
				<linearGradient id="SVGID_83_" gradientUnits="userSpaceOnUse" x1="525.3345" y1="388.3379" x2="525.3345" y2="528.1905" gradientTransform="matrix(1 0 0 -1 0 773.89)">
				<stop  offset="0" style="stop-color:#808080;stop-opacity:0.25"/>
				<stop  offset="0.54" style="stop-color:#808080;stop-opacity:0.12"/>
				<stop  offset="1" style="stop-color:#808080;stop-opacity:0.1"/>
			</linearGradient>
			<rect x="465.8" y="245.7" class="st98" width="119" height="139.9"/>
		</g>
		<rect x="469.5" y="248" class="st97" width="112.8" height="134.5"/>
		<g class="st12">
			
				<linearGradient id="SVGID_84_" gradientUnits="userSpaceOnUse" x1="758.8974" y1="420.2018" x2="758.8974" y2="440.1862" gradientTransform="matrix(1 0 0 -1 -233 706.14)">
				<stop  offset="0" style="stop-color:#808080;stop-opacity:0.25"/>
				<stop  offset="0.54" style="stop-color:#808080;stop-opacity:0.12"/>
				<stop  offset="1" style="stop-color:#808080;stop-opacity:0.1"/>
			</linearGradient>
			<path class="st99" d="M532,269.3V266h-12.3v3.4h-8.6v16.6h29.5v-16.6H532z M521.3,267.2h9.3v2.2h-9.3V267.2z"/>
		</g>
		<rect x="512.4" y="269.9" class="st94" width="27" height="15.2"/>
		<polygon class="st94" points="520.3,266.8 520.3,270.7 521.7,270.7 521.7,267.9 530.1,267.9 530.1,270.7 531.5,270.7 531.5,266.8 
					"/>
		<rect x="486.4" y="307" class="st95" width="79.4" height="3.4"/>
		<rect x="486.4" y="329.2" class="st95" width="79.4" height="3.4"/>
		<rect x="486.4" y="335.1" class="st95" width="79.4" height="3.4"/>
		<rect x="486.4" y="323.3" class="st95" width="33.5" height="3.4"/>
		<rect x="540.7" y="323.3" class="st100" width="25" height="3.4"/>
		<rect x="514.2" y="348.9" class="st94" width="25" height="3.4"/>
		<polygon class="st88" points="317.4,284.9 317.4,541.7 502.5,589.2 505,334.3 		"/>
		<polygon class="st88" points="687.6,540.7 502.5,589.2 502.5,334.3 687.6,284.9 		"/>
		<polygon class="st101" points="687.6,540.7 502.5,589.2 502.5,334.3 687.6,284.9 		"/>
		<polygon class="st101" points="613.9,455.5 613.9,539.8 687.6,519.4 687.6,435.1 		"/>
		
			<linearGradient id="SVGID_85_" gradientUnits="userSpaceOnUse" x1="617.9901" y1="457.9597" x2="617.9901" y2="510.4034" gradientTransform="matrix(1 0 0 -1 0 773.89)">
			<stop  offset="0" style="stop-color:#808080;stop-opacity:0.25"/>
			<stop  offset="0.54" style="stop-color:#808080;stop-opacity:0.12"/>
			<stop  offset="1" style="stop-color:#808080;stop-opacity:0.1"/>
		</linearGradient>
		<rect x="590.7" y="263.5" class="st102" width="54.6" height="52.4"/>
		<rect x="591.6" y="264.8" class="st93" width="52.9" height="50.1"/>
		<g class="st12">
			
				<linearGradient id="SVGID_86_" gradientUnits="userSpaceOnUse" x1="850.994" y1="419.9627" x2="850.994" y2="435.167" gradientTransform="matrix(1 0 0 -1 -233 706.14)">
				<stop  offset="0" style="stop-color:#808080;stop-opacity:0.25"/>
				<stop  offset="0.54" style="stop-color:#808080;stop-opacity:0.12"/>
				<stop  offset="1" style="stop-color:#808080;stop-opacity:0.1"/>
			</linearGradient>
			<path class="st103" d="M622.7,273.5v-2.6h-9.4v2.6h-6.5v12.6h22.4v-12.6H622.7z M614.5,271.9h7v1.6h-7V271.9z"/>
		</g>
		<rect x="607.7" y="274" class="st104" width="20.5" height="11.6"/>
		<polygon class="st104" points="613.7,271.6 613.7,274.6 614.8,274.6 614.8,272.5 621.2,272.5 621.2,274.6 622.3,274.6 
			622.3,271.6 		"/>
		<g class="st48">
			<rect x="608.9" y="294.5" class="st94" width="19.1" height="2.6"/>
		</g>
		<rect x="601.7" y="299.2" class="st105" width="32.5" height="2.6"/>
		<g class="st12">
			
				<linearGradient id="SVGID_87_" gradientUnits="userSpaceOnUse" x1="496.6532" y1="612.631" x2="496.6532" y2="670.7263" gradientTransform="matrix(1 0 0 -1 0 773.89)">
				<stop  offset="0" style="stop-color:#808080;stop-opacity:0.25"/>
				<stop  offset="0.54" style="stop-color:#808080;stop-opacity:0.12"/>
				<stop  offset="1" style="stop-color:#808080;stop-opacity:0.1"/>
			</linearGradient>
			<rect x="461.3" y="103.2" class="st106" width="70.7" height="58.1"/>
		</g>
		<rect x="462.1" y="104.3" class="st107" width="68.9" height="56"/>
		<rect x="462.1" y="104.3" class="st94" width="68.9" height="12.5"/>
		<rect x="462.1" y="104.3" class="st89" width="68.9" height="12.5"/>
		<rect x="467.6" y="121.3" class="st95" width="58" height="7.3"/>
		<rect x="467.6" y="134.1" class="st95" width="42.3" height="2.5"/>
		<rect x="467.6" y="138.3" class="st95" width="27.5" height="2.5"/>
		<rect x="467.6" y="142.6" class="st95" width="36.3" height="2.5"/>
		<rect x="467.6" y="146.8" class="st95" width="42.3" height="2.5"/>
		<rect x="467.6" y="151.1" class="st95" width="14.1" height="2.5"/>
		<g class="st12">
			
				<linearGradient id="SVGID_88_" gradientUnits="userSpaceOnUse" x1="609.1004" y1="555.0986" x2="609.1004" y2="627.1028" gradientTransform="matrix(1 0 0 -1 0 773.89)">
				<stop  offset="0" style="stop-color:#808080;stop-opacity:0.25"/>
				<stop  offset="0.54" style="stop-color:#808080;stop-opacity:0.12"/>
				<stop  offset="1" style="stop-color:#808080;stop-opacity:0.1"/>
			</linearGradient>
			<rect x="565.3" y="146.8" class="st108" width="87.7" height="72"/>
		</g>
		<rect x="566.3" y="148.1" class="st97" width="85.5" height="69.5"/>
		<rect x="566.3" y="148.1" class="st94" width="85.5" height="15.5"/>
		<rect x="573.1" y="169.3" class="st93" width="71.8" height="9"/>
		<rect x="573.1" y="185.1" class="st95" width="52.4" height="3.1"/>
		<rect x="573.1" y="190.4" class="st95" width="34" height="3.1"/>
		<rect x="573.1" y="195.6" class="st95" width="44.9" height="3.1"/>
		<rect x="573.1" y="200.9" class="st95" width="52.4" height="3.1"/>
		<rect x="573.1" y="206.2" class="st95" width="17.5" height="3.1"/>
		<rect x="576.8" y="172.3" class="st109" width="20.4" height="2.7"/>
		<g>
			<path class="st94" d="M650.4,81.4l-34.9,170c-27.1-24.1-68.6-21.6-92.7,5.6c-24.1,27.1-21.6,68.6,5.6,92.7
				c27.1,24.1,68.6,21.6,92.7-5.6c7.7-8.6,12.9-19.2,15.2-30.5l33-161.2l64.5,13.2l13.2-64.4L650.4,81.4z"/>
			<path class="st89" d="M737.3,99.2l-11,53.9l-64.5-13.2l-33,161.2c-7.3,35.6-42,58.5-77.6,51.2c-14.5-3-27.6-10.8-37.1-22.1
				c16.3,32.4,55.9,45.5,88.3,29.1c18-9,30.8-25.8,34.8-45.5l33-161.2l64.5,13.2l13.2-64.4L737.3,99.2z"/>
			<path class="st110" d="M552.4,75.9l-0.1,1.7l6.9,2.5c0,0,0.7-0.3,1.7-0.7c1.9-0.8,5.1-1.8,7.6-1.8c3.9,0,16.9-2.9,13.1-4
				c-3.8-1.1-3.5-0.3-3.5-0.3s-3.4-5-8.5-2.1c-3.9,2.2-11.8,3.8-15.4,4.4C553.1,75.8,552.4,75.9,552.4,75.9z"/>
			<path class="st111" d="M584.8,62.8c1.2-0.2,2.4-0.3,3.6-0.2c1.2,0.1,2.3,0.8,3,1.8c0.4,0.6,0.5,1.2,0.9,1.8
				c1.7,2.8,6.3,1.9,8.5,4.2c1.4,1.4,1.4,3.7,1.6,5.7s0.8,4.3,2.6,5.1c0.9,0.3,1.9,0.4,2.8,0.5c1,0,1.8,0.6,2.3,1.4
				c0.6,1.5-1.1,3.5,0,4.8c1,1.1,3.3,0.3,3.9,1.7c0.2,0.7-0.1,1.5-0.7,1.9c-0.6,0.4-1.1,0.9-1.7,1.4c-0.9,1.1-0.7,2.7,0.4,3.6
				c0.4,0.3,0.9,0.5,1.4,0.6c0.8,0.1,1.8-0.2,2.4,0.3c0.4,0.4,0.6,0.9,0.5,1.5c-0.3,1.9-2,3.2-3.9,3c-1.4-0.2-2.5-1.2-3.6-2.1
				c-1.1-0.9-2.5-1.7-3.8-1.5c-0.6,0.2-1.3,0.4-1.8,0.8c-1.7,0.9-3.6,1.6-5.5,1.9c-1.7,0.3-3.6,0.3-5-0.8c-1.5-1.2-2-3.5-3.6-4.5
				c-1.7-1-4-0.2-5.9,0.4c-1.9,0.7-4.4,1-5.7-0.5c-1.4-1.7-0.3-4.3-1-6.4c-0.3-0.8-0.7-1.5-1.3-2.1c-1-1.1-2.1-2.1-3.1-3.2
				c-1-1.1-1.7-2.5-1.8-4c0-1.8,1.2-3.3,2.4-4.6c1.2-1.3,2.6-2.5,3.3-4.2c0.5-1.2,0.5-2.6,1.1-3.8c0.7-1.5,2.2-2.5,3.8-2.6
				c0.9-0.1,1,0,1.6-0.7C583.1,63.3,583.9,62.8,584.8,62.8z"/>
			<g class="st3">
				<path d="M610.3,83.6c0,0.8-0.1,1.6-0.3,2.3C610,85.1,610.1,84.3,610.3,83.6z"/>
				<path d="M611.8,92.9c-0.2,0.2-0.3,0.5-0.4,0.8c-0.1-0.7,0.1-1.5,0.5-2.1c0.5-0.5,1.1-1,1.7-1.4c0.2-0.2,0.4-0.4,0.5-0.7l0,0.1
					c0.2,0.7-0.1,1.5-0.7,1.9C612.9,91.9,612.3,92.4,611.8,92.9z"/>
				<path d="M572.2,82.7c1,1.1,2.1,2,3.1,3.2c0.6,0.6,1,1.3,1.3,2.1c0.6,2.1-0.4,4.7,1,6.4c1.3,1.6,3.8,1.2,5.7,0.5
					c1.9-0.7,4.2-1.5,5.9-0.4c1.7,1.1,2.1,3.3,3.6,4.5c1.4,1.1,3.3,1.1,5,0.8c1.9-0.3,3.8-1,5.5-1.9c0.6-0.4,1.2-0.6,1.8-0.8
					c1.4-0.3,2.7,0.6,3.9,1.5c1.1,0.9,2.2,1.9,3.6,2.1c1.7,0.2,3.2-0.9,3.8-2.5c0,0.2,0.1,0.5,0,0.7c-0.3,1.9-2,3.3-3.9,3.1
					c-1.4-0.2-2.5-1.2-3.6-2.1c-1.1-0.9-2.5-1.7-3.9-1.5c-0.6,0.2-1.3,0.4-1.8,0.8c-1.7,0.9-3.6,1.6-5.5,1.9c-1.7,0.3-3.6,0.3-5-0.8
					c-1.5-1.2-2-3.5-3.6-4.5c-1.7-1-4-0.2-5.9,0.4s-4.4,1-5.7-0.5c-1.4-1.7-0.3-4.3-1-6.4c-0.3-0.8-0.7-1.5-1.3-2.1
					c-1-1.1-2.1-2.1-3.1-3.2c-1-1.1-1.7-2.5-1.8-4c0-0.3,0-0.6,0.1-0.9C570.6,80.5,571.3,81.7,572.2,82.7z"/>
			</g>
			<path class="st112" d="M567.2,122.5l-2.7,0c0,0,1.7,4.7,6.2,2.8C575.2,123.4,567.2,122.5,567.2,122.5z"/>
			<path class="st89" d="M567.2,122.5l-2.7,0c0,0,1.7,4.7,6.2,2.8C575.2,123.4,567.2,122.5,567.2,122.5z"/>
			<path class="st110" d="M615.4,173.2c0,0,3.2,2.6,6.1,5.4c2.1,2,4,4.2,4.5,5.6c1.2,3.4,9.2,8.4,9.2,8.4l7.3,8.3
				c1.9,1.1,3.4,4,3.9,5.2c0.2,0.4,0.3,0.6,0.3,0.6l3.5,0.3l2.3-2c0,0,1.5-5.1-2.1-5.8c-0.7-0.2-1.3-0.5-1.9-0.9
				c-3.5-2.5-7.8-9-7.8-9s-6.8-13.3-9.5-14.3c-0.3-0.1-0.6-0.2-0.8-0.4c-2.6-1.5-5.9-6-5.9-6L615.4,173.2z"/>
			<path class="st110" d="M573.2,198.9c-0.2,5.7,1.8,17,2.7,19.5c1.1,3.1,0.9,8.7,0.9,8.7l-0.3,3.9c0,0.5,0.1,1.1,0.2,1.6
				c0.1,0.3,0.2,0.6,0.3,0.9l7.3-0.7c0,0-0.1-1.7-0.3-3.6s-0.7-4.4-1.4-5.4c-1.3-2-0.4-7.9-0.4-7.9s0.9-11.5,0.8-13
				c-0.1-1.4-0.1-2.9,0.1-4.3c0.1-0.8,0.2-1.6,0.4-2.6c0.4-2.8,0.6-5.7,0.6-8.5l-8.3-0.2l-2.1,9C573.3,197,573.1,197.9,573.2,198.9z
				"/>
			<path class="st89" d="M646.4,206.2c0.2,0.4,0.3,0.6,0.3,0.6l3.5,0.3l2.3-2c0,0,1.5-5.1-2.1-5.8c-0.7-0.2-1.3-0.5-1.9-0.9
				c-0.6,1.5,0.9,3.1,0.9,3.1s0.6,0.7-0.1,3.1C648.9,206.2,647.3,206.3,646.4,206.2z"/>
			<path class="st113" d="M646,206.4c0.1,0.9,2,2.6,3.3,3.6c0.7,0.5,1.2,0.9,1.3,1c0.3,0.2,2.6-1.4,3.1-3c0.6-1.6,6-5.8,6-5.8
				c1.3-1.8,2.3-3.9,2.9-6.1c0.6-2.2-0.3-2.6-1.5-2.3c-0.9,0.3-1.7,0.7-2.4,1.2c-0.9,0.5-1.9,0.8-3,0.8c-1.4,0.1-2.9,0.3-4.2,0.9
				c-1.2,0.5-2.4,1.1-2.7,1.8c-0.7,1.5,0.8,3.3,0.8,3.3s0.6,0.7-0.1,3.1C648.9,207.3,645.9,206.3,646,206.4z"/>
			<path class="st89" d="M649.3,210c0.7,0.5,1.2,0.9,1.3,1c0.3,0.2,2.6-1.4,3.1-3c0.6-1.6,6-5.8,6-5.8c1.3-1.8,2.3-3.9,2.9-6.1
				c0.6-2.2-0.3-2.6-1.5-2.3c-0.5,1.7-1.7,5.1-2.9,6.7C656.7,202.5,650.9,208.4,649.3,210z"/>
			<path class="st89" d="M576.8,232.4l-0.1,0.1c0.1,0.3,0.2,0.6,0.3,0.9l7.3-0.7c0,0-0.1-1.7-0.3-3.6c-2.6-1.3-7.5,2.6-7.5,2.6
				L576.8,232.4z"/>
			<path class="st113" d="M575.2,237.5c0,0,5.3,3.2,8,3.4c2,0.2,2.3-0.7,2.5-2.6c0.1-0.6,0.2-1.3,0.3-2.1c0.6-3.3-0.6-4.3-0.6-4.3
				c-1-6.2-8.9,0.2-8.9,0.2l0.2,0.7c-0.7,0.9-1.1,1.9-1.3,3C575.3,236.3,575.2,236.9,575.2,237.5z"/>
			<path class="st89" d="M575.2,237.5c0,0,5.3,3.2,8,3.4c2,0.2,2.3-0.7,2.5-2.6c-1.5,0.8-3.3,1-5,0.4c-1.9-0.7-3.8-1.6-5.4-2.9
				C575.3,236.3,575.2,236.9,575.2,237.5z"/>
			<path class="st110" d="M575.3,92l0.3,10.3l0,2.1l4.1,1.4l4.2,1.4l5-0.7c0,0,2.2-4.2,1.8-7.7c-0.1-1.3-0.7-2.4-1.6-3.3
				c-0.3-0.3-0.5-0.6-0.8-0.9c-0.2-0.4-0.4-0.8-0.5-1.2c-0.1-0.5-0.2-1.1-0.1-1.6c0.3-2.7,2.6-5.3,2.6-5.3s-9.2-5.4-8.9-3.1
				c0.2,1.5-1.7,3.7-3,5c-0.7,0.7-1.3,1.2-1.3,1.2L575.3,92z"/>
			
				<ellipse transform="matrix(0.2008 -0.9796 0.9796 0.2008 389.1329 639.9575)" class="st89" cx="586.8" cy="81.5" rx="8.8" ry="8.8"/>
			
				<ellipse transform="matrix(0.2008 -0.9796 0.9796 0.2008 389.4731 639.7245)" class="st110" cx="586.8" cy="81.2" rx="8.8" ry="8.8"/>
			<path class="st114" d="M569.3,124.8c0,2,1.3,5.3,1.3,5.3l11.4,5.4l10.4-7.2l0-0.1c-0.1-0.9-1.2-12.1,1.7-14.3
				c3-2.2,3.6-10.1,3.6-10.1s-3.3-5.8-3.9-7.2s-6-3.4-6-3.4c0.2,0.4,0.4,0.9,0.5,1.2c0.4,1,0.7,2.1,0.8,3.2c0.1,1.1-0.1,2.2-0.8,3.1
				c-0.2,0.2-0.3,0.5-0.5,0.7c-1.8,3.9-5.9,2.5-7.6,1.7c-0.4-0.2-0.7-0.3-0.7-0.3l-4.1-0.7l-2.6-0.4c0,0-3,20.5-3.6,22
				C569.3,124.2,569.2,124.5,569.3,124.8z"/>
			<path class="st115" d="M572.8,102.9l7.6,0.6l-0.1,0c-0.4-0.2-0.7-0.3-0.7-0.3l-4.1-0.7l-2.6-0.4
				C573,101.9,572.9,102.3,572.8,102.9z"/>
			<polygon class="st115" points="575.4,132.5 578.5,134 583.7,134.4 585.3,133.2 			"/>
			<polygon class="st115" points="580.5,134.9 581.9,135.6 582.7,135.1 			"/>
			<path class="st89" d="M569.3,124.8c1.9,0.6,3.6,1.1,3.6,1.1l10,1.7l2.1-10.3c-1-1.3-2.1-2.5-3.4-3.4c-1.6-0.9-3.3-3.2-1.9-7.9
				c0.1-0.3,0.2-0.6,0.3-0.8c0.2-0.5,0.3-1.1,0.4-1.6c0.5-2.4,0-4.9-1.4-6.9c0-0.1-0.1-0.1-0.1-0.2l-0.1-7.8c-0.1,0-0.2,0-0.3,0
				c-0.7,0.7-1.3,1.2-1.3,1.2l-1.7,2.4l0.3,10.3l-2.6-0.4c0,0-3,20.5-3.6,22C569.3,124.2,569.2,124.5,569.3,124.8z"/>
			<path class="st113" d="M572.5,125.9l10,1.7l2.1-10.3c-1-1.3-2.1-2.5-3.4-3.4c-1.7-1-3.4-3.4-1.6-8.8c1.1-2.8,0.8-6.1-1-8.6
				l-0.1-0.2l-0.1-7.8c-1-0.1-2.1,0.2-2.8,0.9c-0.2,0.3-0.5,0.5-0.8,0.8c-0.5,0.6-1.5,0.7-2.1,0.2c-0.9-0.7-5-3.5-6.4-1.8
				c-1.4,1.7-3.8,12.7-3.8,12.7c1.2,1.5,1.9,3.4,1.9,5.4c0,3.3,1.2,3.6,1.2,3.6l-0.6,9.3c0,0,0.7,2.2-0.3,3.1"/>
			<path class="st113" d="M574.8,90.1l0.6,5.4l3.2,0.9l-0.1-0.2l-0.1-7.8c-1-0.1-2.1,0.2-2.8,0.9C575.3,89.7,575,89.9,574.8,90.1z"
				/>
			<path class="st89" d="M552.4,75.9l-0.1,1.7l6.9,2.5c0,0,0.7-0.3,1.7-0.7c-0.7-0.3-4.1-1.8-5.9-2.8c-0.6-0.4-1.1-0.6-1.1-0.8
				c0-0.1,0.1-0.1,0.2-0.2C553.1,75.8,552.4,75.9,552.4,75.9z"/>
			<path class="st113" d="M541.8,84.8c0,0,6.8,7.8,11.6,9.8c0,0,6.6,3.5,8.9,6.5l5.4-11l-1.6-1.7c0,0-2.5,0.9-4.3,0.1
				c-1.8-0.8-3.9-1.6-3.9-1.6c-1.5-1-3.2-1.8-4.8-2.5c-1.3-0.4-0.4-2,1.1-2.7c0.2-0.1,0.4-0.2,0.6-0.2c0.4,0.8,1.3,1.2,2.2,1
				c0.6-0.2,1.1-0.6,1.6-1l0,0c0.7-0.6,1.4-1.3,2-2c0,0-4-1.8-6-2.9c-0.6-0.4-1.1-0.6-1.1-0.8c0-0.5,4.2-1.2,4.2-1.2s-3-2.3-4.5-1.4
				c0,0,0.7,0.8-0.1,1.3c-0.8,0.5-10.5,5.2-10.5,5.2S538.1,81.2,541.8,84.8z"/>
			<path class="st89" d="M550,80.3l4.3,1.6c0.2-0.1,0.4-0.2,0.6-0.2c0.4,0.8,1.3,1.2,2.2,1c0.6-0.2,1.1-0.6,1.6-1l0,0
				c0.6-0.5,1.1-1.1,1.6-1.7c0,0-4-1.8-6-2.9L550,80.3z"/>
			<path class="st113" d="M550.3,80l4.6,1.7c0.4,0.8,1.3,1.2,2.2,1c1.5-0.5,3.6-2.9,3.6-2.9s-4-1.8-6-2.9L550.3,80z"/>
			<path class="st89" d="M624.6,168.8l-9.2,4.4c0,0,3.2,2.6,6.1,5.4c3.3-1.4,6.5-2.6,8.9-3.9C627.9,173.2,624.6,168.8,624.6,168.8z"
				/>
			<path class="st89" d="M573.2,198.9c2,0.2,4.1,0.1,6.1-0.2c0,0,1.5,0,3.9-0.3c0.1-0.8,0.2-1.6,0.4-2.6c0.4-2.8,0.6-5.7,0.6-8.5
				l-8.3-0.2l-2.1,9C573.3,197,573.1,197.9,573.2,198.9z"/>
			<path class="st113" d="M566.3,159.5c1.1,2.7,3.5,13.8,3.5,13.8c0.6,2,1.4,4,2.3,5.9c1.3,2.6,1.5,7.8,2,12.1
				c0.5,4.3-1.1,3.2-1.3,5.2c-0.2,2.1,7.9,1,7.9,1s16.1-0.2,22.8-8.7c6.7-8.5,27.3-13.2,32.2-17.7c4.9-4.5-0.4-3.3,0.3-6.2
				s-0.9-5.7-0.9-5.7s-6.7-3.5-7.6-5.1c-0.9-1.6-5.8-6.3-5.8-6.3s-4.9-3.4-5.4-4.4c-0.5-0.9-6.4-4.8-8.2-5.6c-1.8-0.9-3.2-4-3.2-4
				s-1.2-0.1-2.7-2.2c-1.4-2.1-8.6-5.1-8.6-5.1c-14.6,6.8-23.1,3.7-23.1,3.7l-0.6,1.7C561.4,139.3,565.2,156.8,566.3,159.5z"/>
			<path class="st89" d="M570,131.9c0,0,10.2,5.9,23.7-5.3c-14.6,6.7-23.1,3.6-23.1,3.6L570,131.9z"/>
			<path class="st89" d="M587.6,142c0,0,10.4,24.3,11.1,25.3C599.5,168.3,588.4,141.9,587.6,142z"/>
			<path class="st89" d="M581.1,139c0,0,7,18,6.3,20.1C587.4,159.1,580.7,141.8,581.1,139z"/>
			<path class="st89" d="M574.3,142.1c0,0,0.1,9.3-3.8,13.7L574.3,142.1z"/>
			<path class="st89" d="M570.2,141.8c0,0-1.7,7.7-2.9,9.1L570.2,141.8z"/>
			<polygon class="st89" points="596.7,140.1 609.1,148.2 604,147.9 			"/>
			<path class="st89" d="M582.1,75.2c0.6,0.6,1,1.4,1.8,1.7c0.6,0.1,1.2,0.1,1.8-0.1c1.5-0.3,3.1-0.5,4.4,0.3
				c1.9,1.1,2.5,3.6,4.3,4.7c0.6,0.3,1.2,0.5,1.9,0.5c0.4,0,0.8-0.1,1.2-0.2c0.9-0.3,1.6-1,2-1.8c0.6-1.5,0.4-3.2-0.7-4.5
				c-1-1.2-2.3-2.2-3.8-2.8c-3.8-1.7-8-2.3-12.1-2.8c-0.3-0.1-0.7-0.1-1,0.1c-0.7,0.3-2.2,2.4-2.2,3.3
				C579.7,74.6,582.2,74.3,582.1,75.2z"/>
			<path class="st111" d="M582.1,74.9c0.6,0.6,1,1.4,1.8,1.7c0.6,0.1,1.2,0.1,1.7-0.1c1.5-0.3,3.1-0.5,4.4,0.3
				c1.9,1.1,2.5,3.6,4.3,4.7c0.6,0.3,1.2,0.5,1.9,0.5c0.4,0,0.8-0.1,1.2-0.2c0.9-0.3,1.6-1,2-1.8c0.6-1.5,0.3-3.2-0.7-4.5
				c-1-1.2-2.3-2.2-3.8-2.8c-3.8-1.7-8-2.3-12.1-2.8c-0.3-0.1-0.7-0.1-1,0.1c-0.7,0.3-2.2,2.4-2.2,3.3
				C579.7,74.3,582.2,74,582.1,74.9z"/>
			<path class="st110" d="M633.4,92l0.2,5.5l1.9-0.7l10.3-3.6c0,0,7,1.2,8.7-4.3s-7.7-1.6-8.2-1.3s-1.7,0.9-1.7,0.9l-9.5,3L633.4,92
				z"/>
			<path class="st89" d="M633.4,92l0.2,5.5l1.9-0.7c0.1-2.4,0-4.7-0.5-5.4L633.4,92z"/>
			<path class="st89" d="M581.2,117.1l-0.4,11.3l11.5,0c-0.1-0.9-1.2-12.1,1.7-14.3c3-2.2,3.6-10.1,3.6-10.1s-3.3-5.8-3.9-7.2
				s-6-3.4-6-3.4c-0.1-0.5-0.2-1.1-0.1-1.6c-0.3,0.3-0.5,0.7-0.7,1.1c-0.4,2,0.1,3.5,2,5c0.2,0.1,0.3,0.3,0.5,0.4
				c0.3,0.2,0.6,0.4,1,0.6l0.2,0.1c3.3,1.8,3.7,4.1,3.7,4.1c0.9,1.9,1.1,4.1,0.4,6.1C593.9,112.4,581.2,117.1,581.2,117.1z"/>
			<path class="st113" d="M581.8,117.1l-0.4,11.3l13,0c0,0,0.5-4.2-0.1-6.1c-0.5-1.9,1-8.4,1-8.4c6.5-4.6,4.6-9.8,4.6-9.8
				s16.1,0.7,16.4,0.2c0.4-0.4,6.1-2.1,6.1-2.1s5.9-0.3,6.9-1c0.3-0.2,0.7-0.5,1.1-0.6c0.1-0.1,0.2-0.1,0.3-0.1l-0.3,3.7l0.2,0
				c0.9,0.1,1.8-0.1,2.6-0.5c1.5-0.7,2.1-11.8,0.9-12.4c-0.2-0.1-0.5-0.2-0.7-0.1c-1,0.1-2.1,0.4-3,0.9l-0.3,0.1l-0.1,0.1
				c0,0-7.6,1.3-9.3,2.3S608,94.8,608,94.8s-5.1,0.2-5.6-0.7c-0.5-0.8-7.7-3.5-8.6-2.5c-0.9,1-2.5,0.4-2.5,0.4
				c-0.9-1.7-1.9-1.3-2.6-0.6c-0.4,0.4-0.7,0.9-1,1.4c-0.4,2.2,0.2,3.8,2.6,5.4c0.4,0.2,0.8,0.5,1.2,0.7c3.3,1.8,3.7,4.1,3.7,4.1
				c0.9,1.9,1.1,4.1,0.4,6.1C594.5,112.4,581.8,117.1,581.8,117.1z"/>
			<path class="st89" d="M633.6,91.2c0.1,0,0.3,0.1,0.4,0.1c1.2,0.6,0.6,11.7-0.9,12.5c-0.7,0.4-1.6,0.5-2.4,0.5l-0.2,0l0.3-3.7
				c-0.1,0-0.2,0.1-0.3,0.1l0-0.2c1.2-2.7,1.2-5.7-0.1-8.3L633.6,91.2z"/>
			<path class="st113" d="M630.8,100.5l-0.3,3.7c1,0.1,2,0,2.9-0.5c1.5-0.7,2.1-11.8,0.9-12.4c-0.9-0.5-2.9,0.4-3.7,0.7
				C632,94.7,632.1,97.8,630.8,100.5z"/>
			<path class="st113" d="M590.3,98.2l2.1-1.3l-3.7-5.5c-0.4,0.4-0.7,0.9-1,1.4C587.3,95.1,587.9,96.7,590.3,98.2z"/>
			<path class="st89" d="M582.2,74.2c0.6,0.6,1,1.4,1.8,1.7c0.6,0.1,1.2,0.1,1.7-0.1c1.5-0.3,3.1-0.5,4.4,0.3
				c1.9,1.1,2.5,3.6,4.3,4.7c0.6,0.3,1.2,0.5,1.9,0.5c1.4,0,2.6-0.8,3.2-2c0.1-0.3,0.2-0.6,0.3-0.9c0,0.6-0.1,1.1-0.3,1.6
				c-0.4,0.8-1.1,1.5-2,1.8c-0.4,0.1-0.8,0.2-1.2,0.2c-0.7,0-1.3-0.2-1.9-0.5c-1.9-1.1-2.5-3.6-4.3-4.7c-1.3-0.7-2.9-0.6-4.4-0.3
				c-0.6,0.2-1.2,0.2-1.7,0.1c-0.8-0.3-1.2-1.1-1.8-1.7c0.1-0.9-2.5-0.6-2.5-1.7c0-0.2,0-0.3,0.1-0.5
				C580,73.6,582.3,73.4,582.2,74.2z"/>
			<path class="st89" d="M584.4,100.5c0,0-1.6,2.6-0.5,3.8c0,0-0.6-4-1.4-4"/>
			<path class="st110" d="M651.5,86c0,0-7.5,4.2-3.1,6.1C652.9,93.9,651.5,86,651.5,86z"/>
		</g>
		<polygon class="st89" points="315,418.2 418.7,444.3 502,376.5 502,334.8 316.9,288.3 		"/>
		<polygon class="st89" points="689,418.2 585.3,444.3 502,376.5 502,334.8 687.1,288.3 		"/>
		<polygon class="st88" points="317.4,284.9 222.4,363.4 407.5,409.9 502.5,334.3 		"/>
		<polygon class="st88" points="687.6,284.9 783.5,363.4 599.4,409.9 502.5,334.3 		"/>
		<polygon class="st101" points="687.6,284.9 783.5,363.4 599.4,409.9 502.5,334.3 		"/>
	</g>
	<g>
		<ellipse class="st0" cx="343.2" cy="544.2" rx="11.5" ry="1.6"/>
		<ellipse class="st0" cx="299.3" cy="548.7" rx="11.5" ry="1.6"/>
		<ellipse class="st0" cx="247.6" cy="542.7" rx="11.5" ry="1.6"/>
		<ellipse class="st0" cx="316.9" cy="561.4" rx="8.1" ry="1.1"/>
		<ellipse class="st0" cx="271.3" cy="560.2" rx="8.1" ry="1.1"/>
		<path class="st94" d="M299.1,548.3c0,0,16.1-52.7-2.5-73.8c-13.9-15.8-29.7-13.9-36.7-11.9c-3.7,1-6.8,3.5-8.4,7
			c-2.5,5.3-2,14,15.4,24.1c29.2,16.9,31,40.1,31,40.1L299.1,548.3z"/>
		<path class="st116" d="M262.3,470.1c0,0,47.4,14.8,36.7,78.2"/>
		<path class="st116" d="M290,475.4c0,0-6.5,4.4-4.5,11"/>
		<path class="st116" d="M267.1,479.3c0,0,4-4.1,8.8-1.8"/>
		<path class="st116" d="M285.9,499.7c0,0,7-3.5,8.8,0.9"/>
		<path class="st116" d="M303.1,507.1c0,0-5.3-0.4-5.4,2.1"/>
		<path class="st94" d="M299.7,548.8c0,0-18.8-38.3-24-37.4c-2.5,0.4-3.6,2.8-4.1,5.2c-0.6,3.1-0.3,6.4,1,9.3
			C275.3,532,282.5,543.7,299.7,548.8z"/>
		<path class="st116" d="M275.9,518.6c0,0,19.8,28.6,23.6,29.9"/>
		<line class="st116" x1="274.1" y1="523.1" x2="278.7" y2="523.1"/>
		<line class="st116" x1="279.6" y1="533.5" x2="286.8" y2="533.8"/>
		<line class="st116" x1="284" y1="525.2" x2="283.2" y2="528.9"/>
		<line class="st116" x1="291.7" y1="536.6" x2="291.5" y2="540"/>
		<path class="st94" d="M299.2,548.8c0,0,18.8-38.3,24-37.4c2.5,0.4,3.6,2.8,4.1,5.2c0.6,3.1,0.3,6.4-1,9.3
			C323.6,532,316.4,543.7,299.2,548.8z"/>
		<path class="st116" d="M323,518.6c0,0-19.8,28.6-23.6,29.9"/>
		<line class="st116" x1="324.8" y1="523.1" x2="320.2" y2="523.1"/>
		<line class="st116" x1="319.3" y1="533.5" x2="312.1" y2="533.8"/>
		<line class="st116" x1="314.9" y1="525.2" x2="315.7" y2="528.9"/>
		<line class="st116" x1="307.2" y1="536.6" x2="307.4" y2="540"/>
		<path class="st94" d="M266.9,557.7c-0.5-0.4-0.9-1-1.1-1.6c-0.2-0.7,0.1-1.3,0.8-1.6c0.7-0.3,1.4,0.2,2,0.7
			c0.5,0.6,1.2,0.9,1.9,0.9c-0.8-0.7-1.1-1.7-0.9-2.7c0-0.2,0.1-0.4,0.3-0.6c0.4-0.4,1.1-0.2,1.5,0.1c1.5,1,1.9,3,1.9,4.8
			c0.1-0.7,0.1-1.3,0-2c-0.1-0.7,0.2-1.3,0.7-1.7c0.3-0.2,0.7-0.3,1.1-0.3c0.7-0.1,1.3,0.1,1.8,0.5c0.5,0.7,0.5,1.6-0.1,2.3
			c-0.5,0.6-1.2,1.1-1.9,1.5c-0.5,0.3-1,0.8-1.4,1.3c0,0.1-0.1,0.1-0.1,0.2h-4.1C268.5,559,267.6,558.4,266.9,557.7z"/>
		<path class="st94" d="M338.6,542.3c-0.5-0.4-0.9-1-1.1-1.6c-0.2-0.7,0.1-1.3,0.8-1.7c0.7-0.1,1.5,0.1,2,0.7
			c0.5,0.6,1.2,0.9,1.9,0.9c-0.8-0.7-1.1-1.7-0.9-2.7c0-0.2,0.1-0.4,0.3-0.5c0.4-0.4,1.1-0.2,1.5,0.1c1.5,1,1.9,3,1.9,4.8
			c0.1-0.7,0.1-1.3,0-2c-0.1-0.7,0.2-1.3,0.7-1.7c0.3-0.2,0.7-0.3,1.1-0.3c0.7-0.1,1.3,0.1,1.8,0.5c0.5,0.7,0.5,1.6-0.1,2.2
			c-0.5,0.6-1.2,1.1-1.9,1.5c-0.5,0.3-1,0.8-1.4,1.3c0,0.1-0.1,0.1-0.1,0.2h-4.1C340.2,543.5,339.3,543,338.6,542.3z"/>
		<path class="st94" d="M314.7,557.7c-0.5-0.4-0.9-1-1.1-1.6c-0.2-0.7,0.1-1.3,0.8-1.6c0.7-0.3,1.4,0.2,2,0.7
			c0.5,0.6,1.2,0.9,1.9,0.9c-0.8-0.7-1.1-1.7-0.9-2.7c0-0.2,0.1-0.4,0.3-0.6c0.4-0.4,1.1-0.2,1.5,0.1c1.5,1,1.9,3,1.9,4.8
			c0.1-0.7,0.1-1.3,0-2c-0.1-0.7,0.2-1.3,0.7-1.7c1-0.4,2.1-0.3,3,0.3c0.5,0.7,0.5,1.6-0.1,2.3c-0.5,0.6-1.2,1.1-1.9,1.5
			c-0.5,0.3-1,0.8-1.4,1.3c0,0.1-0.1,0.2-0.1,0.2h-4.1C316.3,559,315.4,558.4,314.7,557.7z"/>
		<path class="st94" d="M246.9,526.5c0,0-1.5,2,0.7,5s4.1,5.6,3.4,7.5c0,0-3.4-5.6-6.1-5.7C242,533.2,243.9,529.9,246.9,526.5z"/>
		<path class="st89" d="M246.9,526.5c-0.1,0.2-0.2,0.4-0.3,0.6c-2.7,3.1-4.1,6.1-1.5,6.2c2.4,0.1,5.3,4.4,6,5.5c0,0.1,0,0.2-0.1,0.3
			c0,0-3.4-5.6-6.1-5.7C242,533.3,243.9,529.9,246.9,526.5z"/>
		<path class="st117" d="M244,529.1c0,0.7,0.1,1.3,0.2,1.3s0.2-0.6,0.2-1.3c0-0.7-0.1-0.4-0.2-0.4S244,528.4,244,529.1z"/>
		<path class="st117" d="M243.1,529.9c0.6,0.3,1.2,0.5,1.2,0.5c0-0.1-0.4-0.4-1-0.8s-0.4-0.1-0.4,0
			C242.8,529.7,242.4,529.7,243.1,529.9z"/>
		<path class="st94" d="M255,526.5c0,0,1.5,2-0.7,5s-4.1,5.6-3.3,7.5c0,0,3.4-5.6,6.1-5.7C259.9,533.2,258,529.9,255,526.5z"/>
		<path class="st89" d="M255,526.5c0.1,0.2,0.2,0.4,0.3,0.6c2.7,3.1,4.1,6.1,1.5,6.2c-2.4,0.1-5.3,4.4-6,5.5c0,0.1,0,0.2,0.1,0.3
			c0,0,3.4-5.6,6.1-5.7C259.8,533.3,258,529.9,255,526.5z"/>
		<path class="st117" d="M257.9,529.1c0,0.7-0.1,1.3-0.2,1.3s-0.2-0.6-0.2-1.3c0-0.7,0.1-0.4,0.2-0.4S257.9,528.4,257.9,529.1z"/>
		<path class="st117" d="M258.9,529.9c-0.6,0.3-1.2,0.5-1.2,0.5c0-0.1,0.4-0.4,1-0.8s0.4-0.1,0.4,0
			C259.1,529.7,259.5,529.7,258.9,529.9z"/>
		<path class="st118" d="M257.4,538.8c0,0-4.3-0.1-5.6-1s-6.6-2-6.9-0.5s-6.5,7.3-1.6,7.4c4.8,0,11.3-0.8,12.5-1.5
			C257.1,542.3,257.4,538.8,257.4,538.8z"/>
		<path class="st119" d="M243.2,544.1c4.8,0,11.3-0.8,12.5-1.5c1-0.6,1.4-2.8,1.5-3.7h0.1c0,0-0.3,3.5-1.6,4.3
			c-1.3,0.8-7.7,1.6-12.5,1.5c-1.4,0-1.9-0.5-1.9-1.3C241.6,543.8,242.1,544.1,243.2,544.1z"/>
	</g>
	<ellipse class="st0" cx="195.2" cy="496.4" rx="34.7" ry="5.1"/>
	<ellipse class="st0" cx="292.1" cy="538.9" rx="34.7" ry="5.1"/>
	<ellipse class="st0" cx="149.5" cy="587.2" rx="34.7" ry="5.1"/>
	<ellipse class="st0" cx="885.1" cy="693.4" rx="34.7" ry="5.1"/>
	<ellipse class="st0" cx="491.1" cy="575.3" rx="23" ry="2.6"/>
	<ellipse class="st0" cx="820.1" cy="443.3" rx="23" ry="2.6"/>
	<ellipse class="st0" cx="641.1" cy="638.3" rx="23" ry="2.6"/>
	<ellipse class="st0" cx="442.6" cy="621.4" rx="23" ry="2.6"/>
	<ellipse class="st0" cx="256.7" cy="614.7" rx="23" ry="2.6"/>
	<ellipse class="st0" cx="208.2" cy="660.7" rx="23" ry="2.6"/>
	<ellipse class="st0" cx="733" cy="571.3" rx="57" ry="10.3"/>
	
		<linearGradient id="SVGID_89_" gradientUnits="userSpaceOnUse" x1="2418.6008" y1="135.5634" x2="2418.6008" y2="418.1552" gradientTransform="matrix(-1 0 0 -1 3153.76 710.8)">
		<stop  offset="0" style="stop-color:#808080;stop-opacity:0.25"/>
		<stop  offset="0.54" style="stop-color:#808080;stop-opacity:0.12"/>
		<stop  offset="1" style="stop-color:#808080;stop-opacity:0.1"/>
	</linearGradient>
	<path class="st120" d="M701,440.5c2.9,1.7,7.4,2.8,13.1-0.9l0,8.1c0.4,5.6,7.3,25.8,7.3,25.8l4.8,16.7c3.5,11.8,5.3,24,5.3,36.3
		c0,4.1,0.4,8.3,1.5,11.4c2.6,7-1,16-2.6,19.3c-2.6,0.9-5.3,1.6-8,2.3c-0.2,0.1-0.5,0.1-0.7,0.2v0c0,0-7.3,2.9-10.5,2.5
		c-2.4-0.3-3.9,2.7-2,4.9c-1.6,0.5-3.2,0.7-4.8,0.6c-3.2-0.4-4.9,5.2,1.2,6.8s40.5,0,40.5,0c2-1,3-3.2,2.6-5.4l4.3-0.2
		c0,0,6.1-2.8,0-10.3l-0.3,0.2l-1.3-3.8v-5.1c0,0,7.7-37,5.3-41.3s-3.7-26.7-3.7-26.7l0.8-24.2c2.2-4.5,3.3-11.6,3.9-17.2
		c0.8-2.6,1.3-5.4,1.5-8.1c0.1-1.3,0.2-2.7,0.2-4.1c0-3.1-0.5-6.2-1.5-9.2c2.7-4.1,5.8-7.9,9.2-11.5c2.8-2.6,4.2-6.5,3.7-10.3
		l-2-13.5l-4.9-23c0.6-6.4-0.7-10.1-2.2-12.1c0.3-2.1,0.7-4.1,0.9-6.2c1.1-9,0.6-18.1-1.4-27c-0.7-3.1-1.7-6.3-3.8-8.6
		c-2.5-2.7-6.4-4.3-7.3-7.7c-0.1-0.9-0.3-1.8-0.6-2.6c-0.9-2.3-3.7-3.1-6.2-3.4c-4.4-0.5-10.7-0.9-14.9,0.8c-3.7,1.6-6.7,4.5-8.6,8
		c-0.9,1.5-1.3,3.2-1,5c0.1,0.6,0.4,1.2,0.7,1.7c-2.9,7.9,1.1,16.7,8.9,19.7c0.1,0.3,0.2,0.6,0.3,0.9c0.2,0.7,0.3,1.4,0.4,2.2
		c-0.1,1.4-0.2,2.8-0.2,4.2l-0.2,0.6c-3.5,1.5-6.9,3.3-10.2,5.2c2.4,3.6-0.4,18.7-0.4,18.7c-6.1,3.6-12.1,12.7-5.7,22.3
		s2.8,19.9,2.8,19.9l-1,15.5l0,0l0,0l-0.2,3.1h0.1l-0.1,1.2h0.2v1.3c-2.8,1-7,3.1-9.5,7c-1.2,1.9-2.6,3.7-4.2,5.2
		c-1.3,1.1-1.5,3.1-0.3,4.4C700.4,440.1,700.7,440.3,701,440.5z M749.9,399.2c-0.2-2.7,0.3-5.4,1.4-7.8h2.9c0.1,0.6,0.2,1.3,0.3,1.9
		C755.4,396.8,752.1,398.5,749.9,399.2z"/>
	<path class="st121" d="M750.7,553.2l1.6,4.7l-5.1,5.1l-16.7,3.9l-12.1-1.2l0.8-4.3l0,0c0.5-1.9,1.9-3.3,3.8-3.8
		c5-1.2,14.4-3.8,16.4-7.5L750.7,553.2z"/>
	<path class="st89" d="M750.7,553.2l1.6,4.7l-5.1,5.1l-16.7,3.9l-12.1-1.2l0.8-4.3l0,0c0.5-1.9,1.9-3.3,3.8-3.8
		c5-1.2,14.4-3.8,16.4-7.5L750.7,553.2z"/>
	<path class="st122" d="M722.3,564.5l2.3-3.1l-2.3-3.6c0,0-7,2.8-10.1,2.4s-4.7,5.1,1.2,6.6s38.9,0,38.9,0s5.8-2.7,0-10.1l-5.1,3.9
		c0,0-8.6,4.7-12.8,3.9L722.3,564.5z"/>
	<path class="st121" d="M711.8,571.1l12.1,1.2l16.7-3.9l5.1-5.1l-0.4-1.2l-0.6-1.7l-0.6-1.7l-11.3-3.1c-0.6,0.9-1.4,1.7-2.3,2.3
		c-3.7,2.5-10.3,4.3-14.1,5.2c-0.2,0-0.3,0.1-0.5,0.2c-0.8,0.2-1.4,0.7-2,1.2c-0.7,0.7-1.2,1.5-1.4,2.4L711.8,571.1z"/>
	<path class="st89" d="M711.8,571.1l12.1,1.2l16.7-3.9l5.1-5.1l-0.4-1.2l-4.7,3.6c0,0-8.6,4.7-12.8,3.9h-12.1l2.3-3.1l-2.1-3.2
		c-0.8,0.2-1.4,0.7-2,1.2c-0.7,0.7-1.2,1.5-1.4,2.4L711.8,571.1z"/>
	<path class="st122" d="M715.6,570l2.3-3.1l-2.3-3.6c0,0-7,2.8-10.1,2.4s-4.7,5.1,1.2,6.6s38.9,0,38.9,0s5.8-2.7,0-10.1l-5.1,3.9
		c0,0-8.6,4.7-12.8,3.9L715.6,570z"/>
	<path class="st121" d="M725.4,344.2c0,0,18.7,2,16-5.8c-0.8-2.2-1-4.6-0.6-6.9c0.5-2.9,1.6-5.6,3.3-7.9l-17.5,2.7
		c1.1,1.8,1.9,3.7,2.4,5.6C731,340.2,725.4,344.2,725.4,344.2z"/>
	<path class="st123" d="M757.3,432.9c0,0-0.4,16.7-4.3,24.9l-0.8,23.8c0,0,1.2,21.8,3.5,26.1s-5.1,40.5-5.1,40.5v6.2
		c0,0-12.5,4.7-16-0.8l3.5-46.3l-1.6-64.2L757.3,432.9z"/>
	<path class="st89" d="M757.3,432.9c0,0-0.4,16.7-4.3,24.9l-0.8,23.8c0,0,1.2,21.8,3.5,26.1s-5.1,40.5-5.1,40.5v6.2
		c0,0-12.5,4.7-16-0.8l3.5-46.3l-1.6-64.2L757.3,432.9z"/>
	<path class="st124" d="M765.1,379.2l2.3,6.2l2,13.2c0.5,3.7-0.8,7.5-3.5,10.1c-4.7,4.7-10.9,14.4-10.9,14.4l-7.4-22.2
		c0,0,7.4-1.2,6.2-6.2s-0.8-14.4-0.8-14.4L765.1,379.2z"/>
	<path class="st91" d="M765.2,379.1l2.3,6.2l2,13.2c0.5,3.7-0.8,7.5-3.5,10.1c-4.7,4.7-10.9,14.4-10.9,14.4l-7.4-22.2
		c0,0,7.4-1.2,6.2-6.2s-0.8-14.4-0.8-14.4L765.2,379.1z"/>
	<path class="st89" d="M730.5,557.9c5,7.9,12.8,3.4,14.2,2.5l-0.6-1.7l-11.3-3.2C732.2,556.5,731.4,557.3,730.5,557.9z"/>
	<path class="st123" d="M714.9,448.1c0.4,5.4,7,25.3,7,25.3l4.7,16.3c3.3,11.6,5.1,23.5,5.1,35.5c-0.1,3.8,0.4,7.6,1.5,11.2
		c3.1,8.6-3.1,20.2-3.1,20.2c5.5,9.7,14.8,3.1,14.8,3.1v-6.2c0,0,7.4-33.9,5.5-40.5s-2.7-24.5-2.7-24.5v-32.3
		c6.2-6.2,10-14.5,10.7-23.2c0.1-1.3,0.2-2.6,0.2-4c0.3-8.8-5.7-19.1-8-22.8c-0.6-0.9-0.9-1.4-0.9-1.4l-34.4,13.6h-0.1v1.3v2.9
		L714.9,448.1z"/>
	<path class="st89" d="M726.5,326.3c1.1,1.8,1.9,3.7,2.4,5.6c3.8,1.5,8.1,1.3,11.8-0.4c0.5-2.9,1.6-5.6,3.3-7.9L726.5,326.3z"/>
	<circle class="st121" cx="734.3" cy="316.9" r="15.2"/>
	<path class="st89" d="M714.9,422.8h0.2c16.3,3.4,36.8-13.6,36.8-13.6c-0.5-0.9-1-1.9-1.4-2.9c-0.6-0.9-0.9-1.4-0.9-1.4l-34.4,13.6
		l-0.1,1.4L714.9,422.8z"/>
	<path class="st124" d="M719.2,343.8c0,0,21.8-13.2,28.8-7.8l9.7,12.5c0,0,6.2,2,5.1,14.5l4.7,22.6l-14,3.5c0,0-8.2,7.8-1.5,19.1
		c0,0-20.6,17.1-37,13.6l1.2-18.3c0,0,3.5-10.1-2.7-19.5s-0.4-18.3,5.5-21.8C718.8,362.1,721.5,347.3,719.2,343.8z"/>
	<path class="st121" d="M718,423.2c0,0-8.2,1.6-12.1,7.8c-1.1,1.9-2.5,3.6-4.1,5.1c-1.3,1.1-1.3,3.1-0.2,4.4
		c0.2,0.2,0.4,0.4,0.7,0.6c3.1,1.9,8.1,3,14.5-2.2C727.8,429.8,718,423.2,718,423.2z"/>
	<path class="st89" d="M730,351.2c0,0,7.8-0.8,9.7,19.5s5.1,24.9,5.1,24.9s2,10.5-2.7,16.7s-13.6,19.5-13.6,19.5s-9.7,2.7-11.7-7
		l12.1-22.6c0,0,1.9-7.8-2.7-13.2S718,347.3,730,351.2z"/>
	<path class="st124" d="M729.3,350c0,0,7.8-0.8,9.7,19.5s5.1,24.9,5.1,24.9s2,10.5-2.7,16.7s-13.6,19.5-13.6,19.5s-9.7,2.7-11.7-7
		l12.1-22.6c0,0,2-7.8-2.7-13.2S717.2,346.1,729.3,350z"/>
	<path class="st89" d="M722.8,364.6c0,0-0.8,12.1,2.7,18.7s3.5,15.2,0,19.9"/>
	<path class="st89" d="M720.9,349.8c0,0,3.1-3.1,12.1-3.5s12.8-3.1,12.8-3.1"/>
	<path class="st89" d="M742.5,297.3c2.4,0.3,5.1,1.1,5.9,3.3c0.2,0.8,0.4,1.7,0.5,2.6c0.9,3.4,4.7,5,7.1,7.6c2.1,2.3,3,5.4,3.7,8.4
		c1.9,8.7,2.4,17.6,1.4,26.5c-0.8,6.5-2.3,12.8-2.8,19.3s0.4,13.3,3.9,18.8c1.5,2.3,3.5,4.4,4.6,7c-2.2,1.8-5.3,2.1-8.2,2.2
		c-3.3,0.1-6.7,0.1-10,0c-1.8,0.1-3.5-0.3-5.1-1.1c-1.1-0.7-2-1.7-2.7-2.9c-1.9-3.3-2.4-7.2-2.3-10.9s0.7-7.5,0.8-11.3
		c0.2-2.1-0.3-4.1-1.3-5.9c-1-1.1-2.1-2.1-3.3-3c-4.2-3.7-5.6-9.6-5.7-15.2s0.8-11.1,0.3-16.7c-0.2-2.2-1-4.8-3.1-5.2
		c-0.7,0-1.3-0.1-2-0.3c-1.7-0.7-1.5-3.1-2-4.8c-0.5-2-2.3-3.5-2.7-5.5c-1.1-4.7,4.9-10.3,8.8-12S738.3,296.8,742.5,297.3z"/>
	<path class="st125" d="M742.9,296.5c2.4,0.3,5.1,1.1,5.9,3.3c0.2,0.8,0.4,1.7,0.5,2.6c0.9,3.4,4.7,5,7.1,7.6c2.1,2.3,3,5.4,3.7,8.4
		c1.9,8.7,2.4,17.6,1.4,26.5c-0.8,6.5-2.3,12.8-2.7,19.3s0.4,13.3,3.9,18.8c1.5,2.4,3.5,4.4,4.6,7c-2.2,1.8-5.3,2.1-8.2,2.2
		c-3.3,0.1-6.7,0.1-10,0c-1.8,0.1-3.5-0.3-5.1-1.1c-1.1-0.7-2-1.7-2.7-2.9c-1.9-3.3-2.4-7.2-2.3-10.9s0.7-7.5,0.8-11.3
		c0-2.1-0.1-4.2-1.3-5.9c-1-1.1-2.1-2.1-3.3-3c-4.2-3.7-5.6-9.6-5.7-15.2s0.8-11.1,0.3-16.7c-0.2-2.2-1-4.8-3.1-5.2
		c-0.7,0-1.3-0.1-2-0.3c-1.7-0.7-1.5-3.1-2-4.8c-0.5-2-2.3-3.5-2.7-5.5c-1.1-4.7,4.9-10.3,8.8-12S738.8,296,742.9,296.5z"/>
	<path class="st118" d="M128,572.8c0,0,10.7-0.3,13.9-2.6s16.5-5,17.3-1.4c0.8,3.7,16.1,18.3,4,18.4s-28.1-1.9-31.3-3.8
		C128.7,581.4,128,572.8,128,572.8z"/>
	<path class="st119" d="M163.5,585.9c-12.1,0.1-28.1-1.9-31.3-3.8c-2.5-1.5-3.4-6.9-3.8-9.3H128c0,0,0.7,8.6,3.9,10.6
		s19.2,3.9,31.3,3.8c3.5,0,4.7-1.3,4.6-3.1C167.4,585.2,166.1,585.9,163.5,585.9z"/>
	<path class="st118" d="M808.9,432.1c0,0,7.3-0.2,9.6-1.8s11.3-3.5,11.9-0.9s11.1,12.6,2.8,12.7s-19.3-1.3-21.5-2.6
		S808.9,432.1,808.9,432.1z"/>
	<path class="st119" d="M833.3,441.2c-8.3,0.1-19.3-1.3-21.5-2.6c-1.7-1-2.4-4.7-2.6-6.4h-0.3c0,0,0.5,5.9,2.7,7.3
		s13.2,2.7,21.5,2.6c2.4,0,3.2-0.9,3.2-2.1C836,440.7,835,441.1,833.3,441.2z"/>
	<circle class="st0" cx="118.5" cy="131.2" r="21.6"/>
	<circle class="st0" cx="930.2" cy="127.6" r="21.6"/>
	<circle class="st0" cx="103.2" cy="215.7" r="16"/>
	<circle class="st0" cx="265.2" cy="125.7" r="16"/>
	<circle class="st0" cx="802.9" cy="62.2" r="16"/>
	<path class="st126" d="M889.6,646.4c0,0,4,5.2-1.8,13.2s-10.7,14.6-8.7,19.5c0,0,8.8-14.7,16-14.9S897.5,655.2,889.6,646.4z"/>
	<path class="st89" d="M889.6,646.4c0.3,0.5,0.6,1.1,0.8,1.7c7,8.2,10.8,15.9,4,16.1c-6.3,0.2-13.8,11.4-15.6,14.3
		c0.1,0.2,0.1,0.4,0.2,0.6c0,0,8.8-14.7,16-14.9S897.5,655.2,889.6,646.4z"/>
	<path class="st117" d="M897.1,653.1c0,1.8-0.2,3.3-0.5,3.3s-0.5-1.5-0.5-3.3s0.3-1,0.5-1S897.1,651.2,897.1,653.1z"/>
	<path class="st117" d="M899.6,655.3c-1.6,0.9-3,1.4-3.2,1.2s1.1-1.1,2.7-2s1-0.2,1.1,0S901.2,654.4,899.6,655.3z"/>
	<path class="st126" d="M868.5,646.4c0,0-4,5.2,1.8,13.2s10.7,14.6,8.7,19.5c0,0-8.8-14.7-16-14.9S860.5,655.2,868.5,646.4z"/>
	<path class="st89" d="M868.5,646.4c-0.3,0.5-0.6,1.1-0.8,1.7c-7,8.2-10.8,15.9-4,16.1c6.3,0.2,13.8,11.4,15.6,14.3
		c-0.1,0.2-0.1,0.4-0.2,0.6c0,0-8.8-14.7-16-14.9S860.5,655.2,868.5,646.4z"/>
	<path class="st117" d="M861,653.1c0,1.8,0.2,3.3,0.5,3.3s0.5-1.5,0.5-3.3s-0.3-1-0.5-1S861,651.2,861,653.1z"/>
	<path class="st117" d="M858.5,655.3c1.6,0.9,3,1.4,3.2,1.2s-1.1-1.1-2.7-2s-1-0.2-1.1,0S856.8,654.4,858.5,655.3z"/>
	<path class="st118" d="M862.3,678.4c0,0,11.2-0.3,14.6-2.8s17.2-5.3,18.1-1.4s16.8,19.2,4.2,19.3s-29.4-2-32.7-4
		S862.3,678.4,862.3,678.4z"/>
	<path class="st119" d="M899.3,692.1c-12.7,0.1-29.4-2-32.8-4c-2.6-1.6-3.6-7.2-3.9-9.8h-0.4c0,0,0.7,9,4.1,11.1s20.1,4.1,32.7,4
		c3.7,0,4.9-1.3,4.8-3.3C903.5,691.4,902,692.1,899.3,692.1z"/>
	<path class="st94" d="M158.3,685.5c-4.9-2.6-10.2-4.5-15.6-5.5c4-0.5,7.9-1.4,11.7-2.6c10.2-3.2,15.3-7.5,11.5-9.7
		s-15.2-1.2-25.4,2c-3.4,1-6.7,2.4-9.8,4.3c-1.1-2.2-3.9-4.8-8.4-7.3c-9-5-21.2-7.5-27.1-5.6s-3.4,7.4,5.6,12.4
		c4.4,2.4,9.1,4.1,14,5.2c-3.2,0.4-6.5,0.9-9.6,1.7c-11.1,2.7-17.5,6.7-14.3,9s14.7,2,25.8-0.6c4-0.9,7.9-2.2,11.6-4.1
		c0.9,2.3,3.8,5,8.5,7.6c9,5,21.2,7.5,27.1,5.6S167.3,690.5,158.3,685.5z"/>
	<path class="st94" d="M222,612.5c-2.4-1.3-4.9-2.2-7.6-2.7c1.9-0.3,3.8-0.7,5.7-1.3c4.9-1.6,7.4-3.7,5.6-4.7s-7.4-0.6-12.3,1
		c-1.7,0.5-3.3,1.2-4.7,2.1c-0.5-1.1-1.9-2.3-4.1-3.5c-4.4-2.4-10.3-3.6-13.2-2.7s-1.7,3.6,2.7,6c2.1,1.2,4.4,2,6.8,2.5
		c-1.6,0.2-3.1,0.5-4.7,0.8c-5.4,1.3-8.5,3.2-6.9,4.3s7.1,1,12.5-0.3c2-0.4,3.9-1.1,5.6-2c0.4,1.1,1.9,2.4,4.1,3.7
		c4.4,2.4,10.3,3.6,13.2,2.7S226.4,614.9,222,612.5z"/>
</g>
</svg>
