<?xml version="1.0" encoding="utf-8"?>
<!-- Generator: Adobe Illustrator 19.2.1, SVG Export Plug-In . SVG Version: 6.00 Build 0)  -->
<svg version="1.1" id="Camada_1" xmlns="http://www.w3.org/2000/svg" xmlns:xlink="http://www.w3.org/1999/xlink" x="0px" y="0px"
	 viewBox="0 0 191.6 36.5" style="enable-background:new 0 0 191.6 36.5;" xml:space="preserve">
<style type="text/css">
	.st0{fill:#F63854;}
</style>
<title>logo</title>
<path class="st0" d="M33.8,36.5H7.2c-1.5,0-2.7-1.2-2.7-2.7l0,0l0,0v-0.5h28.8V4.4h0.5c1.5,0,2.7,1.2,2.7,2.7c0,0,0,0,0,0l0,0v26.6
	C36.5,35.3,35.3,36.5,33.8,36.5C33.8,36.5,33.8,36.5,33.8,36.5L33.8,36.5z M5.5,34.3c0.2,0.7,0.9,1.2,1.7,1.2h26.6
	c0.9,0,1.7-0.8,1.7-1.7c0,0,0,0,0,0l0,0V7.2c0-0.8-0.5-1.4-1.2-1.7v28.8H5.5z M29.3,32.1H2.7c-1.5,0-2.7-1.2-2.7-2.7V2.7
	C0,1.2,1.2,0,2.7,0h26.6c1.5,0,2.7,1.2,2.7,2.7c0,0,0,0,0,0l0,0v26.6C32.1,30.8,30.8,32.1,29.3,32.1L29.3,32.1L29.3,32.1L29.3,32.1z
	 M2.7,1C1.8,1,1,1.8,1,2.7l0,0l0,0v26.6c0,0.9,0.8,1.7,1.7,1.7h26.6c0.9,0,1.7-0.8,1.7-1.7l0,0V2.7c0-0.9-0.8-1.7-1.7-1.7H2.7z
	 M12.7,23.2c-2.1,0-3.8-1.7-3.8-3.8c0-2.1,1.7-3.8,3.8-3.8c0.2,0,0.5,0,0.7,0.1v-7l9.6,4.8l-0.2,0.9h-6.2v5
	C16.5,21.5,14.8,23.2,12.7,23.2L12.7,23.2L12.7,23.2z M12.7,16.5c-1.6,0-2.9,1.2-2.9,2.8c0,1.6,1.2,2.9,2.8,2.9
	c1.6,0,2.9-1.2,2.9-2.8v-6h5l-6.3-3.1V17l-0.7-0.2C13.3,16.6,13,16.6,12.7,16.5L12.7,16.5z"/>
<g>
	<path class="st0" d="M64.8,7.9v22.9h-1.4V11.3c0-0.3,0-0.6,0-0.9l-9,16c-0.2,0.3-0.4,0.4-0.6,0.4h-0.3c-0.3,0-0.5-0.1-0.6-0.4
		l-9.3-16c0,0.3,0,0.6,0,0.9v19.5h-1.5V7.9h1.1c0.2,0,0.3,0,0.4,0c0.1,0,0.2,0.1,0.3,0.3l9.2,15.9c0.2,0.3,0.3,0.6,0.4,1
		c0.1-0.2,0.1-0.3,0.2-0.5c0.1-0.2,0.2-0.3,0.2-0.5l9-15.9C63.1,8.1,63.2,8,63.3,8c0.1,0,0.2,0,0.4,0H64.8z"/>
	<path class="st0" d="M83,14.7v16.1h-0.9c-0.3,0-0.4-0.1-0.5-0.4L81.6,28c-0.7,0.9-1.6,1.7-2.6,2.2c-1,0.6-2.1,0.8-3.3,0.8
		c-0.9,0-1.7-0.1-2.3-0.4c-0.7-0.3-1.2-0.7-1.7-1.2c-0.4-0.5-0.8-1.2-1-1.9c-0.2-0.7-0.3-1.6-0.3-2.5V14.7h1.6V25
		c0,1.5,0.3,2.7,1,3.6c0.7,0.9,1.7,1.3,3.2,1.3c1,0,2-0.3,2.9-0.8c0.9-0.5,1.7-1.3,2.4-2.2V14.7H83z"/>
	<path class="st0" d="M97.2,16.7c-0.1,0.2-0.2,0.2-0.4,0.2c-0.1,0-0.3-0.1-0.5-0.2c-0.2-0.1-0.4-0.3-0.7-0.5
		c-0.3-0.2-0.7-0.3-1.1-0.5c-0.5-0.1-1-0.2-1.7-0.2c-0.6,0-1.1,0.1-1.6,0.3c-0.5,0.2-0.9,0.4-1.2,0.7s-0.6,0.6-0.8,1
		c-0.2,0.4-0.3,0.8-0.3,1.2c0,0.5,0.1,0.9,0.4,1.3c0.3,0.3,0.6,0.6,1,0.9c0.4,0.2,0.9,0.4,1.4,0.6c0.5,0.2,1.1,0.3,1.6,0.5
		s1.1,0.4,1.6,0.6c0.5,0.2,1,0.5,1.4,0.8c0.4,0.3,0.8,0.7,1,1.1c0.3,0.5,0.4,1,0.4,1.6c0,0.7-0.1,1.4-0.4,2
		c-0.2,0.6-0.6,1.1-1.1,1.6c-0.5,0.4-1.1,0.8-1.8,1.1c-0.7,0.3-1.5,0.4-2.4,0.4c-1.1,0-2.1-0.2-2.9-0.5c-0.8-0.4-1.6-0.8-2.2-1.4
		l0.4-0.6c0.1-0.1,0.1-0.2,0.2-0.2c0.1,0,0.2-0.1,0.3-0.1c0.1,0,0.3,0.1,0.5,0.3c0.2,0.2,0.5,0.4,0.8,0.6c0.3,0.2,0.7,0.4,1.2,0.6
		c0.5,0.2,1.1,0.3,1.8,0.3c0.7,0,1.3-0.1,1.8-0.3c0.5-0.2,0.9-0.4,1.3-0.8c0.3-0.3,0.6-0.7,0.8-1.1c0.2-0.4,0.3-0.9,0.3-1.4
		c0-0.5-0.1-1-0.4-1.3c-0.3-0.4-0.6-0.7-1-0.9c-0.4-0.2-0.9-0.5-1.4-0.6c-0.5-0.2-1.1-0.3-1.6-0.5c-0.6-0.2-1.1-0.4-1.6-0.6
		c-0.5-0.2-1-0.5-1.4-0.8c-0.4-0.3-0.8-0.7-1-1.1c-0.3-0.4-0.4-1-0.4-1.7c0-0.6,0.1-1.1,0.4-1.6c0.2-0.5,0.6-1,1.1-1.4
		c0.5-0.4,1-0.7,1.7-1c0.7-0.2,1.4-0.4,2.2-0.4c1,0,1.9,0.1,2.6,0.4c0.8,0.3,1.5,0.7,2.1,1.3L97.2,16.7z"/>
	<path class="st0" d="M104.4,9.2c0,0.2,0,0.4-0.1,0.5c-0.1,0.2-0.2,0.3-0.3,0.4c-0.1,0.1-0.3,0.2-0.5,0.3c-0.2,0.1-0.4,0.1-0.6,0.1
		c-0.2,0-0.4,0-0.6-0.1c-0.2-0.1-0.3-0.2-0.5-0.3c-0.1-0.1-0.2-0.3-0.3-0.4c-0.1-0.2-0.1-0.3-0.1-0.5c0-0.2,0-0.4,0.1-0.6
		c0.1-0.2,0.2-0.3,0.3-0.5c0.1-0.1,0.3-0.2,0.5-0.3c0.2-0.1,0.4-0.1,0.6-0.1c0.2,0,0.4,0,0.6,0.1c0.2,0.1,0.3,0.2,0.5,0.3
		c0.1,0.1,0.2,0.3,0.3,0.5C104.4,8.8,104.4,9,104.4,9.2z M103.8,14.7v16.1h-1.5V14.7H103.8z"/>
	<path class="st0" d="M120.1,16.9c-0.1,0.1-0.1,0.1-0.2,0.1c0,0-0.1,0.1-0.2,0.1c-0.1,0-0.3-0.1-0.4-0.2c-0.2-0.1-0.4-0.3-0.7-0.5
		c-0.3-0.2-0.7-0.3-1.2-0.5c-0.5-0.1-1-0.2-1.7-0.2c-0.9,0-1.7,0.2-2.5,0.5c-0.7,0.3-1.3,0.8-1.8,1.4c-0.5,0.6-0.9,1.4-1.1,2.2
		c-0.3,0.9-0.4,1.9-0.4,2.9c0,1.1,0.1,2.1,0.4,3c0.3,0.9,0.6,1.6,1.1,2.2c0.5,0.6,1.1,1.1,1.8,1.4c0.7,0.3,1.5,0.5,2.3,0.5
		c0.8,0,1.4-0.1,1.9-0.3c0.5-0.2,1-0.4,1.3-0.6c0.3-0.2,0.6-0.4,0.8-0.6c0.2-0.2,0.4-0.3,0.5-0.3s0.2,0.1,0.3,0.2l0.4,0.5
		c-0.2,0.3-0.6,0.6-0.9,0.9c-0.4,0.3-0.8,0.5-1.3,0.7c-0.5,0.2-1,0.4-1.5,0.5c-0.6,0.1-1.1,0.2-1.7,0.2c-1,0-2-0.2-2.8-0.6
		c-0.8-0.4-1.6-0.9-2.2-1.6c-0.6-0.7-1.1-1.6-1.4-2.6c-0.3-1-0.5-2.2-0.5-3.5c0-1.2,0.2-2.4,0.5-3.4c0.3-1,0.8-1.9,1.4-2.6
		s1.4-1.3,2.3-1.7c0.9-0.4,1.9-0.6,3.1-0.6c1,0,2,0.2,2.8,0.5c0.8,0.3,1.5,0.8,2.1,1.4L120.1,16.9z"/>
	<path class="st0" d="M145.2,19.3c0,1.8-0.3,3.4-0.8,4.8c-0.5,1.4-1.3,2.7-2.2,3.7c-1,1-2.1,1.8-3.5,2.4c-1.3,0.6-2.8,0.8-4.4,0.8
		s-3.1-0.3-4.4-0.8c-1.3-0.6-2.5-1.3-3.4-2.4c-1-1-1.7-2.2-2.2-3.7c-0.5-1.4-0.8-3-0.8-4.8c0-1.8,0.3-3.4,0.8-4.8
		c0.5-1.4,1.3-2.7,2.2-3.7c1-1,2.1-1.8,3.4-2.4c1.3-0.6,2.8-0.8,4.4-0.8s3.1,0.3,4.4,0.8c1.3,0.6,2.5,1.3,3.5,2.4
		c1,1,1.7,2.3,2.2,3.7C144.9,16,145.2,17.6,145.2,19.3z M143.5,19.3c0-1.6-0.2-3-0.7-4.3c-0.4-1.3-1.1-2.3-1.9-3.2
		c-0.8-0.9-1.8-1.6-2.9-2c-1.1-0.5-2.4-0.7-3.8-0.7c-1.4,0-2.6,0.2-3.7,0.7c-1.1,0.5-2.1,1.1-2.9,2c-0.8,0.9-1.4,2-1.9,3.2
		c-0.4,1.3-0.7,2.7-0.7,4.3c0,1.6,0.2,3,0.7,4.3c0.4,1.3,1.1,2.3,1.9,3.2c0.8,0.9,1.8,1.6,2.9,2c1.1,0.5,2.4,0.7,3.7,0.7
		c1.4,0,2.6-0.2,3.8-0.7c1.1-0.5,2.1-1.1,2.9-2c0.8-0.9,1.4-2,1.9-3.2C143.3,22.4,143.5,21,143.5,19.3z"/>
	<path class="st0" d="M161.6,10.7c-0.1,0.2-0.2,0.3-0.4,0.3c-0.1,0-0.3-0.1-0.5-0.3c-0.2-0.2-0.5-0.4-0.9-0.7
		c-0.4-0.2-0.8-0.5-1.4-0.7S157,9,156.2,9c-0.8,0-1.6,0.1-2.2,0.4c-0.6,0.2-1.2,0.6-1.6,1c-0.4,0.4-0.8,0.9-1,1.4
		c-0.2,0.5-0.3,1.1-0.3,1.7c0,0.8,0.2,1.4,0.5,1.9c0.3,0.5,0.8,0.9,1.3,1.3c0.5,0.4,1.2,0.7,1.8,0.9c0.7,0.2,1.4,0.5,2.1,0.7
		c0.7,0.2,1.4,0.5,2.1,0.8s1.3,0.6,1.8,1.1c0.5,0.4,1,1,1.3,1.6c0.3,0.6,0.5,1.4,0.5,2.4c0,1-0.2,1.9-0.5,2.7
		c-0.3,0.8-0.8,1.6-1.4,2.2c-0.6,0.6-1.4,1.1-2.3,1.5s-1.9,0.5-3.1,0.5c-1.5,0-2.8-0.3-3.9-0.8c-1.1-0.5-2-1.3-2.9-2.2l0.5-0.7
		c0.1-0.2,0.3-0.2,0.5-0.2c0.1,0,0.2,0.1,0.4,0.2c0.2,0.1,0.3,0.3,0.6,0.5c0.2,0.2,0.5,0.4,0.8,0.6s0.7,0.4,1.1,0.6
		c0.4,0.2,0.9,0.3,1.4,0.5c0.5,0.1,1.1,0.2,1.8,0.2c0.9,0,1.7-0.1,2.4-0.4c0.7-0.3,1.3-0.7,1.8-1.1c0.5-0.5,0.9-1,1.1-1.7
		c0.3-0.7,0.4-1.4,0.4-2.1c0-0.8-0.2-1.5-0.5-2c-0.3-0.5-0.8-1-1.3-1.3c-0.5-0.4-1.2-0.6-1.8-0.9s-1.4-0.5-2.1-0.7
		c-0.7-0.2-1.4-0.5-2.1-0.8c-0.7-0.3-1.3-0.6-1.8-1.1c-0.5-0.4-1-1-1.3-1.6c-0.3-0.7-0.5-1.5-0.5-2.5c0-0.8,0.1-1.5,0.4-2.2
		c0.3-0.7,0.7-1.3,1.3-1.9c0.6-0.5,1.3-1,2.1-1.3c0.8-0.3,1.8-0.5,2.8-0.5c1.2,0,2.3,0.2,3.2,0.6c0.9,0.4,1.8,1,2.6,1.7L161.6,10.7z
		"/>
	<path class="st0" d="M167.4,22.1v0.3c0,1.2,0.1,2.3,0.4,3.2c0.3,0.9,0.7,1.7,1.2,2.3c0.5,0.6,1.1,1.1,1.9,1.4
		c0.7,0.3,1.6,0.5,2.5,0.5c0.8,0,1.5-0.1,2.1-0.3c0.6-0.2,1.1-0.4,1.5-0.6c0.4-0.2,0.7-0.4,1-0.6c0.2-0.2,0.4-0.3,0.5-0.3
		c0.1,0,0.2,0.1,0.3,0.2l0.4,0.5c-0.3,0.3-0.6,0.6-1,0.9c-0.4,0.3-0.9,0.5-1.4,0.7c-0.5,0.2-1.1,0.4-1.7,0.5
		c-0.6,0.1-1.2,0.2-1.8,0.2c-1.1,0-2.1-0.2-3-0.6c-0.9-0.4-1.7-0.9-2.3-1.7c-0.6-0.7-1.1-1.6-1.5-2.7c-0.4-1.1-0.5-2.3-0.5-3.6
		c0-1.2,0.2-2.2,0.5-3.2c0.3-1,0.8-1.8,1.4-2.5c0.6-0.7,1.4-1.3,2.3-1.7c0.9-0.4,1.9-0.6,3.1-0.6c0.9,0,1.7,0.2,2.5,0.5
		c0.8,0.3,1.5,0.8,2,1.4c0.6,0.6,1,1.3,1.4,2.2c0.3,0.9,0.5,1.9,0.5,3c0,0.2,0,0.4-0.1,0.5c-0.1,0.1-0.2,0.1-0.3,0.1H167.4z
		 M178.2,21.1c0-0.9-0.1-1.6-0.4-2.3c-0.2-0.7-0.6-1.3-1-1.7c-0.4-0.5-1-0.8-1.6-1.1c-0.6-0.3-1.3-0.4-2-0.4c-0.8,0-1.6,0.1-2.2,0.4
		c-0.7,0.3-1.2,0.6-1.7,1.1c-0.5,0.5-0.9,1.1-1.2,1.7c-0.3,0.7-0.5,1.4-0.6,2.3H178.2z"/>
	<path class="st0" d="M188.1,31.1c-1.1,0-1.9-0.3-2.5-0.9c-0.6-0.6-0.9-1.5-0.9-2.8v-11h-2.3c-0.1,0-0.2,0-0.3-0.1
		c-0.1-0.1-0.1-0.2-0.1-0.3v-0.6l2.7-0.2l0.4-5.8c0-0.1,0.1-0.2,0.1-0.3c0.1-0.1,0.2-0.1,0.3-0.1h0.7v6.1h5.1v1.1h-5.1v10.9
		c0,0.4,0.1,0.8,0.2,1.1c0.1,0.3,0.3,0.6,0.5,0.8c0.2,0.2,0.4,0.4,0.7,0.5c0.3,0.1,0.6,0.1,0.9,0.1c0.4,0,0.7-0.1,1-0.2
		c0.3-0.1,0.5-0.2,0.7-0.4c0.2-0.1,0.4-0.3,0.5-0.4c0.1-0.1,0.2-0.2,0.3-0.2c0.1,0,0.2,0.1,0.3,0.2l0.4,0.7
		c-0.4,0.5-0.9,0.8-1.6,1.1C189.4,30.9,188.8,31.1,188.1,31.1z"/>
</g>
</svg>
