<svg id="Camada_1" data-name="Camada 1" xmlns="http://www.w3.org/2000/svg" viewBox="0 0 191.63 36.5"><defs><style>.cls-1{fill:#f63854;}</style></defs><title>logo</title><path class="cls-1" d="M77.31,9.62V35.43H75.69v-22a9.86,9.86,0,0,1,.05-1L65.58,30.5a0.8,0.8,0,0,1-.73.47H64.56a0.8,0.8,0,0,1-.73-0.47L53.4,12.4q0,0.55,0,1v22H51.81V9.62H53.1a1.18,1.18,0,0,1,.4.05,0.66,0.66,0,0,1,.29.29l10.43,18A7.44,7.44,0,0,1,64.69,29q0.11-.29.24-0.57c0.08-.19.18-0.37,0.27-0.54L75.32,10a0.64,0.64,0,0,1,.3-0.29A1.26,1.26,0,0,1,76,9.63h1.28Z" transform="translate(0 0)"/><path class="cls-1" d="M97.88,17.28V35.43h-1A0.49,0.49,0,0,1,96.35,35v0l-0.16-2.7a10.29,10.29,0,0,1-2.91,2.52,7.25,7.25,0,0,1-3.67,1A6.8,6.8,0,0,1,87,35.26a4.84,4.84,0,0,1-1.88-1.37A6,6,0,0,1,84,31.74a9.76,9.76,0,0,1-.38-2.84V17.28h1.75v11.6a6.22,6.22,0,0,0,1.17,4,4.29,4.29,0,0,0,3.56,1.45,6.44,6.44,0,0,0,3.31-.9,9.33,9.33,0,0,0,2.74-2.51V17.28h1.77Z" transform="translate(0 0)"/><path class="cls-1" d="M113.82,19.5a0.46,0.46,0,0,1-.42.26,1,1,0,0,1-.51-0.23,7.54,7.54,0,0,0-.83-0.51,6.76,6.76,0,0,0-1.29-.51,6.61,6.61,0,0,0-1.86-.23,5.43,5.43,0,0,0-1.8.28,4.47,4.47,0,0,0-1.39.76,3.33,3.33,0,0,0-.88,1.1,3,3,0,0,0-.31,1.32,2.25,2.25,0,0,0,.44,1.42,3.79,3.79,0,0,0,1.14,1,8.39,8.39,0,0,0,1.61.69l1.85,0.58q0.94,0.29,1.85.65A6.74,6.74,0,0,1,113,27a4.23,4.23,0,0,1,1.14,1.29,3.7,3.7,0,0,1,.44,1.86,5.74,5.74,0,0,1-.42,2.21A4.91,4.91,0,0,1,113,34.09a6,6,0,0,1-2,1.19,7.84,7.84,0,0,1-2.72.44,8.14,8.14,0,0,1-3.3-.61,9.28,9.28,0,0,1-2.44-1.61l0.4-.62a0.67,0.67,0,0,1,.21-0.22,0.6,0.6,0,0,1,.32-0.07,1,1,0,0,1,.57.29,6.43,6.43,0,0,0,.9.63,7.7,7.7,0,0,0,1.4.63,6.24,6.24,0,0,0,2.05.29,5.9,5.9,0,0,0,2-.32,4.23,4.23,0,0,0,1.46-.87,3.63,3.63,0,0,0,.88-1.29,4.1,4.1,0,0,0,.3-1.56,2.51,2.51,0,0,0-.44-1.51,3.76,3.76,0,0,0-1.15-1,8,8,0,0,0-1.61-.71l-1.85-.58q-0.95-.29-1.85-0.64a6.73,6.73,0,0,1-1.61-.88,4.22,4.22,0,0,1-1.15-1.29,3.72,3.72,0,0,1-.44-1.89,4.33,4.33,0,0,1,.42-1.86,4.73,4.73,0,0,1,1.19-1.53,5.89,5.89,0,0,1,1.89-1.08,7.34,7.34,0,0,1,2.5-.4,8.47,8.47,0,0,1,2.95.47,6.93,6.93,0,0,1,2.34,1.46Z" transform="translate(0 0)"/><path class="cls-1" d="M122,11a1.39,1.39,0,0,1-.14.61,1.83,1.83,0,0,1-.36.5,1.66,1.66,0,0,1-.51.35,1.57,1.57,0,0,1-1.24,0,1.64,1.64,0,0,1-.51-0.35,1.69,1.69,0,0,1-.35-0.5,1.47,1.47,0,0,1-.13-0.61,1.6,1.6,0,0,1,.13-0.63,1.62,1.62,0,0,1,.35-0.52,1.64,1.64,0,0,1,.51-0.35,1.57,1.57,0,0,1,1.24,0,1.66,1.66,0,0,1,.51.35,1.75,1.75,0,0,1,.36.52A1.51,1.51,0,0,1,122,11Zm-0.75,6.26V35.43H119.5V17.28h1.78Z" transform="translate(0 0)"/><path class="cls-1" d="M139.66,19.71l-0.17.16a0.37,0.37,0,0,1-.23.06,0.91,0.91,0,0,1-.49-0.25,6.12,6.12,0,0,0-.84-0.54,7.15,7.15,0,0,0-1.32-.54,7.4,7.4,0,0,0-4.71.31,5.61,5.61,0,0,0-2.05,1.6A7.1,7.1,0,0,0,128.58,23a11.92,11.92,0,0,0-.43,3.32,11.73,11.73,0,0,0,.45,3.39,7.22,7.22,0,0,0,1.27,2.49,5.4,5.4,0,0,0,2,1.54,6.2,6.2,0,0,0,2.59.53,6.73,6.73,0,0,0,2.2-.31,7.17,7.17,0,0,0,1.46-.67,6.05,6.05,0,0,0,.9-0.67,0.91,0.91,0,0,1,.55-0.31,0.45,0.45,0,0,1,.36.18l0.46,0.58a5.33,5.33,0,0,1-1.06,1,7.19,7.19,0,0,1-1.44.82,8.89,8.89,0,0,1-1.74.54,9.85,9.85,0,0,1-2,.19A7.77,7.77,0,0,1,131,35a6.84,6.84,0,0,1-2.49-1.81,8.51,8.51,0,0,1-1.6-2.93,12.47,12.47,0,0,1-.58-3.94,12.45,12.45,0,0,1,.55-3.79,8.47,8.47,0,0,1,1.61-3,7.23,7.23,0,0,1,2.58-1.92,8.44,8.44,0,0,1,3.49-.68,8.17,8.17,0,0,1,3.14.57A7.73,7.73,0,0,1,140.08,19Z" transform="translate(0 0)"/><path class="cls-1" d="M157.74,12.76a0.51,0.51,0,0,1-.47.31,1,1,0,0,1-.61-0.34,7.85,7.85,0,0,0-2.61-1.5,8,8,0,0,0-4.83.05,5.16,5.16,0,0,0-1.79,1.09,4.65,4.65,0,0,0-1.09,1.6,5,5,0,0,0-.37,1.91,3.92,3.92,0,0,0,.56,2.17A5,5,0,0,0,148,19.5a9.53,9.53,0,0,0,2.07,1q1.16,0.41,2.38.81t2.38,0.88a8.58,8.58,0,0,1,2.07,1.21,5.56,5.56,0,0,1,1.47,1.8,5.71,5.71,0,0,1,.56,2.65,8.37,8.37,0,0,1-.56,3.05,7.13,7.13,0,0,1-1.61,2.49,7.56,7.56,0,0,1-2.59,1.67,9.4,9.4,0,0,1-3.5.61,9.88,9.88,0,0,1-4.39-.9A10.34,10.34,0,0,1,143,32.3l0.47-.8a0.64,0.64,0,0,1,.51-0.27,0.73,0.73,0,0,1,.49.27L145.12,32a10.49,10.49,0,0,0,.88.69,7.17,7.17,0,0,0,1.19.69,8.34,8.34,0,0,0,1.55.54,8.19,8.19,0,0,0,2,.22,7.54,7.54,0,0,0,2.74-.46,6,6,0,0,0,2-1.27,5.36,5.36,0,0,0,1.24-2,6.34,6.34,0,0,0,.44-2.36,4.16,4.16,0,0,0-.56-2.25,4.8,4.8,0,0,0-1.47-1.48,9.53,9.53,0,0,0-2.07-1q-1.16-.4-2.38-0.78t-2.38-.86a8.2,8.2,0,0,1-2.07-1.21,5.54,5.54,0,0,1-1.47-1.84A6.1,6.1,0,0,1,144.2,16a6.54,6.54,0,0,1,.49-2.5,6.2,6.2,0,0,1,1.44-2.12,7.08,7.08,0,0,1,2.37-1.45,8.55,8.55,0,0,1,3.18-.56,9.64,9.64,0,0,1,3.6.64,8.63,8.63,0,0,1,2.91,2Z" transform="translate(0 0)"/><path class="cls-1" d="M164.34,25.64V26a12.3,12.3,0,0,0,.47,3.59,7.36,7.36,0,0,0,1.35,2.6,5.56,5.56,0,0,0,2.12,1.58,7,7,0,0,0,2.77.53,8.28,8.28,0,0,0,2.37-.3,8.76,8.76,0,0,0,1.69-.67,9.22,9.22,0,0,0,1.08-.67,1.23,1.23,0,0,1,.58-0.3,0.42,0.42,0,0,1,.37.18l0.47,0.58a4.94,4.94,0,0,1-1.16,1,8.24,8.24,0,0,1-1.61.81,11.63,11.63,0,0,1-1.9.54,10.43,10.43,0,0,1-2,.2,8.63,8.63,0,0,1-3.39-.65,7.18,7.18,0,0,1-2.63-1.89,8.6,8.6,0,0,1-1.69-3,13.1,13.1,0,0,1-.59-4.11,11.21,11.21,0,0,1,.56-3.6,8.24,8.24,0,0,1,1.6-2.85,7.33,7.33,0,0,1,2.57-1.87,8.45,8.45,0,0,1,3.46-.67,7.55,7.55,0,0,1,2.85.53A6.45,6.45,0,0,1,176,19.09a7.26,7.26,0,0,1,1.54,2.46,9.61,9.61,0,0,1,.56,3.39,1,1,0,0,1-.11.55,0.43,0.43,0,0,1-.36.15H164.34Zm12.11-1.14a7.81,7.81,0,0,0-.41-2.62,5.56,5.56,0,0,0-1.16-2,5.07,5.07,0,0,0-1.78-1.23,5.86,5.86,0,0,0-2.27-.43,6.84,6.84,0,0,0-2.52.44,5.51,5.51,0,0,0-1.92,1.26,6.31,6.31,0,0,0-1.3,2,9.17,9.17,0,0,0-.66,2.57h12Z" transform="translate(0 0)"/><path class="cls-1" d="M187.65,35.72a3.9,3.9,0,0,1-2.87-1,4.28,4.28,0,0,1-1-3.16V19.14h-2.61a0.48,0.48,0,0,1-.33-0.11,0.39,0.39,0,0,1-.13-0.31V18l3.1-.22,0.44-6.49A0.66,0.66,0,0,1,184.4,11a0.39,0.39,0,0,1,.31-0.13h0.79v6.93h5.73v1.29H185.5V31.5a3.84,3.84,0,0,0,.19,1.29,2.4,2.4,0,0,0,.53.88,2.07,2.07,0,0,0,.79.51,2.88,2.88,0,0,0,1,.16,3,3,0,0,0,1.13-.19,4.76,4.76,0,0,0,.82-0.42,5.27,5.27,0,0,0,.56-0.42,0.62,0.62,0,0,1,.35-0.19,0.39,0.39,0,0,1,.29.18l0.47,0.77a5.07,5.07,0,0,1-1.76,1.23A5.5,5.5,0,0,1,187.65,35.72Z" transform="translate(0 0)"/><path class="cls-1" d="M33.78,36.5H7.16a2.72,2.72,0,0,1-2.72-2.72h0v-0.5H33.28V4.44h0.5A2.72,2.72,0,0,1,36.5,7.16h0V33.78a2.72,2.72,0,0,1-2.72,2.72h0ZM5.5,34.28A1.72,1.72,0,0,0,7.16,35.5H33.78a1.72,1.72,0,0,0,1.72-1.72h0V7.16A1.72,1.72,0,0,0,34.28,5.5V34.28H5.5Zm23.83-2.22H2.72A2.72,2.72,0,0,1,0,29.34V2.72A2.72,2.72,0,0,1,2.72,0H29.34a2.72,2.72,0,0,1,2.72,2.72h0V29.34a2.72,2.72,0,0,1-2.72,2.72h0ZM2.72,1A1.72,1.72,0,0,0,1,2.72H1V29.34a1.72,1.72,0,0,0,1.72,1.72H29.34a1.72,1.72,0,0,0,1.72-1.72h0V2.72A1.72,1.72,0,0,0,29.34,1H2.72Zm10,22.19a3.83,3.83,0,0,1-3.83-3.83,3.79,3.79,0,0,1,4.44-3.77v-7l9.6,4.8-0.22.95H16.5v5a3.83,3.83,0,0,1-3.8,3.85h0Zm0-6.66a2.83,2.83,0,1,0,2.78,2.88v-6h5l-6.26-3.13V17l-0.66-.23a2.86,2.86,0,0,0-.88-0.25Z" transform="translate(0 0)"/></svg>