<svg id="Camada_1" data-name="Camada 1" xmlns="http://www.w3.org/2000/svg" xmlns:xlink="http://www.w3.org/1999/xlink" viewBox="0 0 1237.44 1048.45"><defs><style>.cls-1,.cls-2,.cls-28,.cls-34,.cls-36{fill:none;}.cls-2{stroke:#d4d4d4;stroke-width:1.98px;}.cls-3,.cls-32{fill:#f86a7f;}.cls-4{font-size:19.84px;fill:#fff;}.cls-10,.cls-30,.cls-32,.cls-38,.cls-4,.cls-7,.cls-8{font-family:Helvetica;}.cls-5{opacity:0.3;}.cls-6{clip-path:url(#clip-path);}.cls-10,.cls-7{font-size:17.01px;}.cls-7{font-weight:700;}.cls-8{font-size:14.51px;fill:#999;}.cls-9{fill:#f5f5f5;}.cls-10{fill:#6f6f6f;}.cls-11,.cls-30{fill:#f63854;}.cls-12{clip-path:url(#clip-path-2);}.cls-13{clip-path:url(#clip-path-3);}.cls-14{clip-path:url(#clip-path-4);}.cls-15{clip-path:url(#clip-path-5);}.cls-16{clip-path:url(#clip-path-6);}.cls-17{clip-path:url(#clip-path-7);}.cls-18{clip-path:url(#clip-path-8);}.cls-19{clip-path:url(#clip-path-9);}.cls-20,.cls-38{fill:#fcb4bf;}.cls-21{clip-path:url(#clip-path-10);}.cls-22{clip-path:url(#clip-path-11);}.cls-23{clip-path:url(#clip-path-12);}.cls-24{clip-path:url(#clip-path-13);}.cls-25{clip-path:url(#clip-path-14);}.cls-26{clip-path:url(#clip-path-15);}.cls-27{clip-path:url(#clip-path-16);}.cls-28{stroke:#f63854;}.cls-28,.cls-34,.cls-36{stroke-miterlimit:10;stroke-width:1.13px;}.cls-29{clip-path:url(#clip-path-17);}.cls-30,.cls-32,.cls-38{font-size:22.68px;}.cls-31{clip-path:url(#clip-path-18);}.cls-33{clip-path:url(#clip-path-19);}.cls-34{stroke:#f86a7f;}.cls-35{clip-path:url(#clip-path-20);}.cls-36{stroke:#fcb4bf;}.cls-37{clip-path:url(#clip-path-21);}</style><clipPath id="clip-path"><rect class="cls-1" x="35.97" y="534.29" width="229.7" height="35.06"/></clipPath><clipPath id="clip-path-2"><rect class="cls-1" x="35.97" y="300.56" width="229.7" height="35.06"/></clipPath><clipPath id="clip-path-3"><rect class="cls-1" x="35.97" y="100.68" width="229.7" height="35.06"/></clipPath><clipPath id="clip-path-4"><rect class="cls-1" x="339.01" y="534.29" width="229.7" height="35.06"/></clipPath><clipPath id="clip-path-5"><rect class="cls-1" x="339.01" y="300.56" width="229.7" height="35.06"/></clipPath><clipPath id="clip-path-6"><rect class="cls-1" x="339.01" y="100.68" width="229.7" height="35.06"/></clipPath><clipPath id="clip-path-7"><rect class="cls-1" x="627.54" y="534.29" width="229.7" height="35.06"/></clipPath><clipPath id="clip-path-8"><rect class="cls-1" x="627.54" y="300.56" width="229.7" height="35.06"/></clipPath><clipPath id="clip-path-9"><rect class="cls-1" x="627.54" y="100.68" width="229.7" height="35.06"/></clipPath><clipPath id="clip-path-10"><rect class="cls-1" x="953.06" y="205.46" width="229.69" height="35.06"/></clipPath><clipPath id="clip-path-11"><rect class="cls-1" x="953.06" y="345.69" width="229.69" height="35.06"/></clipPath><clipPath id="clip-path-12"><rect class="cls-1" x="306.77" y="840.15" width="271.49" height="35.06"/></clipPath><clipPath id="clip-path-13"><rect class="cls-1" x="306.77" y="875.21" width="271.49" height="35.06"/></clipPath><clipPath id="clip-path-14"><rect class="cls-1" x="616.26" y="805.09" width="271.49" height="35.06"/></clipPath><clipPath id="clip-path-15"><rect class="cls-1" x="616.26" y="840.15" width="271.49" height="35.06"/></clipPath><clipPath id="clip-path-16"><rect class="cls-1" x="21.75" y="9.3" width="874.09" height="477.2"/></clipPath><clipPath id="clip-path-17"><rect class="cls-1" x="22.31" y="9.86" width="872.96" height="40.95"/></clipPath><clipPath id="clip-path-18"><rect class="cls-1" x="22.31" y="1000" width="872.96" height="37.95"/></clipPath><clipPath id="clip-path-19"><rect class="cls-1" x="21.75" y="490.51" width="874.09" height="548"/></clipPath><clipPath id="clip-path-20"><rect class="cls-1" x="917.7" y="110.23" width="299.58" height="742.39"/></clipPath><clipPath id="clip-path-21"><rect class="cls-1" x="918.27" y="110.8" width="298.44" height="40.94"/></clipPath></defs><title>schema</title><path class="cls-2" d="M578.13,891.53H587a9.67,9.67,0,0,0,9.89-9.42V563a10,10,0,0,0-10.26-9.77h-18"/><path class="cls-2" d="M306.77,857.68h-7.25a7.33,7.33,0,0,1-7.25-7.4V561.68a9.77,9.77,0,0,0-9.67-9.87H270.5"/><path class="cls-2" d="M887.75,857.68h9.33a9.33,9.33,0,0,0,9.33-9.33V561.49a9.67,9.67,0,0,0-9.67-9.67H860.47"/><path class="cls-2" d="M616.26,822.62h-9.8a9.8,9.8,0,0,1-9.8-9.8V563a9.8,9.8,0,0,0-9.8-9.8H569.71"/><path class="cls-2" d="M953.06,363.22H920.21c-6,0-11,4.33-11,9.67V542.15c0,5.34-4.9,9.67-11,9.67H857.24"/><path class="cls-2" d="M953.06,223H919.8c-5.72,0-10.36,4.33-10.36,9.67V542.15c0,5.34-4.64,9.67-10.36,9.67H860.24"/><path class="cls-2" d="M265.67,319.7h16.92a9.58,9.58,0,0,1,9.67,9.47V542.34a9.58,9.58,0,0,1-9.67,9.47H270.5"/><path class="cls-2" d="M568.71,319.7h14.87c4.69,0,8.5,4.27,8.5,9.53V543.69c0,5.26-3.8,9.53-8.5,9.53H573"/><path class="cls-2" d="M857.24,319.7h13.88c6.13,0,11.11,4.24,11.11,9.47V542.34c0,5.23-5,9.47-11.11,9.47H857.24"/><path class="cls-2" d="M265.67,118.21h18.41c4.52,0,8.18,4.32,8.18,9.64V542.42c0,5.32-3.66,9.64-8.18,9.64l-18.41-.24"/><path class="cls-2" d="M568.71,118.21h13c5.74,0,10.39,4.28,10.39,9.56V543.66c0,5.28-4.65,9.56-10.39,9.56h-13"/><path class="cls-2" d="M857.24,118.42h17.3c4.25,0,7.69,4.31,7.69,9.63V542.19c0,5.32-3.44,9.63-7.69,9.63h-9.61"/><rect class="cls-3" x="35.97" y="495.6" width="229.7" height="38.69"/><rect class="cls-1" width="1237.44" height="1048.45"/><text class="cls-4" transform="translate(47.69 522.45)">Artists</text><g class="cls-5"><g class="cls-6"><rect class="cls-3" x="35.97" y="534.29" width="229.7" height="35.06"/></g></g><rect class="cls-1" width="1237.44" height="1048.45"/><text class="cls-7" transform="translate(51.69 556.89)">artist_id</text><text class="cls-8" transform="translate(198.74 556.89)">varchar</text><rect class="cls-9" x="35.97" y="569.35" width="229.7" height="35.06"/><rect class="cls-1" width="1237.44" height="1048.45"/><text class="cls-10" transform="translate(51.69 591.95)">name</text><text class="cls-8" transform="translate(202.79 591.95)">varchar</text><rect class="cls-9" x="35.97" y="604.41" width="229.7" height="35.06"/><rect class="cls-1" width="1237.44" height="1048.45"/><text class="cls-10" transform="translate(51.69 627.01)">followers</text><text class="cls-8" transform="translate(235.84 627.01)">int</text><rect class="cls-9" x="35.97" y="639.47" width="229.7" height="35.06"/><rect class="cls-1" width="1237.44" height="1048.45"/><text class="cls-10" transform="translate(51.69 662.07)">popularity</text><text class="cls-8" transform="translate(235.84 662.07)">int</text><rect class="cls-9" x="35.97" y="674.52" width="229.7" height="35.06"/><rect class="cls-1" width="1237.44" height="1048.45"/><text class="cls-10" transform="translate(51.69 697.13)">artist_type</text><text class="cls-8" transform="translate(202.79 697.13)">varchar</text><rect class="cls-9" x="35.97" y="709.58" width="229.7" height="35.06"/><rect class="cls-1" width="1237.44" height="1048.45"/><text class="cls-10" transform="translate(51.69 732.19)">main_genre</text><text class="cls-8" transform="translate(202.79 732.19)">varchar</text><rect class="cls-9" x="35.97" y="779.7" width="229.7" height="35.06"/><rect class="cls-1" width="1237.44" height="1048.45"/><text class="cls-10" transform="translate(51.69 802.31)">image_url</text><text class="cls-8" transform="translate(202.79 802.31)">varchar</text><rect class="cls-11" x="35.97" y="261.87" width="229.7" height="38.69"/><rect class="cls-1" width="1237.44" height="1048.45"/><text class="cls-4" transform="translate(47.69 288.72)">ArtistChart</text><g class="cls-5"><g class="cls-12"><rect class="cls-11" x="35.97" y="300.56" width="229.7" height="35.06"/></g></g><rect class="cls-1" width="1237.44" height="1048.45"/><text class="cls-10" transform="translate(51.69 323.17)">artist_id</text><text class="cls-8" transform="translate(202.79 323.17)">varchar</text><rect class="cls-9" x="35.97" y="335.62" width="229.7" height="35.06"/><rect class="cls-1" width="1237.44" height="1048.45"/><text class="cls-10" transform="translate(51.69 358.23)">rank_score</text><text class="cls-8" transform="translate(235.84 358.23)">int</text><rect class="cls-9" x="35.97" y="370.68" width="229.7" height="35.06"/><rect class="cls-1" width="1237.44" height="1048.45"/><text class="cls-10" transform="translate(51.69 393.28)">peak_position</text><text class="cls-8" transform="translate(235.84 393.28)">int</text><rect class="cls-9" x="35.97" y="405.74" width="229.7" height="35.06"/><rect class="cls-1" width="1237.44" height="1048.45"/><text class="cls-10" transform="translate(51.69 428.34)">weeks_on_chart</text><text class="cls-8" transform="translate(235.84 428.34)">int</text><rect class="cls-9" x="35.97" y="440.8" width="229.7" height="35.06"/><rect class="cls-1" width="1237.44" height="1048.45"/><text class="cls-10" transform="translate(51.69 463.4)">week</text><text class="cls-8" transform="translate(195.52 463.4)">datetime</text><rect class="cls-11" x="35.97" y="62" width="229.7" height="38.69"/><rect class="cls-1" width="1237.44" height="1048.45"/><text class="cls-4" transform="translate(47.69 88.84)">ArtistPop</text><g class="cls-5"><g class="cls-13"><rect class="cls-11" x="35.97" y="100.68" width="229.7" height="35.06"/></g></g><rect class="cls-1" width="1237.44" height="1048.45"/><text class="cls-10" transform="translate(51.69 123.29)">artist_id</text><text class="cls-8" transform="translate(202.79 123.29)">varchar</text><rect class="cls-9" x="35.97" y="135.74" width="229.7" height="35.06"/><rect class="cls-1" width="1237.44" height="1048.45"/><text class="cls-10" transform="translate(51.69 158.35)">year_end_score</text><text class="cls-8" transform="translate(235.84 158.35)">int</text><rect class="cls-9" x="35.97" y="170.8" width="229.7" height="35.06"/><rect class="cls-1" width="1237.44" height="1048.45"/><text class="cls-10" transform="translate(51.69 193.41)">is_pop</text><text class="cls-8" transform="translate(199.53 193.41)">boolean</text><rect class="cls-9" x="35.97" y="205.86" width="229.7" height="35.06"/><rect class="cls-1" width="1237.44" height="1048.45"/><text class="cls-10" transform="translate(51.69 228.47)">year</text><text class="cls-8" transform="translate(195.52 228.47)">datetime</text><rect class="cls-3" x="339.01" y="495.6" width="229.7" height="38.69"/><rect class="cls-1" width="1237.44" height="1048.45"/><text class="cls-4" transform="translate(350.73 522.45)">Albums</text><g class="cls-5"><g class="cls-14"><rect class="cls-3" x="339.01" y="534.29" width="229.7" height="35.06"/></g></g><rect class="cls-1" width="1237.44" height="1048.45"/><text class="cls-7" transform="translate(354.73 556.89)">album_id</text><text class="cls-8" transform="translate(501.78 556.89)">varchar</text><rect class="cls-9" x="339.01" y="569.35" width="229.7" height="35.06"/><rect class="cls-1" width="1237.44" height="1048.45"/><text class="cls-10" transform="translate(354.73 591.95)">name</text><text class="cls-8" transform="translate(505.83 591.95)">varchar</text><rect class="cls-9" x="339.01" y="604.41" width="229.7" height="35.06"/><rect class="cls-1" width="1237.44" height="1048.45"/><text class="cls-10" transform="translate(354.73 627.01)">artists</text><text class="cls-8" transform="translate(505.83 627.01)">varchar</text><rect class="cls-9" x="339.01" y="639.47" width="229.7" height="35.06"/><rect class="cls-1" width="1237.44" height="1048.45"/><text class="cls-10" transform="translate(354.73 662.07)">popularity</text><text class="cls-8" transform="translate(538.88 662.07)">int</text><rect class="cls-9" x="339.01" y="709.58" width="229.7" height="35.06"/><rect class="cls-1" width="1237.44" height="1048.45"/><text class="cls-10" transform="translate(354.73 732.19)">album_type</text><text class="cls-8" transform="translate(505.83 732.19)">varchar</text><rect class="cls-9" x="339.01" y="744.64" width="229.7" height="35.06"/><rect class="cls-1" width="1237.44" height="1048.45"/><text class="cls-10" transform="translate(354.73 767.25)">image_url</text><text class="cls-8" transform="translate(505.83 767.25)">varchar</text><rect class="cls-11" x="339.01" y="261.87" width="229.7" height="38.69"/><rect class="cls-1" width="1237.44" height="1048.45"/><text class="cls-4" transform="translate(350.73 288.72)">AlbumChart</text><g class="cls-5"><g class="cls-15"><rect class="cls-11" x="339.01" y="300.56" width="229.7" height="35.06"/></g></g><rect class="cls-1" width="1237.44" height="1048.45"/><text class="cls-10" transform="translate(354.73 323.17)">album_id</text><text class="cls-8" transform="translate(505.83 323.17)">varchar</text><rect class="cls-9" x="339.01" y="335.62" width="229.7" height="35.06"/><rect class="cls-1" width="1237.44" height="1048.45"/><text class="cls-10" transform="translate(354.73 358.23)">rank_score</text><text class="cls-8" transform="translate(538.88 358.23)">int</text><rect class="cls-9" x="339.01" y="370.68" width="229.7" height="35.06"/><rect class="cls-1" width="1237.44" height="1048.45"/><text class="cls-10" transform="translate(354.73 393.28)">peak_position</text><text class="cls-8" transform="translate(538.88 393.28)">int</text><rect class="cls-9" x="339.01" y="405.74" width="229.7" height="35.06"/><rect class="cls-1" width="1237.44" height="1048.45"/><text class="cls-10" transform="translate(354.73 428.34)">weeks_on_chart</text><text class="cls-8" transform="translate(538.88 428.34)">int</text><rect class="cls-9" x="339.01" y="440.8" width="229.7" height="35.06"/><rect class="cls-1" width="1237.44" height="1048.45"/><text class="cls-10" transform="translate(354.73 463.4)">week</text><text class="cls-8" transform="translate(498.56 463.4)">datetime</text><rect class="cls-11" x="339.01" y="62" width="229.7" height="38.69"/><rect class="cls-1" width="1237.44" height="1048.45"/><text class="cls-4" transform="translate(350.73 88.84)">AlbumPop</text><g class="cls-5"><g class="cls-16"><rect class="cls-11" x="339.01" y="100.68" width="229.7" height="35.06"/></g></g><rect class="cls-1" width="1237.44" height="1048.45"/><text class="cls-10" transform="translate(354.73 123.29)">album_id</text><text class="cls-8" transform="translate(505.83 123.29)">varchar</text><rect class="cls-9" x="339.01" y="135.74" width="229.7" height="35.06"/><rect class="cls-1" width="1237.44" height="1048.45"/><text class="cls-10" transform="translate(354.73 158.35)">year_end_score</text><text class="cls-8" transform="translate(538.88 158.35)">int</text><rect class="cls-9" x="339.01" y="170.8" width="229.7" height="35.06"/><rect class="cls-1" width="1237.44" height="1048.45"/><text class="cls-10" transform="translate(354.73 193.41)">is_pop</text><text class="cls-8" transform="translate(502.57 193.41)">boolean</text><rect class="cls-9" x="339.01" y="205.86" width="229.7" height="35.06"/><rect class="cls-1" width="1237.44" height="1048.45"/><text class="cls-10" transform="translate(354.73 228.47)">year</text><text class="cls-8" transform="translate(498.56 228.47)">datetime</text><rect class="cls-3" x="627.54" y="495.6" width="229.7" height="38.69"/><rect class="cls-1" width="1237.44" height="1048.45"/><text class="cls-4" transform="translate(639.26 522.45)">Songs</text><g class="cls-5"><g class="cls-17"><rect class="cls-3" x="627.54" y="534.29" width="229.7" height="35.06"/></g></g><rect class="cls-1" width="1237.44" height="1048.45"/><text class="cls-7" transform="translate(643.26 556.9)">song_id</text><text class="cls-8" transform="translate(790.31 556.9)">varchar</text><rect class="cls-9" x="627.54" y="569.35" width="229.7" height="35.06"/><rect class="cls-1" width="1237.44" height="1048.45"/><text class="cls-10" transform="translate(643.26 591.95)">name</text><text class="cls-8" transform="translate(794.36 591.95)">varchar</text><rect class="cls-9" x="627.54" y="604.41" width="229.7" height="35.06"/><rect class="cls-1" width="1237.44" height="1048.45"/><text class="cls-10" transform="translate(643.26 627.01)">artists</text><text class="cls-8" transform="translate(794.36 627.01)">varchar</text><rect class="cls-9" x="627.54" y="639.47" width="229.7" height="35.06"/><rect class="cls-1" width="1237.44" height="1048.45"/><text class="cls-10" transform="translate(643.26 662.07)">popularity</text><text class="cls-8" transform="translate(827.41 662.07)">int</text><rect class="cls-9" x="627.54" y="709.58" width="229.7" height="35.06"/><rect class="cls-1" width="1237.44" height="1048.45"/><text class="cls-10" transform="translate(643.26 732.19)">song_type</text><text class="cls-8" transform="translate(794.36 732.19)">varchar</text><rect class="cls-9" x="627.54" y="674.52" width="229.7" height="35.06"/><rect class="cls-1" width="1237.44" height="1048.45"/><text class="cls-10" transform="translate(643.26 697.13)">explicit</text><text class="cls-8" transform="translate(791.1 697.13)">boolean</text><rect class="cls-11" x="627.54" y="261.87" width="229.7" height="38.69"/><rect class="cls-1" width="1237.44" height="1048.45"/><text class="cls-4" transform="translate(639.26 288.72)">SongChart</text><g class="cls-5"><g class="cls-18"><rect class="cls-11" x="627.54" y="300.56" width="229.7" height="35.06"/></g></g><rect class="cls-1" width="1237.44" height="1048.45"/><text class="cls-10" transform="translate(643.26 323.17)">song_id</text><text class="cls-8" transform="translate(794.36 323.17)">varchar</text><rect class="cls-9" x="627.54" y="335.62" width="229.7" height="35.06"/><rect class="cls-1" width="1237.44" height="1048.45"/><text class="cls-10" transform="translate(643.26 358.23)">rank_score</text><text class="cls-8" transform="translate(827.41 358.23)">int</text><rect class="cls-9" x="627.54" y="370.68" width="229.7" height="35.06"/><rect class="cls-1" width="1237.44" height="1048.45"/><text class="cls-10" transform="translate(643.26 393.28)">peak_position</text><text class="cls-8" transform="translate(827.41 393.28)">int</text><rect class="cls-9" x="627.54" y="405.74" width="229.7" height="35.06"/><rect class="cls-1" width="1237.44" height="1048.45"/><text class="cls-10" transform="translate(643.26 428.34)">weeks_on_chart</text><text class="cls-8" transform="translate(827.41 428.34)">int</text><rect class="cls-9" x="627.54" y="440.8" width="229.7" height="35.06"/><rect class="cls-1" width="1237.44" height="1048.45"/><text class="cls-10" transform="translate(643.26 463.4)">week</text><text class="cls-8" transform="translate(787.09 463.4)">datetime</text><rect class="cls-11" x="627.54" y="62" width="229.7" height="38.69"/><rect class="cls-1" width="1237.44" height="1048.45"/><text class="cls-4" transform="translate(639.26 88.84)">SongPop</text><g class="cls-5"><g class="cls-19"><rect class="cls-11" x="627.54" y="100.68" width="229.7" height="35.06"/></g></g><rect class="cls-1" width="1237.44" height="1048.45"/><text class="cls-10" transform="translate(643.26 123.29)">song_id</text><text class="cls-8" transform="translate(794.36 123.29)">varchar</text><rect class="cls-9" x="627.54" y="135.74" width="229.7" height="35.06"/><rect class="cls-1" width="1237.44" height="1048.45"/><text class="cls-10" transform="translate(643.26 158.35)">year_end_score</text><text class="cls-8" transform="translate(827.41 158.35)">int</text><rect class="cls-9" x="627.54" y="170.8" width="229.7" height="35.06"/><rect class="cls-1" width="1237.44" height="1048.45"/><text class="cls-10" transform="translate(643.26 193.41)">is_pop</text><text class="cls-8" transform="translate(791.1 193.41)">boolean</text><rect class="cls-9" x="627.54" y="205.86" width="229.7" height="35.06"/><rect class="cls-1" width="1237.44" height="1048.45"/><text class="cls-10" transform="translate(643.26 228.47)">year</text><text class="cls-8" transform="translate(787.09 228.47)">datetime</text><rect class="cls-20" x="953.06" y="166.77" width="229.7" height="38.69"/><rect class="cls-1" width="1237.44" height="1048.45"/><text class="cls-4" transform="translate(964.77 193.62)">Lyrics</text><g class="cls-5"><g class="cls-21"><rect class="cls-20" x="953.06" y="205.46" width="229.7" height="35.06"/></g></g><rect class="cls-1" width="1237.44" height="1048.45"/><text class="cls-10" transform="translate(968.77 228.06)">song_id</text><text class="cls-8" transform="translate(1119.87 228.06)">varchar</text><rect class="cls-9" x="953.06" y="240.52" width="229.7" height="35.06"/><rect class="cls-1" width="1237.44" height="1048.45"/><text class="cls-10" transform="translate(968.77 263.12)">lyrics</text><text class="cls-8" transform="translate(1119.87 263.12)">varchar</text><rect class="cls-20" x="953.06" y="307.01" width="229.7" height="38.69"/><rect class="cls-1" width="1237.44" height="1048.45"/><text class="cls-4" transform="translate(964.77 333.85)">AcousticFeatures</text><g class="cls-5"><g class="cls-22"><rect class="cls-20" x="953.06" y="345.69" width="229.7" height="35.06"/></g></g><rect class="cls-1" width="1237.44" height="1048.45"/><text class="cls-10" transform="translate(968.77 368.3)">song_id</text><text class="cls-8" transform="translate(1119.88 368.3)">varchar</text><rect class="cls-9" x="953.06" y="380.75" width="229.7" height="35.06"/><rect class="cls-1" width="1237.44" height="1048.45"/><text class="cls-10" transform="translate(968.77 403.36)">duration_ms</text><text class="cls-8" transform="translate(1152.93 403.36)">int</text><rect class="cls-9" x="953.06" y="415.81" width="229.7" height="35.06"/><rect class="cls-1" width="1237.44" height="1048.45"/><text class="cls-10" transform="translate(968.77 438.42)">key</text><text class="cls-8" transform="translate(1152.93 438.42)">int</text><rect class="cls-9" x="953.06" y="450.87" width="229.7" height="35.06"/><rect class="cls-1" width="1237.44" height="1048.45"/><text class="cls-10" transform="translate(968.77 473.48)">mode</text><text class="cls-8" transform="translate(1152.93 473.48)">bit</text><rect class="cls-9" x="953.06" y="485.93" width="229.7" height="35.06"/><rect class="cls-1" width="1237.44" height="1048.45"/><text class="cls-10" transform="translate(968.77 508.54)">time_signature</text><text class="cls-8" transform="translate(1152.93 508.54)">int</text><rect class="cls-9" x="953.06" y="520.99" width="229.7" height="35.06"/><rect class="cls-1" width="1237.44" height="1048.45"/><text class="cls-10" transform="translate(968.77 543.6)">acousticness</text><text class="cls-8" transform="translate(1152.93 543.6)">int</text><rect class="cls-9" x="953.06" y="556.05" width="229.7" height="35.06"/><rect class="cls-1" width="1237.44" height="1048.45"/><text class="cls-10" transform="translate(968.77 578.66)">danceability</text><text class="cls-8" transform="translate(1152.93 578.66)">int</text><rect class="cls-9" x="953.06" y="591.11" width="229.7" height="35.06"/><rect class="cls-1" width="1237.44" height="1048.45"/><text class="cls-10" transform="translate(968.77 613.71)">energy</text><text class="cls-8" transform="translate(1152.93 613.71)">int</text><rect class="cls-9" x="953.06" y="626.17" width="229.7" height="35.06"/><rect class="cls-1" width="1237.44" height="1048.45"/><text class="cls-10" transform="translate(968.77 648.77)">instrumentalness</text><text class="cls-8" transform="translate(1152.93 648.77)">int</text><rect class="cls-9" x="953.06" y="661.23" width="229.7" height="35.06"/><rect class="cls-1" width="1237.44" height="1048.45"/><text class="cls-10" transform="translate(968.77 683.83)">liveness</text><text class="cls-8" transform="translate(1152.93 683.83)">int</text><rect class="cls-9" x="953.06" y="696.29" width="229.7" height="35.06"/><rect class="cls-1" width="1237.44" height="1048.45"/><text class="cls-10" transform="translate(968.77 718.89)">loudness</text><text class="cls-8" transform="translate(1152.93 718.89)">int</text><rect class="cls-9" x="953.06" y="731.34" width="229.7" height="35.06"/><rect class="cls-1" width="1237.44" height="1048.45"/><text class="cls-10" transform="translate(968.77 753.95)">speechiness</text><text class="cls-8" transform="translate(1152.93 753.95)">int</text><rect class="cls-9" x="953.06" y="766.4" width="229.7" height="35.06"/><rect class="cls-1" width="1237.44" height="1048.45"/><text class="cls-10" transform="translate(968.77 789.01)">valence</text><text class="cls-8" transform="translate(1152.93 789.01)">int</text><rect class="cls-9" x="953.06" y="801.46" width="229.7" height="35.06"/><rect class="cls-1" width="1237.44" height="1048.45"/><text class="cls-10" transform="translate(968.77 824.07)">tempo</text><text class="cls-8" transform="translate(1152.93 824.07)">int</text><rect class="cls-3" x="306.77" y="801.46" width="271.49" height="38.69"/><rect class="cls-1" width="1237.44" height="1048.45"/><text class="cls-4" transform="translate(318.49 828.31)">Releases</text><g class="cls-5"><g class="cls-23"><rect class="cls-3" x="306.77" y="840.15" width="271.49" height="35.06"/></g></g><rect class="cls-1" width="1237.44" height="1048.45"/><text class="cls-10" transform="translate(322.49 862.76)">artist_id</text><text class="cls-8" transform="translate(515.38 862.76)">varchar</text><g class="cls-5"><g class="cls-24"><rect class="cls-3" x="306.77" y="875.21" width="271.49" height="35.06"/></g></g><rect class="cls-1" width="1237.44" height="1048.45"/><text class="cls-10" transform="translate(322.49 897.82)">album_id</text><text class="cls-8" transform="translate(515.38 897.82)">varchar</text><rect class="cls-9" x="306.77" y="910.27" width="271.49" height="35.06"/><rect class="cls-1" width="1237.44" height="1048.45"/><text class="cls-10" transform="translate(322.49 932.87)">release_date</text><text class="cls-8" transform="translate(508.11 932.87)">datetime</text><rect class="cls-9" x="306.77" y="945.33" width="271.49" height="35.06"/><rect class="cls-1" width="1237.44" height="1048.45"/><text class="cls-10" transform="translate(322.49 967.93)">release_date_precision</text><text class="cls-8" transform="translate(515.38 967.93)">varchar</text><rect class="cls-3" x="616.26" y="766.4" width="271.49" height="38.69"/><rect class="cls-1" width="1237.44" height="1048.45"/><text class="cls-4" transform="translate(627.98 793.25)">Tracks</text><g class="cls-5"><g class="cls-25"><rect class="cls-3" x="616.26" y="805.09" width="271.49" height="35.06"/></g></g><rect class="cls-1" width="1237.44" height="1048.45"/><text class="cls-10" transform="translate(631.98 827.7)">album_id</text><text class="cls-8" transform="translate(824.87 827.7)">varchar</text><g class="cls-5"><g class="cls-26"><rect class="cls-3" x="616.26" y="840.15" width="271.49" height="35.06"/></g></g><rect class="cls-1" width="1237.44" height="1048.45"/><text class="cls-10" transform="translate(631.98 862.76)">song_id</text><text class="cls-8" transform="translate(824.87 862.76)">varchar</text><rect class="cls-9" x="616.26" y="875.21" width="271.49" height="35.06"/><rect class="cls-1" width="1237.44" height="1048.45"/><text class="cls-10" transform="translate(631.98 897.81)">track_number</text><text class="cls-8" transform="translate(857.92 897.81)">int</text><rect class="cls-9" x="616.26" y="910.27" width="271.49" height="35.06"/><rect class="cls-1" width="1237.44" height="1048.45"/><text class="cls-10" transform="translate(631.98 932.87)">release_date</text><text class="cls-8" transform="translate(817.6 932.87)">datetime</text><rect class="cls-9" x="616.26" y="945.33" width="271.49" height="35.06"/><rect class="cls-1" width="1237.44" height="1048.45"/><text class="cls-10" transform="translate(631.98 967.93)">release_date_precision</text><text class="cls-8" transform="translate(824.87 967.93)">varchar</text><g class="cls-5"><g class="cls-27"><rect class="cls-28" x="22.31" y="9.86" width="872.96" height="476.07"/></g></g><g class="cls-5"><g class="cls-29"><rect class="cls-11" x="22.31" y="9.86" width="872.96" height="40.94"/></g></g><rect class="cls-1" width="1237.44" height="1048.45"/><text class="cls-30" transform="translate(408.37 37.52)">Popularity</text><g class="cls-5"><g class="cls-31"><rect class="cls-3" x="22.31" y="1000" width="872.96" height="37.95"/></g></g><rect class="cls-1" width="1237.44" height="1048.45"/><text class="cls-32" transform="translate(411.52 1025.77)">Metadata</text><g class="cls-5"><g class="cls-33"><rect class="cls-34" x="22.31" y="491.08" width="872.96" height="546.87"/></g></g><g class="cls-5"><g class="cls-35"><rect class="cls-36" x="918.27" y="110.8" width="298.44" height="741.25"/></g></g><g class="cls-5"><g class="cls-37"><rect class="cls-20" x="918.27" y="110.8" width="298.44" height="40.94"/></g></g><rect class="cls-1" width="1237.44" height="1048.45"/><text class="cls-38" transform="translate(993.12 137.94)">Song Features</text><rect class="cls-1" width="1237.44" height="1048.45"/><rect class="cls-9" x="35.97" y="744.64" width="229.7" height="35.06"/><text class="cls-10" transform="translate(51.69 767.25)">genres</text><text class="cls-8" transform="translate(202.79 767.25)">varchar</text><rect class="cls-9" x="339.01" y="674.52" width="229.7" height="35.06"/><text class="cls-10" transform="translate(354.73 697.13)">total_tracks</text><text class="cls-8" transform="translate(538.88 697.13)">int</text></svg>